<svg width="24" height="24" viewBox="0 0 24 24" fill="none" xmlns="http://www.w3.org/2000/svg">
<mask id="path-1-inside-1_2870_14800" fill="white">
<path fill-rule="evenodd" clip-rule="evenodd" d="M12.7071 15.7071C12.5196 15.8946 12.2653 15.9999 12.0001 15.9999C11.7349 15.9999 11.4806 15.8946 11.2931 15.7071L5.6361 10.0501C5.54059 9.95785 5.46441 9.84751 5.412 9.7255C5.35959 9.6035 5.332 9.47228 5.33085 9.3395C5.32969 9.20672 5.355 9.07504 5.40528 8.95215C5.45556 8.82925 5.52981 8.7176 5.6237 8.6237C5.7176 8.52981 5.82925 8.45556 5.95214 8.40528C6.07504 8.355 6.20672 8.32969 6.3395 8.33085C6.47228 8.332 6.6035 8.35959 6.7255 8.412C6.84751 8.46441 6.95785 8.54059 7.0501 8.6361L12.0001 13.5861L16.9501 8.6361C17.1387 8.45394 17.3913 8.35315 17.6535 8.35542C17.9157 8.3577 18.1665 8.46287 18.3519 8.64828C18.5373 8.83369 18.6425 9.0845 18.6448 9.3467C18.6471 9.60889 18.5463 9.8615 18.3641 10.0501L12.7071 15.7071Z"/>
</mask>
<path d="M12.7071 15.7071L16.9491 19.9504L16.9497 19.9497L12.7071 15.7071ZM11.2931 15.7071L7.05046 19.9497L7.0511 19.9504L11.2931 15.7071ZM5.6361 10.0501L9.87874 5.80746L9.84187 5.77059L9.80437 5.73437L5.6361 10.0501ZM7.0501 8.6361L2.73437 12.8044L2.77059 12.8419L2.80746 12.8787L7.0501 8.6361ZM12.0001 13.5861L7.75746 17.8287L12.0001 22.0714L16.2427 17.8287L12.0001 13.5861ZM16.9501 8.6361L12.7818 4.32037L12.7443 4.35659L12.7075 4.39346L16.9501 8.6361ZM18.3641 10.0501L22.6067 14.2927L22.6436 14.2559L22.6798 14.2184L18.3641 10.0501ZM12.7071 15.7071L8.4651 11.4638C9.40273 10.5265 10.6743 9.99989 12.0001 9.99989V15.9999V21.9999C13.8563 21.9999 15.6364 21.2627 16.9491 19.9504L12.7071 15.7071ZM12.0001 15.9999V9.99989C13.3259 9.99989 14.5975 10.5265 15.5351 11.4638L11.2931 15.7071L7.0511 19.9504C8.36379 21.2627 10.1439 21.9999 12.0001 21.9999V15.9999ZM11.2931 15.7071L15.5357 11.4645L9.87874 5.80746L5.6361 10.0501L1.39346 14.2927L7.05046 19.9497L11.2931 15.7071ZM5.6361 10.0501L9.80437 5.73437C10.2819 6.1956 10.6628 6.74732 10.9249 7.35735L5.412 9.7255L-0.100882 12.0937C0.265983 12.9477 0.799261 13.7201 1.46783 14.3658L5.6361 10.0501ZM5.412 9.7255L10.9249 7.35735C11.1869 7.96737 11.3249 8.62347 11.3306 9.28736L5.33085 9.3395L-0.668925 9.39164C-0.660849 10.3211 -0.467745 11.2396 -0.100882 12.0937L5.412 9.7255ZM5.33085 9.3395L11.3306 9.28736C11.3364 9.95127 11.2099 10.6097 10.9585 11.2241L5.40528 8.95215L-0.147923 6.68015C-0.499886 7.54042 -0.677002 8.46217 -0.668925 9.39164L5.33085 9.3395ZM5.40528 8.95215L10.9585 11.2241C10.7071 11.8386 10.3358 12.3969 9.86634 12.8663L5.6237 8.6237L1.38106 4.38106C0.723807 5.03832 0.204039 5.81989 -0.147923 6.68015L5.40528 8.95215ZM5.6237 8.6237L9.86634 12.8663C9.39689 13.3358 8.83863 13.7071 8.22414 13.9585L5.95214 8.40528L3.68015 2.85208C2.81987 3.20404 2.03831 3.72382 1.38106 4.38106L5.6237 8.6237ZM5.95214 8.40528L8.22414 13.9585C7.60965 14.2099 6.95125 14.3364 6.28736 14.3306L6.3395 8.33085L6.39164 2.33107C5.46219 2.323 4.54043 2.50011 3.68015 2.85208L5.95214 8.40528ZM6.3395 8.33085L6.28736 14.3306C5.62346 14.3249 4.96736 14.1869 4.35735 13.9249L6.7255 8.412L9.09366 2.89912C8.23963 2.53226 7.32109 2.33915 6.39164 2.33107L6.3395 8.33085ZM6.7255 8.412L4.35735 13.9249C3.74734 13.6628 3.19561 13.2819 2.73437 12.8044L7.0501 8.6361L11.3658 4.46783C10.7201 3.79925 9.94767 3.26597 9.09366 2.89912L6.7255 8.412ZM7.0501 8.6361L2.80746 12.8787L7.75746 17.8287L12.0001 13.5861L16.2427 9.34346L11.2927 4.39346L7.0501 8.6361ZM12.0001 13.5861L16.2427 17.8287L21.1927 12.8787L16.9501 8.6361L12.7075 4.39346L7.75746 9.34346L12.0001 13.5861ZM16.9501 8.6361L21.1184 12.9518C20.1754 13.8626 18.9124 14.3666 17.6014 14.3552L17.6535 8.35542L17.7056 2.35565C15.8702 2.3397 14.102 3.04527 12.7818 4.32037L16.9501 8.6361ZM17.6535 8.35542L17.6014 14.3552C16.2904 14.3438 15.0363 13.818 14.1093 12.8909L18.3519 8.64828L22.5946 4.40564C21.2967 3.10778 19.541 2.3716 17.7056 2.35565L17.6535 8.35542ZM18.3519 8.64828L14.1093 12.8909C13.1822 11.9639 12.6564 10.7098 12.645 9.39883L18.6448 9.3467L24.6445 9.29456C24.6286 7.45917 23.8924 5.70349 22.5946 4.40564L18.3519 8.64828ZM18.6448 9.3467L12.645 9.39883C12.6336 8.08785 13.1376 6.82484 14.0484 5.88183L18.3641 10.0501L22.6798 14.2184C23.9549 12.8982 24.6605 11.1299 24.6445 9.29456L18.6448 9.3467ZM18.3641 10.0501L14.1215 5.80746L8.46446 11.4645L12.7071 15.7071L16.9497 19.9497L22.6067 14.2927L18.3641 10.0501Z" fill="black" fill-opacity="0.44" mask="url(#path-1-inside-1_2870_14800)"/>
</svg>
