<svg width="24" height="24" viewBox="0 0 24 24" fill="none" xmlns="http://www.w3.org/2000/svg">
<mask id="path-1-inside-1_2870_14808" fill="white">
<path fill-rule="evenodd" clip-rule="evenodd" d="M11.2929 8.2929C11.4804 8.10543 11.7347 8.00011 11.9999 8.00011C12.2651 8.00011 12.5194 8.10543 12.7069 8.2929L18.3639 13.9499C18.4594 14.0421 18.5356 14.1525 18.588 14.2745C18.6404 14.3965 18.668 14.5277 18.6692 14.6605C18.6703 14.7933 18.645 14.925 18.5947 15.0479C18.5444 15.1708 18.4702 15.2824 18.3763 15.3763C18.2824 15.4702 18.1708 15.5444 18.0479 15.5947C17.925 15.645 17.7933 15.6703 17.6605 15.6692C17.5277 15.668 17.3965 15.6404 17.2745 15.588C17.1525 15.5356 17.0421 15.4594 16.9499 15.3639L11.9999 10.4139L7.0499 15.3639C6.8613 15.5461 6.6087 15.6469 6.3465 15.6446C6.0843 15.6423 5.83349 15.5371 5.64808 15.3517C5.46267 15.1663 5.3575 14.9155 5.35523 14.6533C5.35295 14.3911 5.45374 14.1385 5.6359 13.9499L11.2929 8.2929Z"/>
</mask>
<path d="M11.2929 8.2929L7.0509 4.04962L7.05026 4.05026L11.2929 8.2929ZM12.7069 8.2929L16.9495 4.05026L16.9489 4.04962L12.7069 8.2929ZM18.3639 13.9499L14.1213 18.1925L14.1581 18.2294L14.1956 18.2656L18.3639 13.9499ZM16.9499 15.3639L21.2656 11.1956L21.2294 11.1581L21.1925 11.1213L16.9499 15.3639ZM11.9999 10.4139L16.2425 6.17126L11.9999 1.92862L7.75726 6.17126L11.9999 10.4139ZM7.0499 15.3639L11.2182 19.6796L11.2557 19.6434L11.2925 19.6065L7.0499 15.3639ZM5.6359 13.9499L1.39326 9.70726L1.35639 9.74413L1.32017 9.78163L5.6359 13.9499ZM11.2929 8.2929L15.5349 12.5362C14.5973 13.4735 13.3257 14.0001 11.9999 14.0001V8.00011V2.00011C10.1437 2.00011 8.36359 2.73733 7.0509 4.04962L11.2929 8.2929ZM11.9999 8.00011V14.0001C10.6741 14.0001 9.40254 13.4735 8.4649 12.5362L12.7069 8.2929L16.9489 4.04962C15.6362 2.73733 13.8561 2.00011 11.9999 2.00011V8.00011ZM12.7069 8.2929L8.46426 12.5355L14.1213 18.1925L18.3639 13.9499L22.6065 9.70726L16.9495 4.05026L12.7069 8.2929ZM18.3639 13.9499L14.1956 18.2656C13.7181 17.8044 13.3372 17.2527 13.0751 16.6427L18.588 14.2745L24.1009 11.9063C23.734 11.0523 23.2007 10.2799 22.5322 9.63417L18.3639 13.9499ZM18.588 14.2745L13.0751 16.6427C12.8131 16.0326 12.6751 15.3765 12.6694 14.7126L18.6692 14.6605L24.6689 14.6084C24.6608 13.6789 24.4677 12.7604 24.1009 11.9063L18.588 14.2745ZM18.6692 14.6605L12.6694 14.7126C12.6636 14.0487 12.7901 13.3903 13.0415 12.7759L18.5947 15.0479L24.1479 17.3198C24.4999 16.4596 24.677 15.5378 24.6689 14.6084L18.6692 14.6605ZM18.5947 15.0479L13.0415 12.7759C13.2929 12.1614 13.6642 11.6031 14.1337 11.1337L18.3763 15.3763L22.6189 19.6189C23.2762 18.9617 23.796 18.1801 24.1479 17.3198L18.5947 15.0479ZM18.3763 15.3763L14.1337 11.1337C14.6031 10.6642 15.1614 10.2929 15.7759 10.0415L18.0479 15.5947L20.3199 21.1479C21.1801 20.796 21.9617 20.2762 22.6189 19.6189L18.3763 15.3763ZM18.0479 15.5947L15.7759 10.0415C16.3903 9.79011 17.0487 9.66361 17.7126 9.66938L17.6605 15.6692L17.6084 21.6689C18.5378 21.677 19.4596 21.4999 20.3199 21.1479L18.0479 15.5947ZM17.6605 15.6692L17.7126 9.66938C18.3765 9.67515 19.0326 9.81308 19.6427 10.0751L17.2745 15.588L14.9063 21.1009C15.7604 21.4677 16.6789 21.6608 17.6084 21.6689L17.6605 15.6692ZM17.2745 15.588L19.6427 10.0751C20.2527 10.3372 20.8044 10.7181 21.2656 11.1956L16.9499 15.3639L12.6342 19.5322C13.2799 20.2008 14.0523 20.734 14.9063 21.1009L17.2745 15.588ZM16.9499 15.3639L21.1925 11.1213L16.2425 6.17126L11.9999 10.4139L7.75726 14.6565L12.7073 19.6065L16.9499 15.3639ZM11.9999 10.4139L7.75726 6.17126L2.80726 11.1213L7.0499 15.3639L11.2925 19.6065L16.2425 14.6565L11.9999 10.4139ZM7.0499 15.3639L2.88163 11.0482C3.82463 10.1374 5.08764 9.63341 6.39864 9.6448L6.3465 15.6446L6.29436 21.6443C8.12975 21.6603 9.89796 20.9547 11.2182 19.6796L7.0499 15.3639ZM6.3465 15.6446L6.39864 9.6448C7.70962 9.65619 8.96368 10.182 9.89072 11.1091L5.64808 15.3517L1.40544 19.5944C2.7033 20.8922 4.45899 21.6284 6.29436 21.6443L6.3465 15.6446ZM5.64808 15.3517L9.89072 11.1091C10.8178 12.0361 11.3436 13.2902 11.355 14.6012L5.35523 14.6533L-0.644547 14.7054C-0.628597 16.5408 0.107592 18.2965 1.40544 19.5944L5.64808 15.3517ZM5.35523 14.6533L11.355 14.6012C11.3664 15.9121 10.8624 17.1752 9.95163 18.1182L5.6359 13.9499L1.32017 9.78163C0.045063 11.1018 -0.660496 12.8701 -0.644547 14.7054L5.35523 14.6533ZM5.6359 13.9499L9.87854 18.1925L15.5355 12.5355L11.2929 8.2929L7.05026 4.05026L1.39326 9.70726L5.6359 13.9499Z" fill="black" fill-opacity="0.44" mask="url(#path-1-inside-1_2870_14808)"/>
</svg>
