<svg width="40" height="40" viewBox="0 0 40 40" fill="none" xmlns="http://www.w3.org/2000/svg">
<path d="M20 31C13.925 31 9 26.075 9 20C9 13.925 13.925 9 20 9C26.075 9 31 13.925 31 20C31 26.075 26.075 31 20 31ZM14.769 19.866L18.233 17.866L17.233 16.134L13.769 18.134L14.769 19.866ZM26.233 18.134L22.769 16.134L21.769 17.866L25.233 19.866L26.233 18.134ZM17.4 22.499L16.899 21.633L15.168 22.635L15.668 23.501C16.1071 24.2612 16.7387 24.8924 17.4991 25.331C18.2596 25.7697 19.1221 26.0004 20 26C20.8778 26.0002 21.7402 25.7692 22.5005 25.3303C23.2608 24.8915 23.8921 24.2602 24.331 23.5L24.832 22.635L23.101 21.634L22.601 22.499C22.08 23.399 21.11 23.999 20.001 23.999C19.4741 23.9993 18.9563 23.8609 18.4999 23.5976C18.0435 23.3342 17.6645 22.9553 17.401 22.499" fill="#E2FD34"/>
<path d="M20 35C22.9667 35 25.8668 34.1203 28.3336 32.4721C30.8003 30.8238 32.7229 28.4811 33.8582 25.7403C34.9935 22.9994 35.2906 19.9834 34.7118 17.0737C34.133 14.1639 32.7044 11.4912 30.6066 9.3934C28.5088 7.29562 25.8361 5.86701 22.9264 5.28823C20.0166 4.70945 17.0006 5.0065 14.2597 6.14181C11.5189 7.27713 9.17618 9.19972 7.52796 11.6665C5.87973 14.1332 5 17.0333 5 20C5 22.4 5.56333 24.6667 6.56667 26.6783C7.32167 28.1967 6.27167 30.245 5.87167 31.74C5.78305 32.0707 5.78303 32.4188 5.87162 32.7495C5.96021 33.0801 6.13428 33.3816 6.37633 33.6237C6.61839 33.8657 6.9199 34.0398 7.25055 34.1284C7.5812 34.217 7.92935 34.217 8.26 34.1283C9.755 33.7283 11.8033 32.6783 13.3217 33.435C15.397 34.4655 17.6829 35.0012 20 35Z" stroke="#E2FD34" stroke-width="1.5" stroke-linecap="round" stroke-linejoin="round"/>
</svg>
