<svg width="333" height="76" viewBox="0 0 333 76" fill="none" xmlns="http://www.w3.org/2000/svg">
<path d="M6.97496 25.965C6.89496 25.885 7.00496 34.515 7.00496 34.515C7.00496 34.515 9.98496 31.785 9.85496 31.665C9.72496 31.535 9.85496 23.085 9.85496 23.085L6.97496 25.965Z" fill="#E5E5E5" stroke="#231815" stroke-width="0.25" stroke-miterlimit="10"/>
<path d="M17.235 12.525V8.89502L9.85498 16.275V19.825L17.235 12.535V12.525Z" fill="#E5E5E5" stroke="#231815" stroke-width="0.25" stroke-miterlimit="10"/>
<path d="M272.925 45.9448H270.685V54.6948H272.925V45.9448Z" fill="#E5E5E5" stroke="#231815" stroke-width="0.25" stroke-miterlimit="10"/>
<path d="M275.805 45.9448H273.565V54.6948H275.805V45.9448Z" fill="#E5E5E5" stroke="#231815" stroke-width="0.25" stroke-miterlimit="10"/>
<path d="M278.685 45.9448H276.445V54.6948H278.685V45.9448Z" fill="#E5E5E5" stroke="#231815" stroke-width="0.25" stroke-miterlimit="10"/>
<path d="M281.565 45.9448H279.325V54.6948H281.565V45.9448Z" fill="#E5E5E5" stroke="#231815" stroke-width="0.25" stroke-miterlimit="10"/>
<path d="M284.445 45.9448H282.205V54.6948H284.445V45.9448Z" fill="#E5E5E5" stroke="#231815" stroke-width="0.25" stroke-miterlimit="10"/>
<path d="M287.325 45.9448H285.085V54.6948H287.325V45.9448Z" fill="#E5E5E5" stroke="#231815" stroke-width="0.25" stroke-miterlimit="10"/>
<path d="M290.205 45.9448H287.965V54.6948H290.205V45.9448Z" fill="#E5E5E5" stroke="#231815" stroke-width="0.25" stroke-miterlimit="10"/>
<path d="M293.075 45.9448H290.835V54.6948H293.075V45.9448Z" fill="#E5E5E5" stroke="#231815" stroke-width="0.25" stroke-miterlimit="10"/>
<path d="M295.955 45.9448H293.715V54.6948H295.955V45.9448Z" fill="#E5E5E5" stroke="#231815" stroke-width="0.25" stroke-miterlimit="10"/>
<path d="M298.835 45.9448H296.595V54.6948H298.835V45.9448Z" fill="#E5E5E5" stroke="#231815" stroke-width="0.25" stroke-miterlimit="10"/>
<path d="M317.239 8.80153L315.196 10.8447L321.382 17.033L323.426 14.9898L317.239 8.80153Z" fill="#E5E5E5" stroke="#231815" stroke-width="0.25" stroke-miterlimit="10"/>
<path d="M319.785 58.8449L324.695 63.7549L326.745 61.7049L321.815 56.7749C321.815 56.7749 319.765 58.8349 319.785 58.8549V58.8449Z" fill="#E5E5E5" stroke="#231815" stroke-width="0.25" stroke-miterlimit="10"/>
<path d="M316.295 0.125H16.145L0.125 16.155V60.805L14.205 74.885C14.555 75.235 14.685 75.235 41.125 75.265H41.535L45.705 71.095H317.355L323.425 65.035L322.715 64.325L317.705 59.315L307.925 69.095H44.875L40.705 73.265C31.295 73.255 17.725 73.225 15.345 73.195L2.125 59.975V16.975L13.575 5.525H23.835L27.225 2.135H30.565C29.275 3.405 27.165 5.485 27.165 5.525H31.325H32.035C32.035 5.525 34.135 3.405 35.435 2.135H37.735L34.355 5.525H36.105H40.255L43.645 2.135H315.465L330.195 16.865V37.015L327.385 39.825V46.735C327.385 46.735 328.745 48.295 329.785 49.355C328.525 50.615 326.285 52.865 326.155 52.985L329.395 56.235L329.855 56.695L330.425 57.255L330.535 57.365L330.815 57.635L332.195 56.255V16.035L316.295 0.135V0.125Z" fill="#E5E5E5" stroke="#231815" stroke-width="0.25" stroke-miterlimit="10"/>
<path d="M328.335 57.2949V57.2749L324.825 53.7749C324.825 53.7749 322.795 55.8149 322.795 55.8449L327.705 60.7549L329.755 58.7149L328.345 57.2949H328.335Z" fill="#E5E5E5" stroke="#231815" stroke-width="0.25" stroke-miterlimit="10"/>
</svg>
