<svg width="24" height="24" viewBox="0 0 24 24" fill="none" xmlns="http://www.w3.org/2000/svg">
<path d="M13.2982 3.14844L21.9322 18.1024C22.0638 18.3305 22.1332 18.5891 22.1332 18.8524C22.1332 19.1157 22.0639 19.3744 21.9322 19.6024C21.8006 19.8304 21.6112 20.0198 21.3832 20.1515C21.1552 20.2831 20.8965 20.3524 20.6332 20.3524H3.3652C3.10189 20.3524 2.84323 20.2831 2.61521 20.1515C2.38719 20.0198 2.19783 19.8304 2.06619 19.6024C1.93454 19.3744 1.86523 19.1157 1.86523 18.8524C1.86524 18.5891 1.93455 18.3305 2.0662 18.1024L10.7002 3.14844C11.2772 2.14844 12.7202 2.14844 13.2982 3.14844ZM11.9992 4.89844L4.2312 18.3524H19.7672L11.9992 4.89844ZM11.9992 15.0004C12.2644 15.0004 12.5188 15.1058 12.7063 15.2933C12.8938 15.4809 12.9992 15.7352 12.9992 16.0004C12.9992 16.2657 12.8938 16.52 12.7063 16.7075C12.5188 16.8951 12.2644 17.0004 11.9992 17.0004C11.734 17.0004 11.4796 16.8951 11.2921 16.7075C11.1046 16.52 10.9992 16.2657 10.9992 16.0004C10.9992 15.7352 11.1046 15.4809 11.2921 15.2933C11.4796 15.1058 11.734 15.0004 11.9992 15.0004ZM11.9992 8.00044C12.2644 8.00044 12.5188 8.10579 12.7063 8.29333C12.8938 8.48087 12.9992 8.73522 12.9992 9.00044V13.0004C12.9992 13.2657 12.8938 13.52 12.7063 13.7075C12.5188 13.8951 12.2644 14.0004 11.9992 14.0004C11.734 14.0004 11.4796 13.8951 11.2921 13.7075C11.1046 13.52 10.9992 13.2657 10.9992 13.0004V9.00044C10.9992 8.73522 11.1046 8.48087 11.2921 8.29333C11.4796 8.10579 11.734 8.00044 11.9992 8.00044Z" fill="black"/>
</svg>
