<svg width="24" height="24" viewBox="0 0 24 24" fill="none" xmlns="http://www.w3.org/2000/svg">
<path fill-rule="evenodd" clip-rule="evenodd" d="M11.298 2.19518C11.6926 2.04753 12.1238 2.02828 12.53 2.14018L12.702 2.19518L19.702 4.82018C20.0569 4.95327 20.3667 5.18448 20.5953 5.48688C20.8239 5.78928 20.9618 6.1504 20.993 6.52818L21 6.69318V12.0562C21 13.6766 20.5624 15.267 19.7336 16.6594C18.9048 18.0518 17.7154 19.1946 16.291 19.9672L16.025 20.1062L12.671 21.7832C12.4863 21.8754 12.2846 21.9285 12.0785 21.9392C11.8723 21.9498 11.6662 21.9178 11.473 21.8452L11.329 21.7832L7.975 20.1062C6.52561 19.3815 5.29878 18.2789 4.424 16.9148C3.54923 15.5507 3.05898 13.9758 3.005 12.3562L3 12.0562V6.69318C3.00001 6.31431 3.10763 5.94323 3.31033 5.62315C3.51304 5.30307 3.8025 5.04715 4.145 4.88518L4.298 4.82018L11.298 2.19518ZM15.433 8.62918L10.835 13.2272L9.067 11.4592C8.87936 11.2717 8.62492 11.1664 8.35965 11.1665C8.09438 11.1666 7.84001 11.272 7.6525 11.4597C7.46499 11.6473 7.3597 11.9018 7.3598 12.167C7.35989 12.4323 7.46536 12.6867 7.653 12.8742L10.057 15.2782C10.1592 15.3804 10.2804 15.4614 10.4139 15.5168C10.5474 15.5721 10.6905 15.6005 10.835 15.6005C10.9795 15.6005 11.1226 15.5721 11.2561 15.5168C11.3896 15.4614 11.5108 15.3804 11.613 15.2782L16.847 10.0432C16.9425 9.95093 17.0187 9.84059 17.0711 9.71858C17.1235 9.59658 17.1511 9.46536 17.1523 9.33258C17.1534 9.1998 17.1281 9.06812 17.0778 8.94523C17.0275 8.82233 16.9533 8.71068 16.8594 8.61678C16.7655 8.52289 16.6539 8.44864 16.531 8.39836C16.4081 8.34808 16.2764 8.32277 16.1436 8.32393C16.0108 8.32508 15.8796 8.35267 15.7576 8.40508C15.6356 8.45749 15.5252 8.53367 15.433 8.62918Z" fill="black"/>
</svg>
