<svg width="24" height="24" viewBox="0 0 24 24" fill="none" xmlns="http://www.w3.org/2000/svg">
<path d="M17 12C17 13.7 15.7 15 14 15C12.3 15 11 13.7 11 12C11 10.3 12.3 9 14 9C15.7 9 17 10.3 17 12ZM22 7V18C22 19.1 21.1 20 20 20H4C2.9 20 2 19.1 2 18V7C2 5.9 2.9 5 4 5V4H8V5H10L11 3H17L18 5H20C21.1 5 22 5.9 22 7ZM7.5 9C7.5 8.2 6.8 7.5 6 7.5C5.2 7.5 4.5 8.2 4.5 9C4.5 9.8 5.2 10.5 6 10.5C6.8 10.5 7.5 9.8 7.5 9ZM19 12C19 9.2 16.8 7 14 7C11.2 7 9 9.2 9 12C9 14.8 11.2 17 14 17C16.8 17 19 14.8 19 12Z" fill="black"/>
</svg>
