<svg width="345" height="174" viewBox="0 0 345 174" fill="none" xmlns="http://www.w3.org/2000/svg">
<path d="M311 9.5C321.217 9.5 329.5 17.7827 329.5 28V124C329.5 134.217 321.217 142.5 311 142.5H278.688C277.856 144.124 275.557 148.58 273.407 152.74C272.264 154.952 271.164 157.081 270.35 158.656C269.942 159.444 269.607 160.094 269.373 160.547C269.256 160.773 269.164 160.95 269.102 161.07C269.07 161.131 269.046 161.177 269.03 161.208C269.022 161.223 269.017 161.235 269.013 161.243C269.011 161.247 269.009 161.25 269.008 161.252H269.007C267.336 164.523 262.663 164.524 260.992 161.253L260.98 161.228L252.675 142.5H34C23.7827 142.5 15.5 134.217 15.5 124V28C15.5 17.7827 23.7827 9.5 34 9.5H311Z" fill="white" fill-opacity="0.78" stroke="#1F2B45"/>
</svg>
