<svg width="24" height="24" viewBox="0 0 24 24" fill="none" xmlns="http://www.w3.org/2000/svg">
<path d="M13.2535 5.97905L12.0005 13.4991L10.7475 5.97905C10.7174 5.79722 10.7273 5.61102 10.7764 5.43339C10.8256 5.25576 10.9128 5.09095 11.032 4.95041C11.1512 4.80986 11.2996 4.69695 11.4668 4.61951C11.6341 4.54207 11.8162 4.50195 12.0005 4.50195C12.1848 4.50195 12.3669 4.54207 12.5341 4.61951C12.7013 4.69695 12.8497 4.80986 12.969 4.95041C13.0882 5.09095 13.1754 5.25576 13.2245 5.43339C13.2736 5.61102 13.2835 5.79722 13.2535 5.97905Z" stroke="black" stroke-width="3" stroke-linecap="round" stroke-linejoin="round"/>
<path d="M12 20C12.5523 20 13 19.5523 13 19C13 18.4477 12.5523 18 12 18C11.4477 18 11 18.4477 11 19C11 19.5523 11.4477 20 12 20Z" stroke="black" stroke-width="2"/>
</svg>
