<svg width="315" height="156" viewBox="0 0 315 156" fill="none" xmlns="http://www.w3.org/2000/svg">
<path d="M296 0.5C306.217 0.5 314.5 8.78273 314.5 19V115C314.5 125.217 306.217 133.5 296 133.5H263.688C262.856 135.124 260.557 139.58 258.407 143.74C257.264 145.952 256.164 148.081 255.35 149.656C254.942 150.444 254.607 151.094 254.373 151.547C254.256 151.773 254.164 151.95 254.102 152.07C254.07 152.131 254.046 152.177 254.03 152.208C254.022 152.223 254.017 152.235 254.013 152.243C254.011 152.247 254.009 152.25 254.008 152.252H254.007C252.336 155.523 247.663 155.524 245.992 152.253L245.98 152.228L237.675 133.5H19C8.78273 133.5 0.5 125.217 0.5 115V19C0.5 8.78273 8.78273 0.5 19 0.5H296Z" fill="white" fill-opacity="0.78" stroke="#1F2B45"/>
</svg>
