<svg width="16" height="16" viewBox="0 0 16 16" fill="none" xmlns="http://www.w3.org/2000/svg">
<path d="M6.11663 7.21663C5.5944 6.6944 5.33329 6.06663 5.33329 5.33329C5.33329 4.59996 5.5944 3.97218 6.11663 3.44996C6.63885 2.92774 7.26663 2.66663 7.99996 2.66663C8.73329 2.66663 9.36107 2.92774 9.88329 3.44996C10.4055 3.97218 10.6666 4.59996 10.6666 5.33329C10.6666 6.06663 10.4055 6.6944 9.88329 7.21663C9.36107 7.73885 8.73329 7.99996 7.99996 7.99996C7.26663 7.99996 6.63885 7.73885 6.11663 7.21663ZM2.66663 13.3333V11.4666C2.66663 11.0888 2.76396 10.7417 2.95863 10.4253C3.15329 10.1088 3.41151 9.86707 3.73329 9.69996C4.42218 9.35552 5.12218 9.09729 5.83329 8.92529C6.5444 8.75329 7.26663 8.66707 7.99996 8.66663C8.73329 8.66618 9.45551 8.7524 10.1666 8.92529C10.8777 9.09818 11.5777 9.3564 12.2666 9.69996C12.5888 9.86663 12.8473 10.1084 13.042 10.4253C13.2366 10.7422 13.3337 11.0893 13.3333 11.4666V13.3333H2.66663Z" fill="#636363"/>
</svg>
