<svg width="18" height="18" viewBox="0 0 18 18" fill="none" xmlns="http://www.w3.org/2000/svg">
<g clip-path="url(#clip0_1159_2244)">
<path d="M10.1846 3.00601C10.1437 2.94874 10.1217 2.8801 10.1217 2.80969C10.1217 2.73929 10.1437 2.67065 10.1846 2.61338C10.225 2.55563 10.2824 2.51196 10.3489 2.48851L10.5424 2.42663H10.5446L11.214 2.20951C11.4729 2.1209 11.7076 1.97335 11.8997 1.77851C12.0918 1.58367 12.2361 1.34686 12.321 1.08676L12.6011 0.226131C12.6243 0.159727 12.6677 0.102236 12.7252 0.0616929C12.7827 0.0211503 12.8514 -0.000416858 12.9218 6.10418e-06H12.9386C13.0061 0.00299816 13.0711 0.0261444 13.1252 0.0664542C13.1793 0.106764 13.2202 0.162385 13.2424 0.226131L13.5225 1.08676C13.6099 1.34824 13.757 1.58581 13.952 1.78067C14.1471 1.97553 14.3848 2.12235 14.6464 2.20951L15.507 2.48963L15.5239 2.49413C15.5914 2.51738 15.6461 2.55826 15.6881 2.61676C15.7293 2.67413 15.7515 2.74299 15.7515 2.81363C15.7515 2.88427 15.7293 2.95313 15.6881 3.01051C15.6476 3.06784 15.5902 3.1111 15.5239 3.13426L14.6633 3.41438C14.4013 3.50076 14.1631 3.6473 13.968 3.84227C13.7728 4.03724 13.626 4.27522 13.5394 4.53713L13.2593 5.39776C13.2358 5.4642 13.1921 5.52163 13.1344 5.56201C13.0782 5.6022 13.0111 5.62418 12.942 5.62501H12.9375C12.8668 5.62558 12.7978 5.60396 12.74 5.56319C12.6823 5.52242 12.6388 5.46455 12.6157 5.39776L12.3356 4.53713L12.303 4.44601C12.2149 4.2184 12.08 4.01182 11.907 3.83963C11.7351 3.66842 11.5304 3.53372 11.3051 3.44363L11.2117 3.40988L10.3489 3.12976C10.2826 3.1066 10.2252 3.06334 10.1846 3.00601ZM16.6219 9.80888C16.7794 10.0654 16.875 10.3646 16.875 10.6875V14.0625C16.875 14.9929 16.1179 15.75 15.1875 15.75H14.625V17.4375C14.6252 17.5489 14.5923 17.6579 14.5305 17.7505C14.4687 17.8432 14.3808 17.9155 14.2779 17.9581C14.175 18.0008 14.0617 18.0119 13.9525 17.9902C13.8432 17.9684 13.7429 17.9146 13.6642 17.8358L11.5785 15.75H9.56137C8.631 15.75 7.87388 14.9929 7.87388 14.0625V10.6875C7.87388 9.75713 8.631 9.00001 9.56137 9.00001H14.3651L14.4259 9.18563C14.5203 9.45974 14.6979 9.69761 14.9337 9.86616C15.1696 10.0347 15.4522 10.1256 15.7421 10.1261H15.75C16.0436 10.1261 16.3249 10.0361 16.5623 9.86738C16.5848 9.85163 16.5994 9.82688 16.6208 9.81001L16.6219 9.80888ZM15.75 10.6875C15.75 10.5383 15.6907 10.3952 15.5852 10.2898C15.4798 10.1843 15.3367 10.125 15.1875 10.125H9.5625C9.41332 10.125 9.27024 10.1843 9.16475 10.2898C9.05926 10.3952 9 10.5383 9 10.6875V14.0625C9 14.2117 9.05926 14.3548 9.16475 14.4603C9.27024 14.5657 9.41332 14.625 9.5625 14.625H11.8125C11.9621 14.625 12.105 14.6846 12.2108 14.7893L13.5 16.0785V15.1864C13.5 15.0372 13.5593 14.8941 13.6648 14.7886C13.7702 14.6831 13.9133 14.6239 14.0625 14.6239H15.1875C15.3367 14.6239 15.4798 14.5646 15.5852 14.4591C15.6907 14.3536 15.75 14.2106 15.75 14.0614V10.6875ZM3.375 10.125H2.25C1.63013 10.125 1.125 9.62101 1.125 9.00001V4.50001C1.125 3.87901 1.63013 3.37501 2.25 3.37501H9.126C9.04565 3.19727 9.00166 3.00525 8.99663 2.81026C8.99663 2.61451 9.04837 2.42776 9.12375 2.25001H2.25C1.00912 2.25001 0 3.25913 0 4.50001V9.00001C0 10.2409 1.00912 11.25 2.25 11.25V13.5C2.25 14.121 2.75513 14.625 3.375 14.625C3.59775 14.625 3.81262 14.5598 4.0635 14.3854L6.75 11.9543V10.6864C6.75 10.593 6.76913 10.5041 6.77813 10.413L3.375 13.4989V10.125ZM17.9505 6.59476C17.9175 6.54936 17.8716 6.51488 17.8189 6.49576L17.8054 6.49238L17.1169 6.26851V6.27076C16.9074 6.20124 16.7171 6.08378 16.561 5.92773C16.405 5.77168 16.2875 5.58134 16.218 5.37188L15.9941 4.68338C15.9756 4.63022 15.9409 4.58417 15.8949 4.5517C15.8489 4.51922 15.7939 4.50193 15.7376 4.50226C15.6813 4.50193 15.6263 4.51922 15.5803 4.5517C15.5343 4.58417 15.4997 4.63022 15.4811 4.68338L15.2573 5.37188C15.1882 5.57928 15.0724 5.76807 14.919 5.92371C14.7655 6.07935 14.5783 6.19769 14.3719 6.26963L13.6834 6.49351C13.6299 6.51129 13.5837 6.54605 13.5517 6.59251C13.5274 6.62687 13.5114 6.66641 13.505 6.70801C13.4985 6.74961 13.5018 6.79214 13.5145 6.83226C13.5273 6.87239 13.5492 6.909 13.5785 6.93924C13.6078 6.96947 13.6437 6.9925 13.6834 7.00651L14.3393 7.21913V7.22251L14.3663 7.23151C14.576 7.30098 14.7667 7.41855 14.9229 7.57481C15.0792 7.73108 15.1968 7.92172 15.2662 8.13151L15.4913 8.82001C15.5095 8.87245 15.5435 8.91798 15.5886 8.95039C15.6337 8.98281 15.6877 9.00052 15.7433 9.00113H15.7511C15.8074 9.00146 15.8624 8.98417 15.9084 8.95169C15.9544 8.91921 15.9891 8.87317 16.0076 8.82001L16.2315 8.13151C16.301 7.92205 16.4185 7.73171 16.5745 7.57566C16.7306 7.4196 16.9209 7.30214 17.1304 7.23263L17.8189 7.00876C17.8724 6.99097 17.9186 6.95621 17.9505 6.90976C17.9835 6.86386 18.0012 6.80877 18.0012 6.75226C18.0012 6.69574 17.9835 6.64066 17.9505 6.59476Z" fill="#676B5D"/>
</g>
<defs>
<clipPath id="clip0_1159_2244">
<rect width="18" height="18" fill="white"/>
</clipPath>
</defs>
</svg>
