<svg width="17" height="17" viewBox="0 0 17 17" fill="none" xmlns="http://www.w3.org/2000/svg">
<path d="M11.4229 0.500977C11.4713 0.505745 11.5413 0.525621 11.6836 0.636719C11.8368 0.756399 12.0195 0.938458 12.3057 1.22461L14.9883 3.90625C15.2747 4.19267 15.4565 4.37601 15.5762 4.5293C15.6872 4.67154 15.7062 4.74159 15.7109 4.79004C15.7157 4.83888 15.7106 4.9114 15.6299 5.07227C15.5427 5.24599 15.4 5.46129 15.1758 5.79785L13.5254 8.27148C12.9713 9.10407 12.669 9.55542 12.4277 10.04C12.2954 10.3055 12.1771 10.5777 12.0732 10.8555L11.9746 11.1348C11.8884 11.3917 11.8187 11.6534 11.7461 11.9736L11.5 13.1631L11.3164 14.084L11.3145 14.0928L11.3086 14.1221C11.2922 14.2031 11.256 14.2792 11.2031 14.3428C11.1503 14.4063 11.0824 14.4554 11.0059 14.4863C10.9292 14.5173 10.8458 14.5295 10.7637 14.5205C10.6842 14.5117 10.6085 14.4828 10.542 14.4385L10.5244 14.4268L10.5049 14.4141C7.30886 12.1993 4.51168 9.46079 2.23047 6.31641L1.78125 5.68262L1.77734 5.67773L1.74609 5.62402C1.71773 5.56939 1.69914 5.50979 1.69238 5.44824C1.68343 5.36634 1.6948 5.28345 1.72559 5.20703C1.75654 5.13041 1.80657 5.06259 1.87012 5.00977C1.9336 4.957 2.00896 4.92075 2.08984 4.9043L2.08887 4.90332H2.09473L3.0498 4.71191C4.03037 4.51541 4.56346 4.40958 5.07715 4.2373C5.35828 4.14312 5.63466 4.03507 5.9043 3.91211L6.17188 3.78418C6.65639 3.54296 7.10844 3.24086 7.94141 2.68555L10.4141 1.03809C10.751 0.813139 10.9667 0.669497 11.1406 0.582031C11.2615 0.521268 11.3322 0.504154 11.3799 0.500977H11.4229Z" stroke="black"/>
<path d="M0.5 15.7119L5 11.2119" stroke="black" stroke-linecap="round"/>
</svg>
