<svg width="16" height="16" viewBox="0 0 16 16" fill="none" xmlns="http://www.w3.org/2000/svg">
<path d="M1.3963 7.39035C1.38831 7.2983 1.39953 7.20559 1.42927 7.11812C1.45901 7.03064 1.5066 6.95029 1.56904 6.88219C1.63147 6.81408 1.70738 6.75969 1.79195 6.72248C1.87652 6.68527 1.9679 6.66604 2.0603 6.66601H3.3333C3.51011 6.66601 3.67968 6.73625 3.8047 6.86128C3.92973 6.9863 3.99996 7.15587 3.99996 7.33268V13.666C3.99996 13.8428 3.92973 14.0124 3.8047 14.1374C3.67968 14.2624 3.51011 14.3327 3.3333 14.3327H2.6113C2.44444 14.3327 2.28363 14.2702 2.16064 14.1574C2.03764 14.0447 1.9614 13.8899 1.94696 13.7237L1.3963 7.39035ZM5.99996 7.12435C5.99996 6.84568 6.1733 6.59635 6.42496 6.47768C6.97463 6.21835 7.91096 5.69735 8.3333 4.99301C8.87763 4.08501 8.9803 2.44468 8.99696 2.06901C8.9993 2.01635 8.99796 1.96368 9.00496 1.91168C9.0953 1.26068 10.3516 2.02101 10.8333 2.82501C11.095 3.26101 11.1283 3.83401 11.101 4.28168C11.0713 4.76035 10.931 5.22268 10.7933 5.68201L10.5 6.66101H14.119C14.222 6.66101 14.3236 6.68487 14.4158 6.73072C14.508 6.77658 14.5884 6.84318 14.6506 6.92531C14.7127 7.00744 14.755 7.10285 14.7741 7.20407C14.7932 7.30528 14.7886 7.40955 14.7606 7.50868L12.9706 13.8473C12.9311 13.9871 12.847 14.1102 12.7311 14.1978C12.6152 14.2854 12.4739 14.3328 12.3286 14.3327H6.66663C6.48982 14.3327 6.32025 14.2624 6.19523 14.1374C6.0702 14.0124 5.99996 13.8428 5.99996 13.666V7.12435Z" fill="#ADADAD"/>
</svg>
