<svg width="44" height="44" viewBox="0 0 44 44" fill="none" xmlns="http://www.w3.org/2000/svg">
<path d="M21.9999 13.4438C21.9999 10.0833 19.2499 7.33331 15.8894 7.33331H3.66663V29.3333H15.9646C21.9999 29.3333 21.9999 35.4456 21.9999 35.4456M21.9999 13.4438C21.9999 10.0815 24.7499 7.33331 28.1104 7.33331H40.3333V29.3333H28.1104C21.9999 29.3333 21.9999 35.4456 21.9999 35.4456M21.9999 13.4438V35.4456M25.4374 37.5063C25.82 36.7141 26.4159 36.0442 27.1582 35.572C27.9005 35.0998 28.7597 34.844 29.6394 34.8333H38.4999M18.5624 37.5063C18.1869 36.7087 17.5927 36.0341 16.8488 35.5609C16.1049 35.0877 15.2421 34.8354 14.3605 34.8333H5.49996" stroke="black" stroke-width="1.5" stroke-miterlimit="10" stroke-linecap="round" stroke-linejoin="round"/>
</svg>
