<svg width="16" height="16" viewBox="0 0 16 16" fill="none" xmlns="http://www.w3.org/2000/svg">
<path fill-rule="evenodd" clip-rule="evenodd" d="M7.99996 11.8667C10.6893 11.8667 13.124 10.3667 14.432 8.00004C13.124 5.63337 10.6893 4.13337 7.99996 4.13337C5.31063 4.13337 2.87596 5.63337 1.56796 8.00004C2.87596 10.3667 5.31063 11.8667 7.99996 11.8667ZM7.99996 3.33337C11.2053 3.33337 13.9813 5.23204 15.3333 8.00004C13.9813 10.768 11.2053 12.6667 7.99996 12.6667C4.79463 12.6667 2.01863 10.768 0.666626 8.00004C2.01863 5.23204 4.79463 3.33337 7.99996 3.33337ZM7.99996 9.86671C8.49503 9.86671 8.96982 9.67004 9.31989 9.31997C9.66996 8.96991 9.86663 8.49511 9.86663 8.00004C9.86663 7.50497 9.66996 7.03018 9.31989 6.68011C8.96982 6.33004 8.49503 6.13337 7.99996 6.13337C7.50489 6.13337 7.03009 6.33004 6.68003 6.68011C6.32996 7.03018 6.13329 7.50497 6.13329 8.00004C6.13329 8.49511 6.32996 8.96991 6.68003 9.31997C7.03009 9.67004 7.50489 9.86671 7.99996 9.86671ZM7.99996 10.6667C7.29272 10.6667 6.61444 10.3858 6.11434 9.88566C5.61424 9.38556 5.33329 8.70728 5.33329 8.00004C5.33329 7.2928 5.61424 6.61452 6.11434 6.11442C6.61444 5.61433 7.29272 5.33337 7.99996 5.33337C8.7072 5.33337 9.38548 5.61433 9.88558 6.11442C10.3857 6.61452 10.6666 7.2928 10.6666 8.00004C10.6666 8.70728 10.3857 9.38556 9.88558 9.88566C9.38548 10.3858 8.7072 10.6667 7.99996 10.6667Z" fill="black" fill-opacity="0.44"/>
</svg>
