<svg width="29" height="31" viewBox="0 0 29 31" fill="none" xmlns="http://www.w3.org/2000/svg">
<path d="M23.3636 6.24768C23.1585 6.04353 22.9012 5.90001 22.6201 5.8329C22.3389 5.76578 22.0447 5.77768 21.7698 5.86727L5.90801 11.1713C5.61383 11.2647 5.35388 11.4435 5.16098 11.685C4.96808 11.9264 4.85089 12.2198 4.82421 12.528C4.79752 12.8362 4.86255 13.1454 5.01106 13.4166C5.15958 13.6877 5.38493 13.9087 5.65864 14.0516L12.2397 17.3122L15.4923 23.9314C15.6231 24.1905 15.8231 24.408 16.0701 24.5596C16.3171 24.7113 16.6013 24.791 16.8909 24.79H16.9994C17.3095 24.7671 17.6057 24.6512 17.8493 24.4574C18.0929 24.2636 18.2728 24.0008 18.3655 23.7031L23.7322 7.84541C23.8281 7.57144 23.8443 7.27582 23.779 6.99296C23.7138 6.7101 23.5697 6.45164 23.3636 6.24768ZM6.58021 12.6712L20.4254 8.04105L12.7385 15.7471L6.58021 12.6712ZM16.9668 23.0727L13.8877 16.8992L21.5747 9.19315L16.9668 23.0727Z" fill="#E9E9E9"/>
</svg>
