<svg width="16" height="16" viewBox="0 0 16 16" fill="none" xmlns="http://www.w3.org/2000/svg">
<path d="M8 1L2 3V9C2 12.3141 4.68594 15 8 15C11.3141 15 14 12.3141 14 9V3L8 1ZM12.875 9C12.875 11.6922 10.6922 13.875 8 13.875C5.30781 13.875 3.125 11.6922 3.125 9V3.84375L8 2.125L12.875 3.84375V9Z" fill="white"/>
<path d="M5.91246 7.42344C5.86033 7.37106 5.79836 7.32951 5.73012 7.30115C5.66188 7.27279 5.58871 7.25819 5.51481 7.25819C5.44091 7.25819 5.36774 7.27279 5.29949 7.30115C5.23125 7.32951 5.16929 7.37106 5.11715 7.42344C5.06478 7.47557 5.02322 7.53754 4.99486 7.60578C4.9665 7.67402 4.9519 7.7472 4.9519 7.82109C4.9519 7.89499 4.9665 7.96816 4.99486 8.03641C5.02322 8.10465 5.06478 8.16662 5.11715 8.21875L7.13902 10.2406L7.17184 10.2734C7.22115 10.3228 7.27973 10.362 7.34421 10.3888C7.40869 10.4155 7.47781 10.4293 7.54762 10.4293C7.61743 10.4293 7.68655 10.4155 7.75103 10.3888C7.81551 10.362 7.87408 10.3228 7.9234 10.2734L11.4156 6.78125C11.465 6.73194 11.5042 6.67336 11.5309 6.60888C11.5577 6.5444 11.5714 6.47528 11.5714 6.40547C11.5714 6.33566 11.5577 6.26654 11.5309 6.20206C11.5042 6.13758 11.465 6.079 11.4156 6.02969L11.3718 5.98594C11.3225 5.93653 11.2639 5.89733 11.1995 5.87059C11.135 5.84384 11.0659 5.83008 10.9961 5.83008C10.9262 5.83008 10.8571 5.84384 10.7926 5.87059C10.7282 5.89733 10.6696 5.93653 10.6203 5.98594L7.54684 9.05781L5.91246 7.42344Z" fill="white"/>
</svg>
