<svg width="50" height="50" viewBox="0 0 50 50" fill="none" xmlns="http://www.w3.org/2000/svg">
<path d="M43.7504 19.25C45.7657 19.2502 47.4164 20.9016 47.4164 22.917V33.333C47.4164 35.3484 45.7657 36.9998 43.7504 37H37.2933L31.7504 42.543V37H27.0834C25.0679 37 23.4164 35.3485 23.4164 33.333V29.6514C28.0456 29.3901 31.7504 25.5248 31.7504 20.833V19.25H43.7504ZM6.25037 6.75H22.9164C24.9319 6.75 26.5834 8.40147 26.5834 10.417V20.833C26.5834 22.8485 24.9319 24.5 22.9164 24.5H18.2504V30.043L12.7074 24.5H6.25037C4.23484 24.5 2.58337 22.8485 2.58337 20.833V10.417C2.58337 8.40147 4.23484 6.75 6.25037 6.75Z" fill="white" stroke="black"/>
</svg>
