<svg width="14" height="12" viewBox="0 0 14 12" fill="none" xmlns="http://www.w3.org/2000/svg">
<path d="M6.66667 0C3 0 0 2.38667 0 5.33333C0.016831 6.04178 0.189884 6.73777 0.506799 7.3716C0.823715 8.00543 1.27668 8.56147 1.83333 9C1.83333 9.4 1.55333 10.4467 0 12C1.58 11.9267 3.09333 11.3333 4.31333 10.3333C5.07333 10.5533 5.87333 10.6667 6.66667 10.6667C10.3333 10.6667 13.3333 8.28 13.3333 5.33333C13.3333 2.38667 10.3333 0 6.66667 0ZM6.66667 9.33333C3.72 9.33333 1.33333 7.54 1.33333 5.33333C1.33333 3.12667 3.72 1.33333 6.66667 1.33333C9.61333 1.33333 12 3.12667 12 5.33333C12 7.54 9.61333 9.33333 6.66667 9.33333Z" fill="black" fill-opacity="0.44"/>
</svg>
