<svg width="32" height="32" viewBox="0 0 32 32" fill="none" xmlns="http://www.w3.org/2000/svg">
<rect width="31.8558" height="31.8558" rx="15.9279" fill="white"/>
<path d="M13.6714 19.3125L19.5269 15.9278L13.6714 12.5432V19.3125ZM26.7137 10.4785C26.8604 11.0088 26.9619 11.7196 27.0296 12.6221C27.1086 13.5247 27.1424 14.3032 27.1424 14.9801L27.2101 15.9278C27.2101 18.3987 27.0296 20.2151 26.7137 21.3772C26.4317 22.3926 25.7773 23.0469 24.7619 23.329C24.2316 23.4757 23.2613 23.5772 21.7721 23.6449C20.3054 23.7239 18.9628 23.7577 17.7218 23.7577L15.9279 23.8254C11.2006 23.8254 8.25595 23.6449 7.09388 23.329C6.07848 23.0469 5.42411 22.3926 5.14205 21.3772C4.99538 20.8469 4.89384 20.1361 4.82615 19.2335C4.74717 18.331 4.71332 17.5525 4.71332 16.8756L4.64563 15.9278C4.64563 13.457 4.82615 11.6406 5.14205 10.4785C5.42411 9.46312 6.07848 8.80875 7.09388 8.52669C7.62414 8.38002 8.59442 8.27848 10.0837 8.21079C11.5504 8.13181 12.893 8.09797 14.134 8.09797L15.9279 8.03027C20.6551 8.03027 23.5998 8.21079 24.7619 8.52669C25.7773 8.80875 26.4317 9.46312 26.7137 10.4785Z" fill="#EE2106"/>
</svg>
