<svg width="22" height="22" viewBox="0 0 22 22" fill="none" xmlns="http://www.w3.org/2000/svg">
<path d="M1.83337 10.0832C1.83337 7.05833 1.83337 5.5459 2.77308 4.60621C3.71277 3.6665 5.2252 3.6665 8.25004 3.6665H9.16671C12.1915 3.6665 13.7039 3.6665 14.6437 4.60621C15.5834 5.5459 15.5834 7.05833 15.5834 10.0832V11.9165C15.5834 14.9413 15.5834 16.4537 14.6437 17.3935C13.7039 18.3332 12.1915 18.3332 9.16671 18.3332H8.25004C5.2252 18.3332 3.71277 18.3332 2.77308 17.3935C1.83337 16.4537 1.83337 14.9413 1.83337 11.9165V10.0832Z" stroke="white"/>
<path d="M15.5834 8.16386L15.6988 8.06863C17.6383 6.46838 18.608 5.66824 19.3874 6.05458C20.1667 6.44092 20.1667 7.72175 20.1667 10.2834V11.7169C20.1667 14.2786 20.1667 15.5594 19.3874 15.9458C18.608 16.332 17.6383 15.532 15.6988 13.9317L15.5834 13.8364" stroke="white" stroke-linecap="round"/>
<path d="M10.5416 10.0835C11.301 10.0835 11.9166 9.46789 11.9166 8.7085C11.9166 7.9491 11.301 7.3335 10.5416 7.3335C9.78223 7.3335 9.16663 7.9491 9.16663 8.7085C9.16663 9.46789 9.78223 10.0835 10.5416 10.0835Z" stroke="white"/>
</svg>
