<svg width="27" height="27" viewBox="0 0 27 27" fill="none" xmlns="http://www.w3.org/2000/svg">
<path d="M14.625 24.75H7.41473C5.67618 24.75 4.29335 23.904 3.05174 22.7212C0.510037 20.2996 4.68315 18.3645 6.27477 17.4168C8.4719 16.1085 11.0168 15.5704 13.5 15.8024" stroke="white" stroke-width="1.5" stroke-linecap="round" stroke-linejoin="round"/>
<path d="M17.4375 7.3125C17.4375 10.1084 15.171 12.375 12.375 12.375C9.57906 12.375 7.3125 10.1084 7.3125 7.3125C7.3125 4.51656 9.57906 2.25 12.375 2.25C15.171 2.25 17.4375 4.51656 17.4375 7.3125Z" stroke="white" stroke-width="1.5"/>
<path d="M16.8919 17.3099C18.0986 16.5903 19.1518 16.8803 19.7846 17.3422C20.044 17.5317 20.1737 17.6264 20.25 17.6264C20.3263 17.6264 20.456 17.5317 20.7154 17.3422C21.3482 16.8803 22.4015 16.5903 23.6081 17.3099C25.1919 18.2544 25.5502 21.3703 21.8972 23.999C21.2014 24.4997 20.8536 24.75 20.25 24.75C19.6464 24.75 19.2986 24.4997 18.6028 23.999C14.9498 21.3703 15.3081 18.2544 16.8919 17.3099Z" stroke="white" stroke-width="1.5" stroke-linecap="round"/>
</svg>
