<svg width="32" height="32" viewBox="0 0 32 32" fill="none" xmlns="http://www.w3.org/2000/svg">
<g clip-path="url(#clip0_2240_3322)">
<path d="M24.178 0.398438H7.67773C3.65735 0.398438 0.398193 3.6576 0.398193 7.67798V24.1783C0.398193 28.1986 3.65735 31.4578 7.67773 31.4578H24.178C28.1984 31.4578 31.4576 28.1986 31.4576 24.1783V7.67798C31.4576 3.6576 28.1984 0.398438 24.178 0.398438Z" fill="url(#paint0_radial_2240_3322)"/>
<path d="M15.9845 5.83398C13.2809 5.83398 12.9416 5.846 11.8798 5.89495C10.82 5.94421 10.0966 6.1143 9.46363 6.36393C8.8088 6.62174 8.25341 6.96665 7.70012 7.52789C7.14633 8.08903 6.80617 8.65218 6.55112 9.31588C6.30424 9.95787 6.1363 10.6917 6.08862 11.7658C6.04113 12.8426 6.02869 13.1868 6.02869 15.9283C6.02869 18.6698 6.04063 19.0128 6.08881 20.0894C6.13759 21.164 6.30533 21.8976 6.55132 22.5394C6.80577 23.2034 7.14593 23.7665 7.69942 24.3276C8.25262 24.8891 8.808 25.2348 9.46234 25.4926C10.0958 25.7423 10.8193 25.9123 11.8789 25.9616C12.9408 26.0106 13.2799 26.0226 15.9833 26.0226C18.6872 26.0226 19.0254 26.0106 20.0872 25.9616C21.147 25.9123 21.8713 25.7423 22.5047 25.4926C23.1592 25.2348 23.7138 24.8891 24.2669 24.3276C24.8207 23.7665 25.1608 23.2034 25.4159 22.5397C25.6606 21.8976 25.8286 21.1638 25.8784 20.0896C25.9261 19.013 25.9385 18.6698 25.9385 15.9283C25.9385 13.1868 25.9261 12.8428 25.8784 11.766C25.8286 10.6914 25.6606 9.95797 25.4159 9.31618C25.1608 8.65218 24.8207 8.08903 24.2669 7.52789C23.7132 6.96645 23.1594 6.62153 22.5041 6.36403C21.8695 6.1143 21.1456 5.94411 20.0858 5.89495C19.0239 5.846 18.6859 5.83398 15.9814 5.83398H15.9845ZM15.0915 7.65306C15.3566 7.65266 15.6523 7.65306 15.9845 7.65306C18.6426 7.65306 18.9575 7.66275 20.0072 7.7111C20.9778 7.75612 21.5046 7.92056 21.8555 8.05874C22.3201 8.24165 22.6513 8.46039 22.9995 8.81379C23.348 9.16709 23.5636 9.50353 23.7445 9.97462C23.8808 10.3299 24.0431 10.8641 24.0873 11.8483C24.135 12.9124 24.1454 13.232 24.1454 15.926C24.1454 18.6199 24.135 18.9396 24.0873 20.0036C24.0429 20.9878 23.8808 21.522 23.7445 21.8774C23.5641 22.3485 23.348 22.6839 22.9995 23.037C22.6511 23.3903 22.3203 23.6089 21.8555 23.792C21.505 23.9308 20.9778 24.0948 20.0072 24.1398C18.9577 24.1882 18.6426 24.1987 15.9845 24.1987C13.3263 24.1987 13.0113 24.1882 11.9619 24.1398C10.9913 24.0944 10.4645 23.9299 10.1133 23.7918C9.64879 23.6087 9.3169 23.3901 8.96848 23.0368C8.62005 22.6835 8.40443 22.3479 8.22355 21.8766C8.08727 21.5212 7.9249 20.987 7.8807 20.0028C7.83302 18.9387 7.82346 18.6191 7.82346 15.9234C7.82346 13.2278 7.83302 12.9099 7.8807 11.8458C7.9251 10.8616 8.08727 10.3274 8.22355 9.97159C8.40403 9.5005 8.62005 9.16406 8.96858 8.81076C9.3171 8.45747 9.64879 8.23872 10.1134 8.05541C10.4643 7.91662 10.9913 7.75259 11.9619 7.70737C12.8803 7.66527 13.2362 7.65265 15.0915 7.65054V7.65306ZM21.2984 9.3291C20.6389 9.3291 20.1039 9.87116 20.1039 10.54C20.1039 11.2087 20.6389 11.7513 21.2984 11.7513C21.958 11.7513 22.493 11.2087 22.493 10.54C22.493 9.87126 21.958 9.32869 21.2984 9.32869V9.3291ZM15.9845 10.7444C13.1613 10.7444 10.8723 13.0655 10.8723 15.9283C10.8723 18.7911 13.1613 21.111 15.9845 21.111C18.8078 21.111 21.0961 18.7911 21.0961 15.9283C21.0961 13.0656 18.8076 10.7444 15.9843 10.7444H15.9845ZM15.9845 12.5635C17.8171 12.5635 19.3029 14.0698 19.3029 15.9283C19.3029 17.7865 17.8171 19.2931 15.9845 19.2931C14.1519 19.2931 12.6662 17.7865 12.6662 15.9283C12.6662 14.0698 14.1518 12.5635 15.9845 12.5635Z" fill="white"/>
</g>
<defs>
<radialGradient id="paint0_radial_2240_3322" cx="0" cy="0" r="1" gradientUnits="userSpaceOnUse" gradientTransform="translate(8.64834 33.85) rotate(-90) scale(30.7821 28.6298)">
<stop stop-color="#FFDD55"/>
<stop offset="0.1" stop-color="#FFDD55"/>
<stop offset="0.5" stop-color="#FF543E"/>
<stop offset="1" stop-color="#C837AB"/>
</radialGradient>
<clipPath id="clip0_2240_3322">
<rect x="0.398193" y="0.398438" width="31.0594" height="31.0594" rx="15.5297" fill="white"/>
</clipPath>
</defs>
</svg>
