<svg width="32" height="32" viewBox="0 0 32 32" fill="none" xmlns="http://www.w3.org/2000/svg">
<rect width="31.8558" height="31.8558" rx="15.9279" fill="#1A1A1A"/>
<path d="M20.428 13.0721C21.7764 14.0256 23.4283 14.5867 25.2125 14.5867V11.1905C24.8748 11.1906 24.538 11.1557 24.2077 11.0864V13.7598C22.4237 13.7598 20.772 13.1988 19.4232 12.2453V19.1761C19.4232 22.6433 16.582 25.4537 13.0774 25.4537C11.7698 25.4537 10.5543 25.0627 9.54468 24.3919C10.697 25.5576 12.3041 26.2806 14.0819 26.2806C17.5868 26.2806 20.4281 23.4702 20.4281 20.0028V13.0721H20.428ZM21.6675 9.64567C20.9784 8.9009 20.5259 7.93841 20.428 6.8743V6.4375H19.4758C19.7155 7.78992 20.5331 8.94535 21.6675 9.64567ZM11.7613 21.7314C11.3763 21.232 11.1681 20.6211 11.1691 19.9929C11.1691 18.4072 12.4687 17.1214 14.072 17.1214C14.3708 17.1212 14.6678 17.1666 14.9526 17.256V13.7838C14.6198 13.7387 14.2839 13.7195 13.9482 13.7265V16.4291C13.6633 16.3397 13.3661 16.2944 13.0672 16.2946C11.4639 16.2946 10.1645 17.5802 10.1645 19.1662C10.1645 20.2876 10.814 21.2584 11.7613 21.7314Z" fill="#FF004F"/>
<path d="M19.2481 12.2342C20.6024 13.1859 22.2606 13.7458 24.0519 13.7458V11.0775C23.052 10.8681 22.1669 10.3543 21.5014 9.6396C20.3623 8.94053 19.5415 7.78729 19.3009 6.4375H16.7898V19.977C16.784 21.5554 15.4815 22.8335 13.8751 22.8335C12.9286 22.8335 12.0876 22.3898 11.555 21.7023C10.604 21.2304 9.9518 20.2613 9.9518 19.1421C9.9518 17.5593 11.2565 16.276 12.8663 16.276C13.1747 16.276 13.472 16.3232 13.7509 16.4102V13.7128C10.2939 13.783 7.51367 16.5608 7.51367 19.9771C7.51367 21.6825 8.20598 23.2284 9.32966 24.3581C10.3434 25.0274 11.5637 25.4179 12.8767 25.4179C16.3955 25.4179 19.2482 22.6125 19.2482 19.152L19.2481 12.2342Z" fill="white"/>
<path d="M24.0521 11.025V10.3057C23.1575 10.307 22.2807 10.0594 21.5217 9.59117C22.1935 10.3182 23.0782 10.8193 24.0521 11.025ZM19.3385 6.39803C19.3157 6.26942 19.2983 6.13995 19.2861 6.00994V5.5752H15.8462V19.0766C15.8407 20.6505 14.5484 21.9249 12.9546 21.9249C12.5028 21.9256 12.0572 21.8212 11.6537 21.62C12.1821 22.3054 13.0164 22.7478 13.9555 22.7478C15.5491 22.7478 16.8415 21.4735 16.8471 19.8995V6.3981L19.3385 6.39803ZM13.8324 13.6528V12.8869C13.545 12.8481 13.2552 12.8287 12.9651 12.8288C9.47362 12.8288 6.64343 15.6261 6.64343 19.0766C6.64343 21.24 7.75573 23.1465 9.446 24.268C8.33119 23.1416 7.64434 21.5999 7.64434 19.8994C7.64434 16.4928 10.4025 13.7229 13.8324 13.6528Z" fill="#00F2EA"/>
</svg>
