<svg width="24" height="24" viewBox="0 0 24 24" fill="none" xmlns="http://www.w3.org/2000/svg">
<path d="M17.7665 10.3247L16.5676 9.82386L17.9961 9.06301C18.4319 8.83442 18.8183 8.52169 19.1328 8.14284C19.4474 7.76399 19.6839 7.32653 19.8289 6.85567C19.9738 6.38481 20.0243 5.88987 19.9773 5.39939C19.9304 4.90891 19.787 4.43258 19.5554 3.99788C19.0901 3.11786 18.2949 2.45895 17.3447 2.16609C16.3945 1.87322 15.3671 1.97037 14.4883 2.43618L6.00257 6.94046C5.37216 7.27223 4.8493 7.77719 4.49532 8.39611C4.14133 9.01502 3.97092 9.72221 4.00406 10.4347C4.03795 11.1292 4.26313 11.8008 4.65463 12.375C5.04614 12.9493 5.58871 13.4037 6.22222 13.6881C6.25218 13.6981 7.422 14.1881 7.422 14.1881L6.00257 14.939C5.40692 15.2608 4.90924 15.7379 4.56225 16.3199C4.21526 16.9019 4.03188 17.567 4.03151 18.2449C4.03676 19.2393 4.43355 20.1915 5.13569 20.8946C5.83782 21.5977 6.78858 21.995 7.78143 22C8.38465 22 8.97704 21.855 9.51203 21.5767L18.007 17.0715C18.636 16.7392 19.1573 16.234 19.5096 15.6151C19.8618 14.9963 20.0304 14.2896 19.9955 13.5781C19.9598 12.8828 19.7327 12.2109 19.3395 11.6367C18.9463 11.0625 18.4013 10.6084 17.7665 10.3247ZM10.0004 14.6581V9.35302L14.9984 12.0064L10.0004 14.6581Z" fill="#EE2106"/>
</svg>
