<svg width="20" height="20" viewBox="0 0 20 20" fill="none" xmlns="http://www.w3.org/2000/svg">
<path d="M10.2298 3C9.01125 3.00023 7.81566 3.34445 6.77052 3.99593C5.72538 4.64742 4.86989 5.58173 4.29531 6.69921C3.72073 7.81668 3.44862 9.07541 3.508 10.3411C3.56738 11.6068 3.95602 12.832 4.63246 13.886C5.30891 14.94 6.24779 15.7833 7.34895 16.3259C8.45011 16.8685 9.67224 17.09 10.885 16.9669C12.0977 16.8438 13.2556 16.3806 14.2351 15.6268C15.2145 14.8729 15.9788 13.8568 16.4465 12.6866C16.676 12.1126 16.1261 11.5358 15.5728 11.7696C14.6245 12.1691 13.5716 12.2103 12.5972 11.8861C11.6227 11.5619 10.7883 10.8928 10.239 9.99511C9.68975 9.09743 9.46037 8.02794 9.59075 6.97261C9.72113 5.91727 10.203 4.94283 10.9527 4.2187L11.0045 4.1627C11.3754 3.7217 11.0806 3.0056 10.4943 3.0056H10.3152L10.2695 3.0014L10.2298 3Z" fill="#ADADAD"/>
</svg>
