<svg width="17" height="32" viewBox="0 0 17 32" fill="none" xmlns="http://www.w3.org/2000/svg">
<path d="M12.9668 9.39453L13.6104 10.1787C13.8644 10.4877 14.0087 10.8556 14.0088 11.2471V19.9668C14.0079 19.9683 14.0059 19.9719 14.002 19.9766C13.9964 19.9831 13.9851 19.9948 13.9639 20.0098L13.752 20.1592V29.4277C13.7519 29.7297 13.6519 30.0177 13.4727 30.2656L12.9238 31.0244H12.252C13.0248 30.877 13.6669 30.256 13.667 29.4277V20.2686C13.667 20.2316 13.6839 20.1862 13.7344 20.1465L13.9248 19.9971V11.2471C13.9246 10.2842 13.1659 9.55554 12.249 9.39453H12.9668ZM15.6562 9.67871L15.6611 9.68164C16.1849 9.98784 16.4999 10.4925 16.5 11.0371V19.9648L16.4941 19.9727C16.4886 19.9791 16.4768 19.9915 16.4551 20.0068L16.2422 20.1562V29.6406C16.242 30.0941 15.9777 30.5194 15.5312 30.7812C15.9013 30.532 16.1581 30.1311 16.1582 29.6406V20.252C16.1582 20.2232 16.1718 20.1811 16.2217 20.1426L16.416 19.9922V11.0371C16.4159 10.4551 16.1047 9.97218 15.6533 9.67676C15.6542 9.67731 15.6553 9.67816 15.6562 9.67871ZM5.36426 0.587891C5.5491 0.680712 5.6689 0.834187 5.70605 0.990234L5.71875 1.09473L5.6748 5.37891L5.66895 5.85059H5.58496L5.58984 5.38867L5.63477 1.09961V1.09473C5.63477 0.863266 5.51798 0.692882 5.36426 0.587891ZM3.40527 0.584961C3.25091 0.689721 3.13465 0.860472 3.13281 1.08887L3.08887 5.37891L3.08301 5.85059H2.99902L3.00488 5.38867L3.04883 1.09961V1.09473C3.04883 0.905685 3.17731 0.697818 3.40527 0.584961ZM0.757812 20.1553L0.542969 20.0059C0.521089 19.9906 0.509396 19.9789 0.503906 19.9727C0.501944 19.9704 0.500904 19.9681 0.5 19.9668V11.2471C0.500178 10.6432 0.845419 10.0814 1.41504 9.73633C0.920527 10.0715 0.584147 10.6069 0.583984 11.2471V19.9893L0.768555 20.1387C0.826281 20.1858 0.841759 20.2358 0.841797 20.2686V29.4277C0.841848 30.013 1.16316 30.4939 1.62402 30.7783C1.09124 30.4864 0.75787 29.9707 0.757812 29.4277V20.1553ZM1.97461 6.26367C1.97461 6.19868 2.00294 6.12268 2.05859 6.05566V9.39453H2.2627C2.16204 9.41214 2.06382 9.43794 1.96777 9.46875L1.97461 9.46582V6.26367ZM6.72852 6.05762C6.78379 6.12441 6.8125 6.19938 6.8125 6.26367V9.36035H6.72852V6.05762ZM10.6572 5.86621C10.4452 6.0008 10.2882 6.22757 10.2881 6.52637V9.36035H10.2031V6.52637C10.2033 6.27354 10.3712 6.00853 10.6572 5.86621ZM14.8164 6.52637C14.8163 6.2778 14.7083 6.07802 14.5498 5.94043L14.4434 5.86426C14.7317 6.00611 14.9002 6.27243 14.9004 6.52637V9.38477L14.9238 9.3916C14.8882 9.38552 14.8525 9.37909 14.8164 9.375V6.52637Z" stroke="#919191"/>
<mask id="path-2-inside-1_1384_1042" fill="white">
<path d="M16.9999 11.0378V19.9696C16.9999 20.0783 16.962 20.2619 16.7424 20.4166V29.6407C16.7424 30.3341 16.3196 30.9405 15.6908 31.2691H13.4248V9.25H15.913C16.5662 9.63172 16.9999 10.2889 16.9999 11.0378Z"/>
</mask>
<path d="M16.7424 20.4166L12.7118 14.6935L9.74241 16.7847V20.4166H16.7424ZM15.6908 31.2691V38.2691H17.4093L18.9325 37.4732L15.6908 31.2691ZM13.4248 31.2691H6.4248V38.2691H13.4248V31.2691ZM13.4248 9.25V2.25H6.4248V9.25H13.4248ZM15.913 9.25L19.4448 3.20627L17.8084 2.25H15.913V9.25ZM16.9999 11.0378H9.99991V19.9696H16.9999H23.9999V11.0378H16.9999ZM16.9999 19.9696H9.99991C9.99991 19.2136 10.133 18.2343 10.6148 17.2059C11.1149 16.1385 11.8657 15.2893 12.7118 14.6935L16.7424 20.4166L20.773 26.1397C23.1883 24.4387 23.9999 21.9138 23.9999 19.9696H16.9999ZM16.7424 20.4166H9.74241V29.6407H16.7424H23.7424V20.4166H16.7424ZM16.7424 29.6407H9.74241C9.74241 27.3201 11.1527 25.7423 12.449 25.0649L15.6908 31.2691L18.9325 37.4732C21.4865 36.1387 23.7424 33.3481 23.7424 29.6407H16.7424ZM15.6908 31.2691V24.2691H13.4248V31.2691V38.2691H15.6908V31.2691ZM13.4248 31.2691H20.4248V9.25H13.4248H6.4248V31.2691H13.4248ZM13.4248 9.25V16.25H15.913V9.25V2.25H13.4248V9.25ZM15.913 9.25L12.3813 15.2937C11.2257 14.6184 9.99991 13.1458 9.99991 11.0378H16.9999H23.9999C23.9999 7.43191 21.9068 4.64501 19.4448 3.20627L15.913 9.25Z" fill="#919191" mask="url(#path-2-inside-1_1384_1042)"/>
<path d="M9.30029 14.8545V15.9375H5.20654V14.8545H9.30029Z" stroke="#919191" stroke-width="4"/>
<path d="M12.6279 29.5244H2.61035C2.44281 29.5244 2.33009 29.464 2.27734 29.417C2.26746 29.4082 2.26226 29.3997 2.25781 29.3945V28.7285C2.76121 29.1694 3.41927 29.4052 4.02734 29.4053H10.4814C11.2578 29.4052 12.1155 29.0219 12.6279 28.3154V29.5244Z" stroke="#919191" stroke-width="4"/>
<mask id="path-6-inside-2_1384_1042" fill="white">
<path d="M5.55109 0.524414H3.20654V5.62532H5.55109V0.524414Z"/>
</mask>
<path d="M3.20654 0.524414V-2.47559H0.206543V0.524414H3.20654ZM5.55109 0.524414H8.5511V-2.47559H5.55109V0.524414ZM5.55109 5.62532V8.62532H8.5511V5.62532H5.55109ZM3.20654 5.62532H0.206543V8.62532H3.20654V5.62532ZM3.20654 0.524414V3.52441H5.55109V0.524414V-2.47559H3.20654V0.524414ZM5.55109 0.524414H2.55109V5.62532H5.55109H8.5511V0.524414H5.55109ZM5.55109 5.62532V2.62532H3.20654V5.62532V8.62532H5.55109V5.62532ZM3.20654 5.62532H6.20654V0.524414H3.20654H0.206543V5.62532H3.20654Z" fill="#919191" mask="url(#path-6-inside-2_1384_1042)"/>
<path d="M13.1694 7.24121V7.58496H11.5991V7.24121H13.1694Z" stroke="#919191" stroke-width="3"/>
</svg>
