<svg width="23" height="30" viewBox="0 0 23 30" fill="none" xmlns="http://www.w3.org/2000/svg">
<mask id="path-1-inside-1_1384_1026" fill="white">
<path d="M12.8645 11.1051C12.8645 10.0831 12.0383 9.25684 11.0162 9.25684C9.99419 9.25684 9.16791 10.0831 9.16791 11.1051C9.16791 11.9467 9.72978 12.656 10.4976 12.8797L8.79418 17.1484H8.79164V17.1534L7.33995 20.7916C7.32723 20.7916 7.27893 20.9365 7.26622 20.9721C7.26368 20.9772 7.26368 20.9797 7.26368 20.9797L5.6569 25.0018C5.6569 25.0018 5.573 25.2789 5.55012 25.2662L3.66113 30.0001H18.3713L11.5349 12.8797C12.3027 12.656 12.8645 11.9467 12.8645 11.1051ZM9.48826 18.1501L12.8976 20.7865H8.43571L9.48826 18.1501ZM7.95266 21.9967L13.9222 24.9941H6.7552L7.95266 21.9967ZM13.5 22L17 28.9831L8.79164 26L17 29L13.5 22ZM5.16114 28.9831L6.29249 26.1509L14.5959 28.9831H5.16114ZM11.9976 16.7848H10.0349L11.0162 14.3263L11.9976 16.7848Z"/>
</mask>
<path d="M10.4976 12.8797L17.9278 15.8447L21.1926 7.66342L12.7356 5.19915L10.4976 12.8797ZM8.79418 17.1484V25.1484H14.2152L16.2244 20.1134L8.79418 17.1484ZM8.79164 17.1484V9.14836H0.791644V17.1484H8.79164ZM8.79164 17.1534L16.222 20.1183L16.7916 18.6906V17.1534H8.79164ZM7.33995 20.7916V28.7916H12.7611L14.7703 23.7564L7.33995 20.7916ZM7.26622 20.9721L14.4216 24.5498L14.6377 24.1177L14.8002 23.6628L7.26622 20.9721ZM7.26368 20.9797L14.6928 23.9476L15.2646 22.5162L15.2637 20.9749L7.26368 20.9797ZM5.6569 25.0018L-1.77221 22.0339L-1.90004 22.3539L-1.99989 22.6837L5.6569 25.0018ZM5.55012 25.2662L9.43526 18.2729L1.48887 13.8582L-1.88017 22.3012L5.55012 25.2662ZM3.66113 30.0001L-3.76915 27.0351L-8.14453 38.0001H3.66113V30.0001ZM18.3713 30.0001V38.0001H30.1801L25.8009 27.0333L18.3713 30.0001ZM11.5349 12.8797L9.29682 5.19915L0.837901 7.664L4.1053 15.8465L11.5349 12.8797ZM9.48826 18.1501L14.3821 11.8215L5.99127 5.33286L2.05847 15.1839L9.48826 18.1501ZM12.8976 20.7865V28.7865H36.3204L17.7914 14.458L12.8976 20.7865ZM8.43571 20.7865L1.00592 17.8203L-3.37209 28.7865H8.43571V20.7865ZM7.95266 21.9967L11.5425 14.8473L3.75595 10.9375L0.523541 19.0288L7.95266 21.9967ZM13.9222 24.9941V32.9941L17.512 17.8448L13.9222 24.9941ZM6.7552 24.9941L-0.673914 22.0263L-5.05547 32.9941H6.7552V24.9941ZM13.5 22L20.652 18.4154L6.34458 25.5777L13.5 22ZM17 28.9831L14.2675 36.502L33.1581 43.3673L24.152 25.3985L17 28.9831ZM8.79164 26L11.5242 18.4811L6.04546 33.5139L8.79164 26ZM17 29L14.2538 36.5139L33.1553 43.422L24.1554 25.4223L17 29ZM5.16114 28.9831L-2.26806 26.0154L-6.64922 36.9831H5.16114V28.9831ZM6.29249 26.1509L8.87511 18.5792L1.68243 16.1259L-1.1367 23.1832L6.29249 26.1509ZM14.5959 28.9831V36.9831L17.1785 21.4114L14.5959 28.9831ZM11.9976 16.7848V24.7848H23.8048L19.4275 13.819L11.9976 16.7848ZM10.0349 16.7848L2.60493 13.819L-1.77233 24.7848H10.0349V16.7848ZM11.0162 14.3263L18.4462 11.3605L11.0162 -7.25282L3.58629 11.3605L11.0162 14.3263ZM12.8645 11.1051H20.8645C20.8645 5.66482 16.4565 1.25684 11.0162 1.25684V9.25684V17.2568C7.61998 17.2568 4.86453 14.5014 4.86453 11.1051H12.8645ZM11.0162 9.25684V1.25684C5.57591 1.25684 1.16791 5.66482 1.16791 11.1051H9.16791H17.1679C17.1679 14.5014 14.4125 17.2568 11.0162 17.2568V9.25684ZM9.16791 11.1051H1.16791C1.16791 15.5985 4.17005 19.3687 8.25953 20.5603L10.4976 12.8797L12.7356 5.19915C15.2895 5.94333 17.1679 8.29479 17.1679 11.1051H9.16791ZM10.4976 12.8797L3.06732 9.9147L1.36393 14.1833L8.79418 17.1484L16.2244 20.1134L17.9278 15.8447L10.4976 12.8797ZM8.79418 17.1484V9.14836H8.79164V17.1484V25.1484H8.79418V17.1484ZM8.79164 17.1484H0.791644V17.1534H8.79164H16.7916V17.1484H8.79164ZM8.79164 17.1534L1.36133 14.1886L-0.0903695 17.8267L7.33995 20.7916L14.7703 23.7564L16.222 20.1183L8.79164 17.1534ZM7.33995 20.7916V12.7916C5.44398 12.7916 4.0277 13.4549 3.26061 13.9094C2.47469 14.3751 1.93507 14.8777 1.64078 15.1762C1.06274 15.7624 0.709812 16.3055 0.581597 16.5072C0.287864 16.9695 0.107476 17.3618 0.0587649 17.4675C-0.0741985 17.7562 -0.164524 17.9981 -0.187571 18.0596C-0.223805 18.1562 -0.340599 18.4855 -0.267716 18.2814L7.26622 20.9721L14.8002 23.6628C14.8857 23.4231 14.7995 23.6622 14.7937 23.6774C14.7859 23.6982 14.7109 23.9017 14.5909 24.162C14.5487 24.2536 14.3743 24.6344 14.0857 25.0885C13.9601 25.2863 13.6095 25.8262 13.0335 26.4103C12.7403 26.7076 12.2017 27.2094 11.4167 27.6746C10.6505 28.1285 9.23511 28.7916 7.33995 28.7916V20.7916ZM7.26622 20.9721L0.110802 17.3944C-0.129916 17.8758 -0.344348 18.4257 -0.497647 19.0395C-0.574092 19.3457 -0.634163 19.6631 -0.674929 19.9904C-0.695276 20.1537 -0.710697 20.3186 -0.720994 20.4847C-0.72614 20.5677 -0.729998 20.6509 -0.732557 20.7343C-0.733836 20.776 -0.734789 20.8177 -0.735416 20.8594C-0.73573 20.8803 -0.735962 20.9011 -0.736113 20.922C-0.736188 20.9324 -0.736243 20.9429 -0.736278 20.9533C-0.736295 20.9585 -0.736307 20.9637 -0.736314 20.9689C-0.736317 20.9715 -0.73632 20.9755 -0.73632 20.9768C-0.736321 20.9807 -0.73632 20.9846 7.26368 20.9797C15.2637 20.9749 15.2637 20.9788 15.2637 20.9827C15.2637 20.984 15.2637 20.9879 15.2637 20.9905C15.2637 20.9957 15.2637 21.0009 15.2636 21.0061C15.2636 21.0166 15.2635 21.027 15.2635 21.0374C15.2633 21.0583 15.2631 21.0792 15.2628 21.1C15.2621 21.1417 15.2612 21.1834 15.2599 21.2251C15.2574 21.3084 15.2535 21.3915 15.2484 21.4745C15.2381 21.6405 15.2227 21.8051 15.2024 21.9681C15.1617 22.2947 15.1018 22.6112 15.0256 22.9161C14.873 23.5274 14.6598 24.0734 14.4216 24.5498L7.26622 20.9721ZM7.26368 20.9797L-0.165428 18.0118L-1.77221 22.0339L5.6569 25.0018L13.086 27.9696L14.6928 23.9476L7.26368 20.9797ZM5.6569 25.0018C-1.99989 22.6837 -1.99979 22.6833 -1.99969 22.683C-1.99966 22.6829 -1.99956 22.6826 -1.99949 22.6823C-1.99936 22.6819 -1.99923 22.6815 -1.9991 22.681C-1.99884 22.6802 -1.99858 22.6793 -1.99832 22.6785C-1.99781 22.6768 -1.99731 22.6751 -1.99682 22.6735C-1.99584 22.6703 -1.99489 22.6672 -1.99397 22.6642C-1.99215 22.6582 -1.99041 22.6526 -1.98874 22.6472C-1.98549 22.6367 -1.98204 22.6257 -1.97828 22.6139C-1.97313 22.5978 -1.95789 22.5502 -1.9338 22.4817C-1.92896 22.468 -1.84361 22.219 -1.69663 21.8982C-1.6569 21.8115 -1.41453 21.2692 -0.977438 20.6492C-0.811158 20.4133 -0.19041 19.5348 0.917465 18.7467C1.50877 18.326 2.59352 17.6746 4.11534 17.3967C5.80998 17.0872 7.70783 17.3132 9.43526 18.2729L5.55012 25.2662L1.66497 32.2594C5.5994 34.4452 9.0868 32.5707 10.1927 31.7839C11.3043 30.9931 11.9292 30.1099 12.1 29.8677C12.546 29.2349 12.7987 28.6731 12.8495 28.5622C13.0187 28.193 13.1293 27.8771 13.158 27.7957C13.2059 27.6596 13.2435 27.5435 13.2651 27.4758C13.2771 27.4382 13.2873 27.4057 13.2952 27.3801C13.2992 27.3671 13.3028 27.3555 13.3059 27.3455C13.3074 27.3405 13.3088 27.3358 13.3101 27.3316C13.3108 27.3294 13.3114 27.3274 13.312 27.3254C13.3123 27.3244 13.3126 27.3235 13.3129 27.3226C13.313 27.3221 13.3131 27.3216 13.3133 27.3212C13.3133 27.321 13.3134 27.3206 13.3135 27.3205C13.3136 27.3202 13.3137 27.3199 5.6569 25.0018ZM5.55012 25.2662L-1.88017 22.3012L-3.76915 27.0351L3.66113 30.0001L11.0914 32.965L12.9804 28.2311L5.55012 25.2662ZM3.66113 30.0001V38.0001H18.3713V30.0001V22.0001H3.66113V30.0001ZM18.3713 30.0001L25.8009 27.0333L18.9644 9.91297L11.5349 12.8797L4.1053 15.8465L10.9417 32.9668L18.3713 30.0001ZM11.5349 12.8797L13.7729 20.5603C17.8624 19.3687 20.8645 15.5986 20.8645 11.1051H12.8645H4.86453C4.86453 8.29477 6.74296 5.94332 9.29682 5.19915L11.5349 12.8797ZM9.48826 18.1501L4.59439 24.4786L8.00371 27.115L12.8976 20.7865L17.7914 14.458L14.3821 11.8215L9.48826 18.1501ZM12.8976 20.7865V12.7865H8.43571V20.7865V28.7865H12.8976V20.7865ZM8.43571 20.7865L15.8655 23.7527L16.918 21.1162L9.48826 18.1501L2.05847 15.1839L1.00592 17.8203L8.43571 20.7865ZM7.95266 21.9967L4.36278 29.146L10.3323 32.1434L13.9222 24.9941L17.512 17.8448L11.5425 14.8473L7.95266 21.9967ZM13.9222 24.9941V16.9941H6.7552V24.9941V32.9941H13.9222V24.9941ZM6.7552 24.9941L14.1843 27.962L15.3818 24.9645L7.95266 21.9967L0.523541 19.0288L-0.673914 22.0263L6.7552 24.9941ZM13.5 22L6.34805 25.5846L9.84805 32.5677L17 28.9831L24.152 25.3985L20.652 18.4154L13.5 22ZM17 28.9831L19.7325 21.4642L11.5242 18.4811L8.79164 26L6.05912 33.5189L14.2675 36.502L17 28.9831ZM8.79164 26L6.04546 33.5139L14.2538 36.5139L17 29L19.7462 21.4861L11.5378 18.4861L8.79164 26ZM17 29L24.1554 25.4223L20.6554 18.4223L13.5 22L6.34458 25.5777L9.84458 32.5777L17 29ZM5.16114 28.9831L12.5903 31.9508L13.7217 29.1186L6.29249 26.1509L-1.1367 23.1832L-2.26806 26.0154L5.16114 28.9831ZM6.29249 26.1509L3.70987 33.7226L12.0133 36.5548L14.5959 28.9831L17.1785 21.4114L8.87511 18.5792L6.29249 26.1509ZM14.5959 28.9831V20.9831H5.16114V28.9831V36.9831H14.5959V28.9831ZM11.9976 16.7848V8.7848H10.0349V16.7848V24.7848H11.9976V16.7848ZM10.0349 16.7848L17.4648 19.7506L18.4462 17.2922L11.0162 14.3263L3.58629 11.3605L2.60493 13.819L10.0349 16.7848ZM11.0162 14.3263L3.58629 17.2922L4.56764 19.7506L11.9976 16.7848L19.4275 13.819L18.4462 11.3605L11.0162 14.3263Z" fill="#919191" mask="url(#path-1-inside-1_1384_1026)"/>
<path d="M11.0156 5.53613C13.7216 5.53613 15.9236 7.73748 15.9238 10.4434C15.9238 12.0094 15.1611 13.4834 13.9102 14.4023L13.9014 14.3877C15.1472 13.4732 15.9062 12.0076 15.9062 10.4463C15.9062 7.74981 13.7121 5.55566 11.0156 5.55566C8.31933 5.55588 6.12501 7.74995 6.125 10.4463C6.125 12.0071 6.88379 13.4731 8.12891 14.3877L8.12012 14.4023C6.8685 13.4836 6.1084 12.0094 6.1084 10.4434C6.10862 7.73762 8.30988 5.53635 11.0156 5.53613Z" stroke="#919191"/>
<path d="M11.0142 3.2334C15.2225 3.23359 18.6468 6.65783 18.647 10.8662V10.9971C18.6031 13.5828 17.2581 15.9561 15.0835 17.3271L15.0747 17.3115C17.28 15.9208 18.6323 13.4961 18.6323 10.8662C18.6322 6.6673 15.2151 3.25 11.0161 3.25C6.81705 3.25013 3.40296 6.66761 3.40283 10.8662C3.40283 13.4952 4.75221 15.9223 6.95947 17.3115L6.95068 17.3281C4.73745 15.934 3.3833 13.5024 3.3833 10.8662C3.38343 6.65751 6.80584 3.2334 11.0142 3.2334Z" stroke="#919191"/>
<path d="M11.0137 0.5C16.8114 0.502817 21.5273 5.2202 21.5273 11.0186C21.5273 14.8323 19.5052 18.2864 16.2129 20.1582L16.2041 20.1416C19.4895 18.2744 21.5127 14.823 21.5127 11.0186C21.5126 5.22796 16.7986 0.516602 11.0107 0.516602C5.22264 0.51675 0.514697 5.22839 0.514648 11.0186C0.514648 14.825 2.53654 18.2772 5.82129 20.1445L5.81348 20.1602C2.52405 18.2904 0.500105 14.8347 0.5 11.0215C0.5 5.22113 5.21631 0.50293 11.0137 0.50293V0.5Z" stroke="#919191"/>
</svg>
