<svg width="29" height="30" viewBox="0 0 29 30" fill="none" xmlns="http://www.w3.org/2000/svg">
<g clip-path="url(#clip0_1384_1013)">
<mask id="path-1-inside-1_1384_1013" fill="white">
<path d="M17.8939 13.2529H11.1075L9.19579 16.5368H3.41895C3.92987 16.1307 4.38291 15.716 4.82592 15.2565C5.53211 14.5247 6.16343 13.7302 6.75076 12.8963C7.67228 11.5757 8.46722 10.1895 9.15334 8.73047H19.8465C20.5488 10.2235 21.3646 11.64 22.3124 12.9876C22.885 13.7913 23.4986 14.5595 24.1832 15.2666C24.6231 15.723 25.0738 16.133 25.5809 16.536H19.8064L17.8939 13.2529Z"/>
</mask>
<path d="M17.8939 13.2529L26.5347 8.21943L23.6416 3.2529H17.8939V13.2529ZM11.1075 13.2529V3.2529H5.35793L2.46527 8.22184L11.1075 13.2529ZM9.19579 16.5368V26.5368H14.9454L17.838 21.5679L9.19579 16.5368ZM3.41895 16.5368L-2.80366 8.70871L-25.2316 26.5368H3.41895V16.5368ZM4.82592 15.2565L-2.37005 8.31259L-2.37328 8.31594L4.82592 15.2565ZM6.75076 12.8963L14.9266 18.6544L14.939 18.6367L14.9514 18.619L6.75076 12.8963ZM9.15334 8.73047V-1.26953H2.80545L0.104041 4.47487L9.15334 8.73047ZM19.8465 8.73047L28.8953 4.47387L26.1936 -1.26953H19.8465V8.73047ZM22.3124 12.9876L14.1327 18.7402L14.1503 18.7653L14.1681 18.7902L22.3124 12.9876ZM24.1832 15.2666L31.3832 8.32685L31.3754 8.31875L31.3676 8.31067L24.1832 15.2666ZM25.5809 16.536V26.536H54.2329L31.8032 8.70773L25.5809 16.536ZM19.8064 16.536L11.1655 21.5695L14.0586 26.536H19.8064V16.536ZM17.8939 13.2529V3.2529H11.1075V13.2529V23.2529H17.8939V13.2529ZM11.1075 13.2529L2.46527 8.22184L0.55355 11.5057L9.19579 16.5368L17.838 21.5679L19.7498 18.284L11.1075 13.2529ZM9.19579 16.5368V6.53681H3.41895V16.5368V26.5368H9.19579V16.5368ZM3.41895 16.5368L9.64155 24.3649C10.5111 23.6737 11.289 22.9606 12.0251 22.1971L4.82592 15.2565L-2.37328 8.31594C-2.52322 8.47147 -2.65135 8.58763 -2.80366 8.70871L3.41895 16.5368ZM4.82592 15.2565L12.0219 22.2004C13.1684 21.0123 14.1222 19.7965 14.9266 18.6544L6.75076 12.8963L-1.42505 7.13814C-1.79536 7.66393 -2.10417 8.03706 -2.37005 8.31259L4.82592 15.2565ZM6.75076 12.8963L14.9514 18.619C16.2112 16.8136 17.2866 14.9339 18.2026 12.9861L9.15334 8.73047L0.104041 4.47487C-0.3522 5.44504 -0.866692 6.33786 -1.44987 7.17354L6.75076 12.8963ZM9.15334 8.73047V18.7305H19.8465V8.73047V-1.26953H9.15334V8.73047ZM19.8465 8.73047L10.7977 12.9871C11.7349 14.9795 12.838 16.8992 14.1327 18.7402L22.3124 12.9876L30.492 7.23488C29.8912 6.38067 29.3627 5.4675 28.8953 4.47387L19.8465 8.73047ZM22.3124 12.9876L14.1681 18.7902C14.9474 19.884 15.8778 21.0647 16.9988 22.2225L24.1832 15.2666L31.3676 8.31067C31.1194 8.05431 30.8227 7.69866 30.4566 7.18491L22.3124 12.9876ZM24.1832 15.2666L16.9832 22.2063C17.7305 22.9817 18.508 23.6883 19.3585 24.3643L25.5809 16.536L31.8032 8.70773C31.6396 8.57768 31.5157 8.46432 31.3832 8.32685L24.1832 15.2666ZM25.5809 16.536V6.53604H19.8064V16.536V26.536H25.5809V16.536ZM19.8064 16.536L28.4472 11.5026L26.5347 8.21943L17.8939 13.2529L9.25302 18.2864L11.1655 21.5695L19.8064 16.536Z" fill="black" mask="url(#path-1-inside-1_1384_1013)"/>
<mask id="path-3-inside-2_1384_1013" fill="white">
<path d="M18.9785 3.5435L14.8154 4.57625L14.8162 0.932617L16.0603 1.70853L18.9785 3.5435Z"/>
</mask>
<path d="M18.9785 3.5435L19.7008 6.45524L26.5447 4.75743L20.5754 1.00387L18.9785 3.5435ZM14.8154 4.57625L11.8154 4.57561L11.8146 8.41161L15.5378 7.48799L14.8154 4.57625ZM14.8162 0.932617L16.4038 -1.61291L11.8173 -4.47328L11.8162 0.931982L14.8162 0.932617ZM16.0603 1.70853L17.6573 -0.831116L17.6479 -0.83699L16.0603 1.70853ZM18.9785 3.5435L18.2561 0.631758L14.0931 1.66451L14.8154 4.57625L15.5378 7.48799L19.7008 6.45524L18.9785 3.5435ZM14.8154 4.57625L17.8154 4.57688L17.8162 0.933252L14.8162 0.932617L11.8162 0.931982L11.8154 4.57561L14.8154 4.57625ZM14.8162 0.932617L13.2287 3.47814L14.4728 4.25406L16.0603 1.70853L17.6479 -0.83699L16.4038 -1.61291L14.8162 0.932617ZM16.0603 1.70853L14.4634 4.24816L17.3815 6.08313L18.9785 3.5435L20.5754 1.00387L17.6573 -0.831099L16.0603 1.70853Z" fill="black" mask="url(#path-3-inside-2_1384_1013)"/>
<path d="M27.3985 16.6956C26.3111 16.117 25.3664 15.2946 24.5306 14.3779C23.0032 12.7031 21.6688 10.5355 20.6863 8.49551L20.4084 7.87354H14.8199L14.8184 5.46225L18.6156 4.51459L20.0333 4.18814L20.4571 3.99087L20.5018 3.8934C20.6446 3.58241 20.3035 3.36194 20.031 3.19097L15.1155 0.106649C14.8739 -0.0449751 14.5845 -0.027956 14.3399 0.113612C14.1292 0.23584 13.9648 0.479522 13.9648 0.761111V7.87277L8.60005 7.87354L8.26355 8.61774C7.05107 11.0824 5.28367 13.8766 3.16357 15.6412C2.68043 16.0435 2.16641 16.3986 1.60841 16.6933L0 29.9999H29V29.9032L27.3985 16.6956ZM14.816 0.932849L16.0602 1.70876L18.9783 3.54296L14.816 4.57571V0.932849ZM4.826 15.2567C5.53219 14.5249 6.16351 13.7304 6.75085 12.8965C7.67236 11.576 8.46731 10.1897 9.15343 8.73068H19.8466C20.5489 10.2237 21.3647 11.6402 22.3124 12.9878C22.8851 13.7915 23.4987 14.5597 24.1833 15.2668C24.6232 15.7232 25.0739 16.1332 25.581 16.5363H19.8064L17.8947 13.2531H11.1084L9.19665 16.537H3.41903C3.92995 16.1309 4.38299 15.717 4.826 15.2567ZM20.0928 18.7302H8.90723L11.5985 14.111H17.4008L20.0928 18.7302ZM0.965509 29.1428L2.37866 17.3949H8.6919L7.73411 19.0381V29.1404L0.965509 29.1428ZM16.3002 29.1428V23.3741C16.294 23.1876 16.162 23.0066 15.9544 23.0058H12.8241C12.6226 23.0051 12.4783 23.1783 12.4737 23.3733V29.142H8.59079V19.5889L20.4054 19.5873L20.4069 29.1412H16.3002V29.1428ZM21.2644 29.1428V19.0427L20.3058 17.3942H26.6175L28.0314 29.1412H21.2636L21.2644 29.1428Z" fill="#1A1A1A"/>
</g>
<defs>
<clipPath id="clip0_1384_1013">
<rect width="29" height="30" fill="white"/>
</clipPath>
</defs>
</svg>
