<svg width="25" height="30" viewBox="0 0 25 30" fill="none" xmlns="http://www.w3.org/2000/svg">
<mask id="path-1-inside-1_1384_1038" fill="white">
<path d="M22.1193 3.30371H2.87793V5.08363H22.1193V3.30371Z"/>
</mask>
<path d="M2.87793 3.30371V-4.69629H-5.12207V3.30371H2.87793ZM22.1193 3.30371H30.1193V-4.69629H22.1193V3.30371ZM22.1193 5.08363V13.0836H30.1193V5.08363H22.1193ZM2.87793 5.08363H-5.12207V13.0836H2.87793V5.08363ZM2.87793 3.30371V11.3037H22.1193V3.30371V-4.69629H2.87793V3.30371ZM22.1193 3.30371H14.1193V5.08363H22.1193H30.1193V3.30371H22.1193ZM22.1193 5.08363V-2.91637H2.87793V5.08363V13.0836H22.1193V5.08363ZM2.87793 5.08363H10.8779V3.30371H2.87793H-5.12207V5.08363H2.87793Z" fill="#919191" mask="url(#path-1-inside-1_1384_1038)"/>
<mask id="path-3-inside-2_1384_1038" fill="white">
<path d="M22.8202 0H2.17974C0.978181 0 0 1.0569 0 2.3523V18.1356C0 18.8109 0.275113 19.446 0.757147 19.8803L11.6535 29.6686C11.898 29.8895 12.199 30 12.5 30C12.801 30 13.1019 29.8895 13.3465 29.6686L24.1558 19.9557C24.6919 19.4762 24.9999 18.7682 24.9999 18.0176V2.3523C24.9999 1.0569 24.0218 0 22.8202 0ZM24.2945 18.0176C24.2945 18.5448 24.0782 19.0418 23.702 19.3808L12.8927 29.0937C12.6646 29.2971 12.3354 29.2971 12.1073 29.0937L1.21096 19.3029C0.888823 19.0142 0.705416 18.59 0.705416 18.1356V2.3523C0.705416 1.47113 1.36616 0.753138 2.17974 0.753138H22.8202C23.6314 0.753138 24.2945 1.47113 24.2945 2.3523V18.0176Z"/>
</mask>
<path d="M0.757147 19.8803L-4.59784 25.8238L-4.58901 25.8317L0.757147 19.8803ZM11.6535 29.6686L17.0163 23.7323L17.008 23.7248L16.9996 23.7173L11.6535 29.6686ZM13.3465 29.6686L7.99945 23.7181L7.99153 23.7252L7.98362 23.7323L13.3465 29.6686ZM24.1558 19.9557L18.8226 13.9927L18.8157 13.9989L18.8088 14.0051L24.1558 19.9557ZM23.702 19.3808L29.049 25.3313L29.0564 25.3247L23.702 19.3808ZM12.8927 29.0937L18.2164 35.0651L18.2281 35.0547L18.2397 35.0443L12.8927 29.0937ZM12.1073 29.0937L6.76037 35.0444L6.77193 35.0548L6.78353 35.0651L12.1073 29.0937ZM1.21096 19.3029L6.55789 13.3523L6.55017 13.3453L1.21096 19.3029ZM22.8202 0V-8H2.17974V0V8H22.8202V0ZM2.17974 0V-8C-4.00585 -8 -8 -2.77356 -8 2.3523H0H8C8 4.88737 5.96221 8 2.17974 8V0ZM0 2.3523H-8V18.1356H0H8V2.3523H0ZM0 18.1356H-8C-8 20.9655 -6.84486 23.7992 -4.59783 25.8238L0.757147 19.8803L6.11213 13.9369C7.39508 15.0929 8 16.6562 8 18.1356H0ZM0.757147 19.8803L-4.58901 25.8317L6.30731 35.62L11.6535 29.6686L16.9996 23.7173L6.10331 13.929L0.757147 19.8803ZM11.6535 29.6686L6.29062 35.6049C8.00379 37.1526 10.2152 38 12.5 38V30V22C14.1828 22 15.7922 22.6265 17.0163 23.7323L11.6535 29.6686ZM12.5 30V38C14.7849 38 16.9962 37.1525 18.7093 35.6049L13.3465 29.6686L7.98362 23.7323C9.20763 22.6265 10.817 22 12.5 22V30ZM13.3465 29.6686L18.6935 35.6192L29.5028 25.9062L24.1558 19.9557L18.8088 14.0051L7.99945 23.7181L13.3465 29.6686ZM24.1558 19.9557L29.489 25.9186C31.8069 23.8455 32.9999 20.9283 32.9999 18.0176H24.9999H16.9999C16.9999 16.6082 17.5769 15.1068 18.8226 13.9927L24.1558 19.9557ZM24.9999 18.0176H32.9999V2.3523H24.9999H16.9999V18.0176H24.9999ZM24.9999 2.3523H32.9999C32.9999 -2.77356 29.0058 -8 22.8202 -8V0V8C19.0377 8 16.9999 4.88737 16.9999 2.3523H24.9999ZM24.2945 18.0176H16.2945C16.2945 16.3795 16.9658 14.6815 18.3475 13.4369L23.702 19.3808L29.0564 25.3247C31.1906 23.4022 32.2945 20.71 32.2945 18.0176H24.2945ZM23.702 19.3808L18.3549 13.4302L7.54563 23.1432L12.8927 29.0937L18.2397 35.0443L29.049 25.3313L23.702 19.3808ZM12.8927 29.0937L7.5689 23.1223C10.3747 20.6209 14.6253 20.6209 17.431 23.1223L12.1073 29.0937L6.78353 35.0651C10.0455 37.9733 14.9545 37.9733 18.2164 35.0651L12.8927 29.0937ZM12.1073 29.0937L17.4542 23.1431L6.55788 13.3523L1.21096 19.3029L-4.13596 25.2536L6.76037 35.0444L12.1073 29.0937ZM1.21096 19.3029L6.55017 13.3453C8.02031 14.6629 8.70542 16.4527 8.70542 18.1356H0.705416H-7.29458C-7.29458 20.7273 -6.24267 23.3656 -4.12825 25.2605L1.21096 19.3029ZM0.705416 18.1356H8.70542V2.3523H0.705416H-7.29458V18.1356H0.705416ZM0.705416 2.3523H8.70542C8.70542 5.26038 6.38826 8.75314 2.17974 8.75314V0.753138V-7.24686C-3.65594 -7.24686 -7.29458 -2.31812 -7.29458 2.3523H0.705416ZM2.17974 0.753138V8.75314H22.8202V0.753138V-7.24686H2.17974V0.753138ZM22.8202 0.753138V8.75314C18.6173 8.75314 16.2945 5.26899 16.2945 2.3523H24.2945H32.2945C32.2945 -2.32673 28.6456 -7.24686 22.8202 -7.24686V0.753138ZM24.2945 2.3523H16.2945V18.0176H24.2945H32.2945V2.3523H24.2945Z" fill="#919191" mask="url(#path-3-inside-2_1384_1038)"/>
<path d="M13.7334 21.582L12.499 22.6914L11.2637 21.582L12.5 20.624L13.7334 21.582ZM6.76855 16.1787L6.44238 17.25L5.87793 16.7422V15.4873L6.76855 16.1787ZM19.1191 16.7432L18.5557 17.249L18.2285 16.1777L19.1191 15.4873V16.7432ZM19.1191 8.60352V9.47559C18.7636 9.32898 18.362 9.24121 17.915 9.24121H16.1172L15.9238 8.60352H19.1191ZM9.07324 8.60352L8.87988 9.24121H7.08496C6.63811 9.24121 6.23518 9.32992 5.87793 9.47754V8.60352H9.07324Z" stroke="#919191" stroke-width="6"/>
</svg>
