<svg width="20" height="20" viewBox="0 0 20 20" fill="none" xmlns="http://www.w3.org/2000/svg">
<path d="M9.99953 15.95C10.225 15.95 10.4412 16.0396 10.6006 16.199C10.76 16.3584 10.8496 16.5746 10.8496 16.8V17.65C10.8496 17.8754 10.76 18.0916 10.6006 18.251C10.4412 18.4104 10.225 18.5 9.99953 18.5C9.77408 18.5 9.55787 18.4104 9.39846 18.251C9.23904 18.0916 9.14948 17.8754 9.14948 17.65V16.8C9.14948 16.5746 9.23904 16.3584 9.39846 16.199C9.55787 16.0396 9.77408 15.95 9.99953 15.95ZM15.4092 14.2075L16.0102 14.8084C16.1651 14.9688 16.2507 15.1835 16.2488 15.4063C16.2469 15.6292 16.1575 15.8424 15.9999 16C15.8423 16.1576 15.629 16.247 15.4062 16.2489C15.1833 16.2509 14.9686 16.1652 14.8082 16.0103L14.2073 15.4094C14.0524 15.2491 13.9667 15.0344 13.9687 14.8115C13.9706 14.5886 14.06 14.3755 14.2176 14.2179C14.3752 14.0603 14.5884 13.9709 14.8113 13.9689C15.0342 13.967 15.2489 14.0527 15.4092 14.2075ZM4.58983 14.2075C4.7428 14.0551 4.94807 13.9665 5.16394 13.96C5.37981 13.9534 5.59009 14.0292 5.75208 14.172C5.91407 14.3148 6.01562 14.514 6.0361 14.729C6.05658 14.9439 5.99446 15.1587 5.86235 15.3295L5.7918 15.4094L5.19081 16.0103C5.03784 16.1628 4.83257 16.2513 4.6167 16.2579C4.40084 16.2645 4.19055 16.1887 4.02856 16.0458C3.86657 15.903 3.76502 15.7039 3.74454 15.4889C3.72406 15.2739 3.78619 15.0592 3.91829 14.8883L3.98885 14.8084L4.58983 14.2075ZM9.99953 4.9C11.3522 4.9 12.6495 5.43732 13.606 6.39376C14.5625 7.35019 15.0998 8.6474 15.0998 10C15.0998 11.3526 14.5625 12.6498 13.606 13.6062C12.6495 14.5627 11.3522 15.1 9.99953 15.1C8.64685 15.1 7.34957 14.5627 6.39309 13.6062C5.4366 12.6498 4.89925 11.3526 4.89925 10C4.89925 8.6474 5.4366 7.35019 6.39309 6.39376C7.34957 5.43732 8.64685 4.9 9.99953 4.9ZM9.99953 6.6C9.09774 6.6 8.23289 6.95821 7.59523 7.59584C6.95757 8.23346 6.59934 9.09826 6.59934 10C6.59934 10.9017 6.95757 11.7665 7.59523 12.4042C8.23289 13.0418 9.09774 13.4 9.99953 13.4C10.9013 13.4 11.7662 13.0418 12.4038 12.4042C13.0415 11.7665 13.3997 10.9017 13.3997 10C13.3997 9.09826 13.0415 8.23346 12.4038 7.59584C11.7662 6.95821 10.9013 6.6 9.99953 6.6ZM3.19915 9.15C3.41581 9.15024 3.6242 9.2332 3.78175 9.38192C3.93929 9.53065 4.0341 9.73391 4.0468 9.95019C4.05949 10.1665 3.98912 10.3794 3.85006 10.5456C3.711 10.7117 3.51375 10.8185 3.29861 10.8441L3.19915 10.85H2.34911C2.13245 10.8498 1.92405 10.7668 1.76651 10.6181C1.60897 10.4694 1.51416 10.2661 1.50146 10.0498C1.48876 9.83354 1.55914 9.62058 1.69819 9.45444C1.83725 9.28831 2.03451 9.18154 2.24965 9.15595L2.34911 9.15H3.19915ZM17.65 9.15C17.8754 9.15 18.0916 9.23955 18.251 9.39896C18.4104 9.55837 18.5 9.77457 18.5 10C18.5 10.2254 18.4104 10.4416 18.251 10.601C18.0916 10.7604 17.8754 10.85 17.65 10.85H16.7999C16.5745 10.85 16.3582 10.7604 16.1988 10.601C16.0394 10.4416 15.9499 10.2254 15.9499 10C15.9499 9.77457 16.0394 9.55837 16.1988 9.39896C16.3582 9.23955 16.5745 9.15 16.7999 9.15H17.65ZM3.98885 3.98965C4.13522 3.8433 4.32996 3.75538 4.53655 3.74239C4.74313 3.72941 4.94736 3.79224 5.11091 3.9191L5.19081 3.98965L5.7918 4.5906C5.94425 4.74356 6.03276 4.94882 6.03935 5.16468C6.04595 5.38053 5.97012 5.59081 5.82729 5.75279C5.68445 5.91477 5.48531 6.01631 5.27031 6.03679C5.05532 6.05727 4.84059 5.99515 4.66973 5.86305L4.58983 5.7925L3.98885 5.19155C3.82949 5.03215 3.73996 4.81599 3.73996 4.5906C3.73996 4.36521 3.82949 4.14905 3.98885 3.98965ZM16.0102 3.98965C16.1696 4.14905 16.2591 4.36521 16.2591 4.5906C16.2591 4.81599 16.1696 5.03215 16.0102 5.19155L15.4092 5.7925C15.3308 5.87368 15.237 5.93844 15.1333 5.98299C15.0296 6.02753 14.9181 6.05098 14.8052 6.05196C14.6923 6.05294 14.5804 6.03144 14.4759 5.9887C14.3714 5.94596 14.2765 5.88284 14.1967 5.80304C14.1169 5.72323 14.0538 5.62832 14.0111 5.52386C13.9683 5.4194 13.9468 5.30747 13.9478 5.19461C13.9488 5.08175 13.9722 4.97021 14.0168 4.86651C14.0613 4.7628 14.1261 4.66901 14.2073 4.5906L14.8082 3.98965C14.9677 3.8303 15.1838 3.74078 15.4092 3.74078C15.6346 3.74078 15.8508 3.8303 16.0102 3.98965ZM9.99953 1.5C10.225 1.5 10.4412 1.58955 10.6006 1.74896C10.76 1.90837 10.8496 2.12457 10.8496 2.35V3.2C10.8496 3.42543 10.76 3.64163 10.6006 3.80104C10.4412 3.96045 10.225 4.05 9.99953 4.05C9.77408 4.05 9.55787 3.96045 9.39846 3.80104C9.23904 3.64163 9.14948 3.42543 9.14948 3.2V2.35C9.14948 2.12457 9.23904 1.90837 9.39846 1.74896C9.55787 1.58955 9.77408 1.5 9.99953 1.5Z" fill="#282828"/>
</svg>
