<svg width="17" height="17" viewBox="0 0 17 17" fill="none" xmlns="http://www.w3.org/2000/svg">
<path d="M15.1944 8.44572H14.2098C14.0811 7.10666 13.4905 5.85411 12.5393 4.90289C11.5881 3.95167 10.3355 3.36107 8.99648 3.23239V2.2478C8.99648 2.10691 8.94051 1.97178 8.84089 1.87215C8.74126 1.77252 8.60613 1.71655 8.46523 1.71655C8.32434 1.71655 8.18921 1.77252 8.08958 1.87215C7.98996 1.97178 7.93398 2.10691 7.93398 2.2478V3.23239C6.60079 3.3675 5.3558 3.9611 4.41149 4.91186C3.46719 5.86263 2.88209 7.11163 2.75607 8.44572H1.77148C1.70172 8.44572 1.63264 8.45946 1.56818 8.48616C1.50373 8.51286 1.44517 8.55199 1.39583 8.60132C1.3465 8.65065 1.30737 8.70921 1.28067 8.77367C1.25398 8.83812 1.24023 8.90721 1.24023 8.97697C1.24023 9.04673 1.25398 9.11582 1.28067 9.18027C1.30737 9.24472 1.3465 9.30329 1.39583 9.35262C1.44517 9.40195 1.50373 9.44108 1.56818 9.46778C1.63264 9.49448 1.70172 9.50822 1.77148 9.50822H2.75607C2.88475 10.8473 3.47535 12.0998 4.42657 13.0511C5.37779 14.0023 6.63034 14.5929 7.9694 14.7216V15.7061C7.9694 15.847 8.02537 15.9822 8.125 16.0818C8.22463 16.1814 8.35976 16.2374 8.50065 16.2374C8.64155 16.2374 8.77667 16.1814 8.8763 16.0818C8.97593 15.9822 9.0319 15.847 9.0319 15.7061V14.7216C10.3705 14.5916 11.6223 14.0005 12.5733 13.0496C13.5242 12.0986 14.1152 10.8468 14.2452 9.50822H15.2298C15.2996 9.50822 15.3687 9.49448 15.4331 9.46778C15.4976 9.44108 15.5561 9.40195 15.6055 9.35262C15.6548 9.30329 15.6939 9.24472 15.7206 9.18027C15.7473 9.11582 15.7611 9.04673 15.7611 8.97697C15.7611 8.90721 15.7473 8.83812 15.7206 8.77367C15.6939 8.70921 15.6548 8.65065 15.6055 8.60132C15.5561 8.55199 15.4976 8.51286 15.4331 8.48616C15.3687 8.45946 15.2996 8.44572 15.2298 8.44572H15.1944ZM8.46523 13.6803C7.535 13.6803 6.62566 13.4045 5.8522 12.8876C5.07874 12.3708 4.47591 11.6363 4.11992 10.7769C3.76394 9.91744 3.6708 8.97175 3.85227 8.05939C4.03375 7.14704 4.4817 6.30898 5.13948 5.65121C5.79725 4.99344 6.6353 4.54549 7.54766 4.36401C8.46002 4.18253 9.4057 4.27567 10.2651 4.63166C11.1245 4.98764 11.8591 5.59048 12.3759 6.36394C12.8927 7.1374 13.1686 8.04674 13.1686 8.97697C13.1686 10.225 12.6733 11.4221 11.7914 12.3052C10.9096 13.1884 9.71329 13.6855 8.46523 13.6874V13.6803Z" fill="#ADADAD"/>
<path d="M11.6739 8.98708C11.6739 9.62341 11.4851 10.2454 11.1314 10.7744C10.7777 11.3034 10.2751 11.7156 9.68703 11.9588C9.099 12.202 8.45204 12.2653 7.82803 12.1406C7.20403 12.0159 6.63104 11.709 6.18158 11.2585C5.73212 10.8081 5.4264 10.2344 5.30312 9.61011C5.17984 8.98583 5.24453 8.33901 5.48902 7.75152C5.7335 7.16403 6.14679 6.66227 6.67656 6.30977C7.20633 5.95726 7.82877 5.76985 8.46511 5.77125C8.88708 5.77125 9.30491 5.85448 9.69468 6.01618C10.0844 6.17787 10.4385 6.41486 10.7365 6.71357C11.0346 7.01228 11.2708 7.36685 11.4316 7.75697C11.5925 8.14709 11.6748 8.56511 11.6739 8.98708Z" fill="#ADADAD"/>
</svg>
