<svg width="159" height="89" viewBox="0 0 159 89" fill="none" xmlns="http://www.w3.org/2000/svg">
<g clip-path="url(#clip0_3108_3159)">
<mask id="path-1-inside-1_3108_3159" fill="white">
<path d="M17.1295 38.8313C17.1295 38.8313 17.7424 36.9701 20.1374 36.9952H36.3052L44.6185 29.9024H17.997C17.997 29.9024 17.4627 29.8521 16.3406 30.4651C15.2186 31.0782 12.2861 32.8106 12.261 32.9898C12.2358 33.169 10.6046 34.1122 9.48252 37.0707L0.0219792 56.7489C-0.0251664 56.8463 0.00312097 56.9658 0.087983 57.0318L2.46098 58.8553C2.54584 58.9214 2.6527 58.956 2.75957 58.956H25.094C25.5403 58.956 25.9803 58.8365 26.3638 58.6133C27.5393 57.9279 30.1166 56.4188 30.7232 56.0478C31.5152 55.5636 32.7127 53.5483 32.7127 53.5483L34.5231 49.9516H33.6808L35.6577 45.7984H32.5964L33.0364 45.1098H35.9626L37.729 41.1673H22.8876L19.6062 47.7948H26.917L25.1883 51.3161C25.05 51.5959 24.764 51.7751 24.4497 51.7751H11.0195L17.1295 38.8281V38.8313Z"/>
</mask>
<path d="M17.1295 38.8313H-3.87047L37.0759 45.3995L17.1295 38.8313ZM20.1374 36.9952L19.9169 57.994L20.0272 57.9952H20.1374V36.9952ZM36.3052 36.9952V57.9952H44.0464L49.9354 52.9708L36.3052 36.9952ZM44.6185 29.9024L58.2487 45.8779L101.587 8.90237H44.6185V29.9024ZM17.997 29.9024L16.0287 50.8099L17.0107 50.9024H17.997V29.9024ZM9.48252 37.0707L28.4089 46.1697L28.7987 45.3589L29.1177 44.5177L9.48252 37.0707ZM0.0219792 56.7489L18.9264 65.8934L18.9374 65.8707L18.9483 65.848L0.0219792 56.7489ZM0.087983 57.0318L-12.8072 73.6063L-12.7576 73.645L-12.7077 73.6833L0.087983 57.0318ZM2.46098 58.8553L15.3562 42.2808L15.3065 42.2422L15.2567 42.2039L2.46098 58.8553ZM26.3638 58.6133L36.9289 76.762L36.9352 76.7584L36.9414 76.7547L26.3638 58.6133ZM30.7232 56.0478L19.7703 38.1303L19.7666 38.1326L30.7232 56.0478ZM32.7127 53.5483L50.7661 64.2757L51.1408 63.6451L51.4705 62.9899L32.7127 53.5483ZM34.5231 49.9516L53.2809 59.3932L68.6035 28.9516H34.5231V49.9516ZM33.6808 49.9516L14.7194 40.9258L0.42679 70.9516H33.6808V49.9516ZM35.6577 45.7984L54.6191 54.8242L68.9117 24.7984H35.6577V45.7984ZM32.5964 45.7984L14.9013 34.4898L-5.74631 66.7984H32.5964V45.7984ZM33.0364 45.1098V24.1098H21.5349L15.3413 33.8013L33.0364 45.1098ZM35.9626 45.1098V66.1098H49.5653L55.1271 53.6961L35.9626 45.1098ZM37.729 41.1673L56.8935 49.7535L70.149 20.1673H37.729V41.1673ZM22.8876 41.1673V20.1673H9.85188L4.06791 31.8495L22.8876 41.1673ZM19.6062 47.7948L0.786583 38.4771L-14.2239 68.7948H19.6062V47.7948ZM26.917 47.7948L45.7679 57.0492L60.6204 26.7948H26.917V47.7948ZM25.1883 51.3161L44.0145 60.6206L44.0269 60.5955L44.0392 60.5704L25.1883 51.3161ZM11.0195 51.7751L-7.97189 42.8125L-22.1122 72.7751H11.0195V51.7751ZM17.1295 38.8281H38.1295L-1.86182 29.8655L17.1295 38.8281ZM17.1295 38.8313C37.0759 45.3995 37.0722 45.4108 37.0684 45.4222C37.0672 45.426 37.0634 45.4373 37.0609 45.4449C37.0559 45.4601 37.0508 45.4752 37.0458 45.4904C37.0356 45.5208 37.0253 45.5512 37.015 45.5817C36.9943 45.6427 36.9732 45.704 36.9516 45.7655C36.9086 45.8885 36.8637 46.0128 36.817 46.1383C36.7237 46.3889 36.622 46.6465 36.511 46.9097C36.2905 47.4329 36.0247 47.9982 35.7022 48.59C35.0716 49.7471 34.1312 51.1754 32.7391 52.5969C29.5455 55.8581 24.9328 58.0467 19.9169 57.994L20.1374 36.9952L20.3579 15.9964C12.947 15.9185 6.83044 19.0252 2.7316 23.2107C0.886892 25.0944 -0.35644 26.9865 -1.17675 28.4917C-1.59417 29.2576 -1.9265 29.9682 -2.18993 30.593C-2.32237 30.9071 -2.43952 31.2046 -2.54299 31.4825C-2.59479 31.6216 -2.64337 31.7564 -2.6889 31.8864C-2.71167 31.9515 -2.73371 32.0154 -2.75502 32.0782C-2.76568 32.1096 -2.77616 32.1407 -2.78646 32.1715C-2.79162 32.1869 -2.79673 32.2022 -2.80179 32.2175C-2.80432 32.2251 -2.8081 32.2365 -2.80936 32.2404C-2.81312 32.2517 -2.81687 32.2631 17.1295 38.8313ZM20.1374 36.9952V57.9952H36.3052V36.9952V15.9952H20.1374V36.9952ZM36.3052 36.9952L49.9354 52.9708L58.2487 45.8779L44.6185 29.9024L30.9884 13.9268L22.6751 21.0196L36.3052 36.9952ZM44.6185 29.9024V8.90237H17.997V29.9024V50.9024H44.6185V29.9024ZM17.997 29.9024C19.9654 8.99482 19.9518 8.99354 19.9381 8.99227C19.9336 8.99185 19.92 8.99059 19.9109 8.98976C19.8927 8.9881 19.8745 8.98646 19.8563 8.98484C19.82 8.98161 19.7835 8.97846 19.7471 8.97541C19.6741 8.96931 19.601 8.96358 19.5277 8.95822C19.3812 8.9475 19.234 8.93827 19.0863 8.93055C18.7908 8.91511 18.4935 8.90575 18.1944 8.90258C17.5958 8.89624 16.9937 8.91474 16.3896 8.95818C15.1783 9.0453 13.9809 9.23108 12.8062 9.50589C10.4559 10.0557 8.27281 10.9431 6.27154 12.0365L16.3406 30.4651L26.4097 48.8937C25.5305 49.3741 24.1757 49.9801 22.373 50.4018C21.4721 50.6126 20.4784 50.7726 19.4024 50.85C18.8659 50.8886 18.3143 50.9062 17.7493 50.9002C17.4671 50.8972 17.1823 50.8884 16.8952 50.8734C16.7516 50.8659 16.6076 50.8568 16.4632 50.8463C16.3909 50.841 16.3186 50.8353 16.2462 50.8293C16.21 50.8262 16.1737 50.8231 16.1375 50.8199C16.1194 50.8183 16.1012 50.8166 16.0831 50.815C16.074 50.8141 16.0604 50.8129 16.0559 50.8125C16.0423 50.8112 16.0287 50.8099 17.997 29.9024ZM16.3406 30.4651L6.27154 12.0365C5.35905 12.5351 4.06067 13.2902 2.99166 13.9392C2.46614 14.2582 1.76929 14.6886 1.10813 15.1291C0.828614 15.3153 0.215081 15.7279 -0.467821 16.2573C-0.755821 16.4805 -1.52664 17.0839 -2.40367 17.9438C-2.82038 18.3524 -3.68982 19.233 -4.61695 20.4876C-5.10651 21.15 -7.7776 24.6714 -8.53533 30.0719L12.261 32.9898L33.0573 35.9077C32.6327 38.9337 31.6392 41.2016 31.0041 42.4575C30.3254 43.7995 29.6296 44.8145 29.1604 45.4494C28.2459 46.6869 27.3944 47.5475 27.0009 47.9334C26.1701 48.7479 25.466 49.2952 25.2627 49.4527C24.9649 49.6836 24.7348 49.8472 24.6299 49.921C24.5104 50.005 24.4269 50.061 24.3943 50.0827C24.3251 50.1288 24.4363 50.0542 24.7872 49.8411C25.4713 49.4259 26.2001 49.0083 26.4097 48.8937L16.3406 30.4651ZM12.261 32.9898L-8.53533 30.0719C-8.28974 28.3215 -7.85905 26.8602 -7.45017 25.7486C-7.03929 24.6317 -6.5928 23.7122 -6.21582 23.0155C-5.83506 22.3118 -5.4666 21.7275 -5.16193 21.2759C-4.85434 20.8199 -4.56922 20.4363 -4.33325 20.1332C-3.8747 19.5441 -3.47254 19.0938 -3.22007 18.8202C-2.95597 18.5339 -2.73469 18.3108 -2.59552 18.173C-2.45176 18.0307 -2.33636 17.9209 -2.27114 17.8594C-2.20417 17.7962 -2.15493 17.7507 -2.14005 17.737C-2.12588 17.724 -2.118 17.7168 -2.14013 17.737C-2.15449 17.7502 -2.19265 17.7851 -2.23336 17.8225C-2.64606 18.2016 -3.5093 19.0067 -4.49983 20.1352C-5.48617 21.259 -6.5232 22.6141 -7.51486 24.231C-8.50481 25.8451 -9.40039 27.6401 -10.1527 29.6236L9.48252 37.0707L29.1177 44.5177C28.7022 45.6132 28.0041 46.772 27.066 47.8408C26.6267 48.3413 26.2461 48.692 26.1814 48.7515C25.9455 48.9682 26.5361 48.4335 26.9563 48.0174C27.1783 47.7976 27.9576 47.026 28.8091 45.9321C29.2502 45.3655 29.9883 44.3614 30.7238 43.0022C31.4016 41.7493 32.5844 39.2776 33.0573 35.9077L12.261 32.9898ZM9.48252 37.0707L-9.44383 27.9716L-18.9044 47.6498L0.0219792 56.7489L18.9483 65.848L28.4089 46.1697L9.48252 37.0707ZM0.0219792 56.7489L-18.8824 47.6043C-23.2529 56.6393 -20.6926 67.4714 -12.8072 73.6063L0.087983 57.0318L12.9832 40.4573C20.6989 46.4603 23.2025 57.0534 18.9264 65.8934L0.0219792 56.7489ZM0.087983 57.0318L-12.7077 73.6833L-10.3347 75.5068L2.46098 58.8553L15.2567 42.2039L12.8837 40.3804L0.087983 57.0318ZM2.46098 58.8553L-10.4342 75.4299C-6.46106 78.521 -1.75612 79.956 2.75957 79.956V58.956V37.956C7.06153 37.956 11.5527 39.3217 15.3562 42.2808L2.46098 58.8553ZM2.75957 58.956V79.956H25.094V58.956V37.956H2.75957V58.956ZM25.094 58.956V79.956C29.2638 79.956 33.3478 78.8468 36.9289 76.762L26.3638 58.6133L15.7986 40.4645C18.6129 38.8262 21.8168 37.956 25.094 37.956V58.956ZM26.3638 58.6133L36.9414 76.7547C38.0069 76.1335 40.834 74.4802 41.6798 73.9629L30.7232 56.0478L19.7666 38.1326C19.7874 38.1199 19.7569 38.1386 19.6446 38.2057C19.5448 38.2653 19.4146 38.3426 19.2556 38.4367C18.9381 38.6246 18.5442 38.8566 18.1206 39.1054C17.2744 39.6024 16.3558 40.1396 15.7861 40.4718L26.3638 58.6133ZM30.7232 56.0478L41.676 73.9652C44.7158 72.107 46.655 69.8761 47.2103 69.238C48.0729 68.2467 48.7494 67.3245 49.171 66.7272C49.6244 66.0849 49.9956 65.5149 50.2466 65.1192C50.377 64.9137 50.4872 64.7358 50.5733 64.595C50.6166 64.5242 50.6546 64.4616 50.6867 64.4083C50.7028 64.3816 50.7175 64.3571 50.7307 64.335C50.7373 64.3239 50.7436 64.3134 50.7495 64.3036C50.7524 64.2986 50.7553 64.2938 50.758 64.2892C50.7594 64.2869 50.7608 64.2846 50.7621 64.2823C50.7628 64.2812 50.7638 64.2795 50.7641 64.279C50.7651 64.2773 50.7661 64.2757 32.7127 53.5483C14.6594 42.8209 14.6603 42.8193 14.6613 42.8177C14.6616 42.8171 14.6626 42.8155 14.6632 42.8145C14.6645 42.8123 14.6657 42.8102 14.667 42.8082C14.6694 42.804 14.6719 42.7999 14.6742 42.796C14.679 42.788 14.6835 42.7804 14.6878 42.7732C14.6965 42.7588 14.7043 42.7457 14.7114 42.7339C14.7256 42.7103 14.7371 42.6915 14.7461 42.6767C14.7637 42.648 14.7741 42.6313 14.7799 42.6223C14.7816 42.6196 14.8039 42.5837 14.8589 42.5057C14.8822 42.4728 15.1108 42.1452 15.5261 41.6679C15.634 41.5438 17.1266 39.7464 19.7703 38.1303L30.7232 56.0478ZM32.7127 53.5483L51.4705 62.9899L53.2809 59.3932L34.5231 49.9516L15.7653 40.5099L13.9549 44.1067L32.7127 53.5483ZM34.5231 49.9516V28.9516H33.6808V49.9516V70.9516H34.5231V49.9516ZM33.6808 49.9516L52.6422 58.9774L54.6191 54.8242L35.6577 45.7984L16.6963 36.7726L14.7194 40.9258L33.6808 49.9516ZM35.6577 45.7984V24.7984H32.5964V45.7984V66.7984H35.6577V45.7984ZM32.5964 45.7984L50.2915 57.1069L50.7316 56.4184L33.0364 45.1098L15.3413 33.8013L14.9013 34.4898L32.5964 45.7984ZM33.0364 45.1098V66.1098H35.9626V45.1098V24.1098H33.0364V45.1098ZM35.9626 45.1098L55.1271 53.6961L56.8935 49.7535L37.729 41.1673L18.5646 32.581L16.7982 36.5236L35.9626 45.1098ZM37.729 41.1673V20.1673H22.8876V41.1673V62.1673H37.729V41.1673ZM22.8876 41.1673L4.06791 31.8495L0.786583 38.4771L19.6062 47.7948L38.4259 57.1125L41.7072 50.485L22.8876 41.1673ZM19.6062 47.7948V68.7948H26.917V47.7948V26.7948H19.6062V47.7948ZM26.917 47.7948L8.06604 38.5405L6.33737 42.0617L25.1883 51.3161L44.0392 60.5704L45.7679 57.0492L26.917 47.7948ZM25.1883 51.3161L6.36208 42.0115C9.74621 35.1643 16.7356 30.7751 24.4497 30.7751V51.7751V72.7751C32.7923 72.7751 40.3538 68.0275 44.0145 60.6206L25.1883 51.3161ZM24.4497 51.7751V30.7751H11.0195V51.7751V72.7751H24.4497V51.7751ZM11.0195 51.7751L30.0108 60.7377L36.1209 47.7908L17.1295 38.8281L-1.86182 29.8655L-7.97189 42.8125L11.0195 51.7751ZM17.1295 38.8281H-3.87047V38.8313H17.1295H38.1295V38.8281H17.1295Z" fill="white" mask="url(#path-1-inside-1_3108_3159)"/>
<mask id="path-3-inside-2_3108_3159" fill="white">
<path d="M34.5232 49.9549L38.4709 41.136H39.1843L37.5782 45.0251L40.4415 45.0314L40.0864 45.7451L37.2545 45.7482L35.3404 49.958L34.5232 49.9549Z"/>
</mask>
<path d="M34.5232 49.9549L30.8723 48.3206L28.3608 53.9312L34.5078 53.9548L34.5232 49.9549ZM38.4709 41.136V37.136H35.8789L34.8199 39.5017L38.4709 41.136ZM39.1843 41.136L42.8815 42.6628L45.1639 37.136H39.1843V41.136ZM37.5782 45.0251L33.8811 43.4983L31.6041 49.012L37.5694 49.0251L37.5782 45.0251ZM40.4415 45.0314L44.0226 46.8135L46.893 41.0455L40.4503 41.0314L40.4415 45.0314ZM40.0864 45.7451L40.0908 49.7451L42.5651 49.7423L43.6674 47.5272L40.0864 45.7451ZM37.2545 45.7482L37.2501 41.7482L34.6779 41.7511L33.6132 44.0926L37.2545 45.7482ZM35.3404 49.958L35.325 53.958L37.9112 53.9679L38.9817 51.6136L35.3404 49.958ZM34.5232 49.9549L38.1741 51.5892L42.1218 42.7703L38.4709 41.136L34.8199 39.5017L30.8723 48.3206L34.5232 49.9549ZM38.4709 41.136V45.136H39.1843V41.136V37.136H38.4709V41.136ZM39.1843 41.136L35.4872 39.6092L33.8811 43.4983L37.5782 45.0251L41.2754 46.5519L42.8815 42.6628L39.1843 41.136ZM37.5782 45.0251L37.5694 49.0251L40.4328 49.0314L40.4415 45.0314L40.4503 41.0314L37.587 41.0251L37.5782 45.0251ZM40.4415 45.0314L36.8605 43.2493L36.5053 43.963L40.0864 45.7451L43.6674 47.5272L44.0226 46.8135L40.4415 45.0314ZM40.0864 45.7451L40.0819 41.7451L37.2501 41.7482L37.2545 45.7482L37.2589 49.7482L40.0908 49.7451L40.0864 45.7451ZM37.2545 45.7482L33.6132 44.0926L31.6991 48.3024L35.3404 49.958L38.9817 51.6136L40.8958 47.4038L37.2545 45.7482ZM35.3404 49.958L35.3558 45.958L34.5386 45.9549L34.5232 49.9549L34.5078 53.9548L35.325 53.958L35.3404 49.958Z" fill="white" mask="url(#path-3-inside-2_3108_3159)"/>
<mask id="path-5-inside-3_3108_3159" fill="white">
<path d="M46.8375 30.3457L38.2978 52.209C38.2978 52.209 36.8206 57.1293 41.6357 58.2895H60.472C60.472 58.2895 66.2363 58.148 68.8356 51.9983L76.5297 30.4526H67.7104L61.5972 48.345C61.5972 48.345 60.7894 50.8414 58.0833 51.8254H50.2477C50.2477 51.8254 47.8935 52.2813 48.211 49.2945L55.0974 30.374L46.8406 30.3488L46.8375 30.3457Z"/>
</mask>
<path d="M46.8375 30.3457L64.5245 12.6775L37.4756 -14.4004L23.5508 21.2501L46.8375 30.3457ZM38.2978 52.209L15.0111 43.1134L14.6439 44.0536L14.3537 45.0203L38.2978 52.209ZM41.6357 58.2895L35.7799 82.594L38.6665 83.2895H41.6357V58.2895ZM60.472 58.2895V83.2895H60.7787L61.0854 83.2819L60.472 58.2895ZM68.8356 51.9983L91.8631 61.7315L92.1401 61.0761L92.3794 60.406L68.8356 51.9983ZM76.5297 30.4526L100.074 38.8603L112.004 5.4526H76.5297V30.4526ZM67.7104 30.4526V5.4526H49.8331L44.0531 22.3697L67.7104 30.4526ZM61.5972 48.345L37.9399 40.2622L37.8741 40.4548L37.8114 40.6485L61.5972 48.345ZM58.0833 51.8254V76.8254H62.4877L66.6269 75.3202L58.0833 51.8254ZM50.2477 51.8254V26.8254H47.8493L45.4947 27.2814L50.2477 51.8254ZM48.211 49.2945L24.7186 40.7441L23.6738 43.6147L23.351 46.6523L48.211 49.2945ZM55.0974 30.374L78.5897 38.9244L90.7614 5.48253L55.1735 5.37412L55.0974 30.374ZM46.8406 30.3488L29.1535 48.0171L36.446 55.3173L46.7645 55.3487L46.8406 30.3488ZM46.8375 30.3457L23.5508 21.2501L15.0111 43.1134L38.2978 52.209L61.5845 61.3046L70.1242 39.4413L46.8375 30.3457ZM38.2978 52.209C14.3537 45.0203 14.3503 45.0316 14.3469 45.0429C14.3458 45.0467 14.3424 45.0581 14.3401 45.0657C14.3355 45.081 14.3309 45.0964 14.3263 45.112C14.3171 45.1431 14.3078 45.1748 14.2984 45.2071C14.2796 45.2716 14.2603 45.3383 14.2408 45.4073C14.2017 45.5453 14.1611 45.6926 14.1197 45.8488C14.0369 46.1605 13.9492 46.5121 13.8614 46.8998C13.6878 47.6662 13.5028 48.6211 13.3571 49.7257C13.0838 51.7968 12.853 55.0919 13.5112 58.9835C14.1868 62.978 15.9316 68.286 20.1527 73.1794C24.5314 78.2555 30.1601 81.24 35.7799 82.594L41.6357 58.2895L47.4915 33.9849C50.7038 34.7589 54.7115 36.6932 58.0129 40.5205C61.1567 44.165 62.368 48.0255 62.811 50.6449C63.2366 53.1614 63.0742 55.1539 62.9274 56.2661C62.8449 56.8914 62.7377 57.4528 62.6261 57.9456C62.5693 58.1964 62.5086 58.4412 62.4452 58.6803C62.4133 58.8002 62.3805 58.9197 62.3467 59.039C62.3298 59.0986 62.3126 59.1583 62.2952 59.2181C62.2864 59.2479 62.2777 59.2779 62.2688 59.3078C62.2644 59.3228 62.2599 59.3377 62.2554 59.3527C62.2532 59.3602 62.2498 59.3715 62.2487 59.3752C62.2454 59.3865 62.242 59.3977 38.2978 52.209ZM41.6357 58.2895V83.2895H60.472V58.2895V33.2895H41.6357V58.2895ZM60.472 58.2895C61.0854 83.2819 61.0983 83.2816 61.1112 83.2813C61.1156 83.2812 61.1286 83.2808 61.1373 83.2806C61.1547 83.2801 61.1723 83.2797 61.19 83.2792C61.2255 83.2781 61.2615 83.277 61.298 83.2758C61.3711 83.2734 61.4464 83.2706 61.5239 83.2674C61.6789 83.261 61.8427 83.2529 62.0151 83.2427C62.3595 83.2223 62.7401 83.1935 63.1533 83.1531C63.976 83.0728 64.9485 82.9448 66.0372 82.7399C68.1825 82.3362 70.9766 81.5967 74.0385 80.2026C80.5204 77.2514 87.7298 71.5103 91.8631 61.7315L68.8356 51.9983L45.8081 42.2652C47.342 38.636 50.3697 36.0405 53.3196 34.6974C54.6154 34.1074 55.806 33.7877 56.7893 33.6026C57.297 33.5071 57.7988 33.4382 58.2962 33.3896C58.5466 33.3652 58.8008 33.3454 59.0595 33.3301C59.1891 33.3224 59.3203 33.3158 59.4532 33.3103C59.5197 33.3076 59.5867 33.3051 59.6543 33.3029C59.688 33.3017 59.7219 33.3007 59.756 33.2997C59.773 33.2992 59.7901 33.2988 59.8072 33.2983C59.8157 33.2981 59.8286 33.2977 59.8328 33.2976C59.8457 33.2973 59.8586 33.297 60.472 58.2895ZM68.8356 51.9983L92.3794 60.406L100.074 38.8603L76.5297 30.4526L52.9859 22.0449L45.2918 43.5907L68.8356 51.9983ZM76.5297 30.4526V5.4526H67.7104V30.4526V55.4526H76.5297V30.4526ZM67.7104 30.4526L44.0531 22.3697L37.9399 40.2622L61.5972 48.345L85.2545 56.4279L91.3677 38.5355L67.7104 30.4526ZM61.5972 48.345C37.8114 40.6485 37.8147 40.6384 37.8179 40.6283C37.819 40.625 37.8223 40.6149 37.8244 40.6083C37.8288 40.5949 37.8332 40.5815 37.8376 40.5681C37.8463 40.5413 37.8551 40.5146 37.864 40.4879C37.8817 40.4344 37.8995 40.3811 37.9176 40.3278C37.9537 40.2213 37.9906 40.1149 38.0283 40.0087C38.1037 39.7964 38.1828 39.5835 38.266 39.37C38.4318 38.9451 38.6184 38.5065 38.8307 38.0578C39.2454 37.1813 39.8117 36.1526 40.5963 35.0675C42.1687 32.8929 45.0288 29.9709 49.5396 28.3306L58.0833 51.8254L66.6269 75.3202C73.8439 72.6959 78.4609 68.0337 81.1137 64.365C82.4385 62.5328 83.3759 60.8184 84.0266 59.4431C84.3569 58.745 84.6278 58.1037 84.8483 57.5384C84.9589 57.2548 85.0581 56.9873 85.1466 56.738C85.1909 56.6132 85.2326 56.4927 85.2719 56.3766C85.2916 56.3186 85.3107 56.2617 85.3292 56.2058C85.3384 56.1779 85.3475 56.1503 85.3565 56.1229C85.361 56.1092 85.3654 56.0956 85.3698 56.082C85.372 56.0753 85.3753 56.0652 85.3764 56.0618C85.3797 56.0517 85.3829 56.0416 61.5972 48.345ZM58.0833 51.8254V26.8254H50.2477V51.8254V76.8254H58.0833V51.8254ZM50.2477 51.8254C45.4947 27.2814 45.5091 27.2786 45.5235 27.2758C45.5283 27.2749 45.5427 27.2722 45.5523 27.2703C45.5716 27.2666 45.5909 27.263 45.6102 27.2593C45.649 27.252 45.688 27.2447 45.7272 27.2375C45.8057 27.2231 45.8852 27.2089 45.9657 27.1949C46.1267 27.167 46.2927 27.1398 46.4634 27.1139C46.8036 27.0621 47.17 27.014 47.5604 26.9734C48.3253 26.8938 49.2646 26.8345 50.3401 26.8541C52.2786 26.8894 55.8133 27.1966 59.7921 29.077C64.2613 31.189 68.524 34.9651 71.05 40.3781C73.3613 45.331 73.3086 49.7006 73.071 51.9367L48.211 49.2945L23.351 46.6523C22.9546 50.3818 23.0772 55.8145 25.7406 61.5219C28.6187 67.6895 33.4104 71.9116 38.4284 74.2831C42.9561 76.4228 47.0595 76.8027 49.4294 76.8458C50.7207 76.8694 51.8414 76.7978 52.7338 76.705C53.188 76.6578 53.6047 76.6027 53.9792 76.5458C54.1671 76.5172 54.3462 76.4879 54.5161 76.4584C54.6011 76.4436 54.684 76.4288 54.7647 76.414C54.8051 76.4066 54.8449 76.3991 54.8842 76.3917C54.9039 76.388 54.9234 76.3843 54.9428 76.3806C54.9525 76.3787 54.967 76.3759 54.9718 76.375C54.9862 76.3722 55.0006 76.3695 50.2477 51.8254ZM48.211 49.2945L71.7033 57.8449L78.5897 38.9244L55.0974 30.374L31.605 21.8236L24.7186 40.7441L48.211 49.2945ZM55.0974 30.374L55.1735 5.37412L46.9168 5.34896L46.8406 30.3488L46.7645 55.3487L55.0212 55.3739L55.0974 30.374ZM46.8406 30.3488L64.5277 12.6806L64.5245 12.6775L46.8375 30.3457L29.1504 48.014L29.1535 48.0171L46.8406 30.3488Z" fill="white" mask="url(#path-5-inside-3_3108_3159)"/>
<mask id="path-7-inside-4_3108_3159" fill="white">
<path d="M70.6963 58.538H79.5157L85.1386 41.6988L94.1685 58.4311H102.988L112.018 30.3459H103.271L98.0344 46.726L89.3879 30.3113H80.1474L70.6963 58.538Z"/>
</mask>
<path d="M70.6963 58.538L53.6277 52.8229L45.6872 76.538H70.6963V58.538ZM79.5157 58.538V76.538H92.4821L96.589 64.2391L79.5157 58.538ZM85.1386 41.6988L100.979 33.1502L81.2335 -3.43794L68.0652 35.9977L85.1386 41.6988ZM94.1685 58.4311L78.328 66.9798L83.4286 76.4311H94.1685V58.4311ZM102.988 58.4311V76.4311H116.108L120.124 63.9407L102.988 58.4311ZM112.018 30.3459L129.154 35.8554L136.713 12.3459H112.018V30.3459ZM103.271 30.3459V12.3459H90.1275L86.1255 24.865L103.271 30.3459ZM98.0344 46.726L82.1088 55.1149L102.111 93.0879L115.18 52.2069L98.0344 46.726ZM89.3879 30.3113L105.314 21.9224L100.251 12.3113H89.3879V30.3113ZM80.1474 30.3113V12.3113H67.1921L63.0788 24.5962L80.1474 30.3113ZM70.6963 58.538V76.538H79.5157V58.538V40.538H70.6963V58.538ZM79.5157 58.538L96.589 64.2391L102.212 47.3999L85.1386 41.6988L68.0652 35.9977L62.4424 52.8369L79.5157 58.538ZM85.1386 41.6988L69.2981 50.2474L78.328 66.9798L94.1685 58.4311L110.009 49.8825L100.979 33.1502L85.1386 41.6988ZM94.1685 58.4311V76.4311H102.988V58.4311V40.4311H94.1685V58.4311ZM102.988 58.4311L120.124 63.9407L129.154 35.8554L112.018 30.3459L94.8817 24.8363L85.8518 52.9215L102.988 58.4311ZM112.018 30.3459V12.3459H103.271V30.3459V48.3459H112.018V30.3459ZM103.271 30.3459L86.1255 24.865L80.8892 41.2452L98.0344 46.726L115.18 52.2069L120.416 35.8267L103.271 30.3459ZM98.0344 46.726L113.96 38.3372L105.314 21.9224L89.3879 30.3113L73.4623 38.7002L82.1088 55.1149L98.0344 46.726ZM89.3879 30.3113V12.3113H80.1474V30.3113V48.3113H89.3879V30.3113ZM80.1474 30.3113L63.0788 24.5962L53.6277 52.8229L70.6963 58.538L87.7649 64.2531L97.216 36.0263L80.1474 30.3113Z" fill="white" mask="url(#path-7-inside-4_3108_3159)"/>
<mask id="path-9-inside-5_3108_3159" fill="white">
<path d="M107.134 58.5725L116.163 30.3835H124.948C124.948 30.3835 116.27 58.3273 116.27 58.4342C116.27 58.5411 107.134 58.5757 107.134 58.5757V58.5725Z"/>
</mask>
<path d="M107.134 58.5725L92.8486 53.9965L92.1335 56.2287V58.5725H107.134ZM116.163 30.3835V15.3835H105.218L101.879 25.8076L116.163 30.3835ZM124.948 30.3835L139.273 34.8322L145.313 15.3835H124.948V30.3835ZM107.134 58.5757H92.1335V73.6326L107.19 73.5756L107.134 58.5757ZM107.134 58.5725L121.419 63.1485L130.448 34.9595L116.163 30.3835L101.879 25.8076L92.8486 53.9965L107.134 58.5725ZM116.163 30.3835V45.3835H124.948V30.3835V15.3835H116.163V30.3835ZM124.948 30.3835C110.623 25.9349 110.623 25.935 110.623 25.9352C110.623 25.9354 110.623 25.9358 110.623 25.9362C110.622 25.937 110.622 25.9383 110.622 25.94C110.621 25.9434 110.619 25.9485 110.617 25.9553C110.613 25.9687 110.606 25.9888 110.598 26.0153C110.582 26.0683 110.557 26.1468 110.526 26.2492C110.462 26.4541 110.369 26.7545 110.25 27.1369C110.013 27.9016 109.673 28.9941 109.266 30.3053C108.453 32.9277 107.367 36.4259 106.282 39.9279C105.197 43.4287 104.11 46.9379 103.294 49.5807C102.886 50.9004 102.544 52.0131 102.302 52.8032C102.181 53.1952 102.081 53.525 102.008 53.7665C101.973 53.8815 101.935 54.0092 101.901 54.1244C101.887 54.1726 101.856 54.2789 101.822 54.4027C101.808 54.4517 101.767 54.6012 101.719 54.7906C101.699 54.873 101.645 55.089 101.587 55.3666C101.557 55.513 101.489 55.8823 101.452 56.106C101.397 56.4855 101.291 57.649 101.27 58.4342H116.27H131.27C131.25 59.219 131.143 60.3819 131.089 60.7605C131.052 60.9834 130.984 61.3516 130.954 61.4967C130.897 61.7718 130.844 61.9845 130.825 62.0627C130.779 62.2436 130.741 62.3814 130.732 62.4153C130.717 62.4701 130.705 62.5107 130.7 62.5278C130.694 62.5477 130.69 62.5607 130.689 62.5642C130.689 62.5674 130.699 62.5322 130.728 62.4367C130.782 62.257 130.868 61.9756 130.985 61.5932C131.217 60.8347 131.553 59.7467 131.959 58.4317C132.77 55.8049 133.852 52.3082 134.937 48.8097C136.021 45.3124 137.105 41.8179 137.918 39.1975C138.325 37.8874 138.664 36.7959 138.901 36.032C139.019 35.6501 139.113 35.3501 139.176 35.1455C139.208 35.0433 139.232 34.9649 139.249 34.9121C139.257 34.8857 139.263 34.8657 139.267 34.8523C139.269 34.8456 139.271 34.8406 139.272 34.8372C139.272 34.8356 139.273 34.8343 139.273 34.8335C139.273 34.833 139.273 34.8327 139.273 34.8325C139.273 34.8323 139.273 34.8322 124.948 30.3835ZM116.27 58.4342H101.27C101.27 54.9126 102.488 52.0606 103.801 50.0975C105.036 48.2496 106.419 47.0713 107.294 46.4177C108.212 45.7322 109.038 45.2801 109.589 45.006C110.165 44.7199 110.665 44.5177 111.03 44.3819C111.739 44.118 112.324 43.9622 112.651 43.881C113.011 43.792 113.31 43.7322 113.514 43.6946C114.195 43.5684 114.726 43.5227 114.8 43.5159C115.094 43.489 115.28 43.4827 115.207 43.486C115.139 43.489 114.925 43.4962 114.523 43.5048C113.757 43.5212 112.687 43.5348 111.557 43.5457C110.442 43.5565 109.321 43.564 108.475 43.5689C108.053 43.5713 107.702 43.573 107.457 43.5741C107.334 43.5747 107.238 43.5751 107.174 43.5754C107.141 43.5755 107.116 43.5756 107.1 43.5757C107.092 43.5757 107.086 43.5758 107.082 43.5758C107.08 43.5758 107.079 43.5758 107.078 43.5758C107.077 43.5758 107.077 43.5758 107.077 43.5758C107.077 43.5758 107.077 43.5758 107.077 43.5758C107.077 43.5758 107.077 43.5758 107.134 58.5757C107.19 73.5756 107.19 73.5756 107.191 73.5756C107.191 73.5756 107.191 73.5756 107.191 73.5756C107.191 73.5756 107.192 73.5756 107.193 73.5756C107.194 73.5756 107.196 73.5756 107.198 73.5755C107.203 73.5755 107.21 73.5755 107.219 73.5755C107.238 73.5754 107.264 73.5753 107.299 73.5751C107.368 73.5748 107.468 73.5744 107.595 73.5738C107.85 73.5727 108.213 73.5709 108.647 73.5684C109.515 73.5634 110.678 73.5556 111.846 73.5443C113.002 73.5332 114.215 73.5182 115.163 73.498C115.617 73.4883 116.117 73.4753 116.548 73.456C116.726 73.4481 117.108 73.4301 117.535 73.391C117.676 73.378 118.258 73.326 118.975 73.1934C119.218 73.1483 120.25 72.9609 121.498 72.4965C122.033 72.2971 123.57 71.705 125.243 70.4557C126.529 69.4955 131.27 65.6036 131.27 58.4342H116.27ZM107.134 58.5757H122.134V58.5725H107.134H92.1335V58.5757H107.134Z" fill="white" mask="url(#path-9-inside-5_3108_3159)"/>
<mask id="path-11-inside-6_3108_3159" fill="white">
<path d="M128.148 30.2419H159L156.963 37.5517H146.387L139.884 58.4655H130.502L137.109 37.4825H125.863L128.148 30.2419Z"/>
</mask>
<path d="M128.148 30.2419V8.24194H112.021L107.168 23.6211L128.148 30.2419ZM159 30.2419L180.193 36.1468L187.968 8.24194H159V30.2419ZM156.963 37.5517V59.5517H173.672L178.156 43.4566L156.963 37.5517ZM146.387 37.5517V15.5517H130.189L125.379 31.0195L146.387 37.5517ZM139.884 58.4655V80.4655H156.082L160.892 64.9977L139.884 58.4655ZM130.502 58.4655L109.518 51.8584L100.511 80.4655H130.502V58.4655ZM137.109 37.4825L158.093 44.0897L167.1 15.4825H137.109V37.4825ZM125.863 37.4825L104.883 30.8617L95.8508 59.4825H125.863V37.4825ZM128.148 30.2419V52.2419H159V30.2419V8.24194H128.148V30.2419ZM159 30.2419L137.807 24.3371L135.771 31.6469L156.963 37.5517L178.156 43.4566L180.193 36.1468L159 30.2419ZM156.963 37.5517V15.5517H146.387V37.5517V59.5517H156.963V37.5517ZM146.387 37.5517L125.379 31.0195L118.876 51.9333L139.884 58.4655L160.892 64.9977L167.395 44.0839L146.387 37.5517ZM139.884 58.4655V36.4655H130.502V58.4655V80.4655H139.884V58.4655ZM130.502 58.4655L151.487 65.0726L158.093 44.0897L137.109 37.4825L116.124 30.8754L109.518 51.8584L130.502 58.4655ZM137.109 37.4825V15.4825H125.863V37.4825V59.4825H137.109V37.4825ZM125.863 37.4825L146.843 44.1034L149.128 36.8628L128.148 30.2419L107.168 23.6211L104.883 30.8617L125.863 37.4825Z" fill="white" mask="url(#path-11-inside-6_3108_3159)"/>
</g>
<defs>
<clipPath id="clip0_3108_3159">
<rect width="159" height="89" fill="white"/>
</clipPath>
</defs>
</svg>
