<svg width="28" height="28" viewBox="0 0 28 28" fill="none" xmlns="http://www.w3.org/2000/svg">
<path fill-rule="evenodd" clip-rule="evenodd" d="M14 1.45837C14.232 1.45837 14.4546 1.55056 14.6187 1.71466C14.7828 1.87875 14.875 2.10131 14.875 2.33337V3.50004C14.875 3.73211 14.7828 3.95467 14.6187 4.11876C14.4546 4.28285 14.232 4.37504 14 4.37504C13.7679 4.37504 13.5454 4.28285 13.3813 4.11876C13.2172 3.95467 13.125 3.73211 13.125 3.50004V2.33337C13.125 2.10131 13.2172 1.87875 13.3813 1.71466C13.5454 1.55056 13.7679 1.45837 14 1.45837ZM5.13215 5.13221C5.29621 4.96835 5.5186 4.87631 5.75048 4.87631C5.98236 4.87631 6.20475 4.96835 6.36881 5.13221L6.82731 5.58954C6.98678 5.75449 7.07508 5.97548 7.0732 6.2049C7.07131 6.43433 6.97939 6.65383 6.81724 6.81614C6.65508 6.97845 6.43566 7.07058 6.20624 7.07268C5.97682 7.07478 5.75575 6.98669 5.59065 6.82737L5.13215 6.36887C4.96829 6.20481 4.87625 5.98242 4.87625 5.75054C4.87625 5.51867 4.96829 5.29627 5.13215 5.13221ZM22.8678 5.13221C23.0317 5.29627 23.1237 5.51867 23.1237 5.75054C23.1237 5.98242 23.0317 6.20481 22.8678 6.36887L22.4093 6.82737C22.2434 6.98193 22.0241 7.06608 21.7974 7.06208C21.5707 7.05808 21.3544 6.96625 21.1941 6.80593C21.0338 6.64562 20.9419 6.42934 20.9379 6.20265C20.9339 5.97597 21.0181 5.75658 21.1726 5.59071L21.6311 5.13221C21.7952 4.96835 22.0176 4.87631 22.2495 4.87631C22.4814 4.87631 22.7038 4.96835 22.8678 5.13221ZM14 7.87504C12.3755 7.87504 10.8176 8.52035 9.66895 9.66901C8.52029 10.8177 7.87498 12.3756 7.87498 14C7.87498 15.6245 8.52029 17.1824 9.66895 18.3311C10.8176 19.4797 12.3755 20.125 14 20.125C15.6244 20.125 17.1823 19.4797 18.331 18.3311C19.4797 17.1824 20.125 15.6245 20.125 14C20.125 12.3756 19.4797 10.8177 18.331 9.66901C17.1823 8.52035 15.6244 7.87504 14 7.87504ZM6.12498 14C6.12498 11.9115 6.95467 9.90842 8.43151 8.43158C9.90836 6.95473 11.9114 6.12504 14 6.12504C16.0886 6.12504 18.0916 6.95473 19.5684 8.43158C21.0453 9.90842 21.875 11.9115 21.875 14C21.875 16.0886 21.0453 18.0917 19.5684 19.5685C18.0916 21.0454 16.0886 21.875 14 21.875C11.9114 21.875 9.90836 21.0454 8.43151 19.5685C6.95467 18.0917 6.12498 16.0886 6.12498 14ZM1.45831 14C1.45831 13.768 1.5505 13.5454 1.71459 13.3813C1.87869 13.2172 2.10125 13.125 2.33331 13.125H3.49998C3.73204 13.125 3.9546 13.2172 4.1187 13.3813C4.28279 13.5454 4.37498 13.768 4.37498 14C4.37498 14.2321 4.28279 14.4547 4.1187 14.6188C3.9546 14.7829 3.73204 14.875 3.49998 14.875H2.33331C2.10125 14.875 1.87869 14.7829 1.71459 14.6188C1.5505 14.4547 1.45831 14.2321 1.45831 14ZM23.625 14C23.625 13.768 23.7172 13.5454 23.8813 13.3813C24.0454 13.2172 24.2679 13.125 24.5 13.125H25.6666C25.8987 13.125 26.1213 13.2172 26.2854 13.3813C26.4495 13.5454 26.5416 13.768 26.5416 14C26.5416 14.2321 26.4495 14.4547 26.2854 14.6188C26.1213 14.7829 25.8987 14.875 25.6666 14.875H24.5C24.2679 14.875 24.0454 14.7829 23.8813 14.6188C23.7172 14.4547 23.625 14.2321 23.625 14ZM21.1726 21.1727C21.3367 21.0089 21.5591 20.9168 21.791 20.9168C22.0229 20.9168 22.2453 21.0089 22.4093 21.1727L22.8678 21.6312C22.9538 21.7113 23.0227 21.8079 23.0706 21.9152C23.1184 22.0226 23.1441 22.1384 23.1462 22.2559C23.1482 22.3734 23.1266 22.4901 23.0826 22.5991C23.0386 22.708 22.9731 22.807 22.89 22.8901C22.8069 22.9732 22.708 23.0387 22.599 23.0827C22.4901 23.1267 22.3734 23.1483 22.2559 23.1462C22.1384 23.1442 22.0225 23.1184 21.9152 23.0706C21.8079 23.0228 21.7113 22.9538 21.6311 22.8679L21.1726 22.4094C21.0088 22.2453 20.9168 22.0229 20.9168 21.791C20.9168 21.5592 21.0088 21.3368 21.1726 21.1727ZM6.82731 21.1727C6.99117 21.3368 7.08321 21.5592 7.08321 21.791C7.08321 22.0229 6.99117 22.2453 6.82731 22.4094L6.36881 22.8679C6.28871 22.9538 6.19211 23.0228 6.08477 23.0706C5.97744 23.1184 5.86158 23.1442 5.74409 23.1462C5.6266 23.1483 5.5099 23.1267 5.40095 23.0827C5.292 23.0387 5.19302 22.9732 5.10993 22.8901C5.02685 22.807 4.96134 22.708 4.91734 22.5991C4.87333 22.4901 4.85172 22.3734 4.85379 22.2559C4.85586 22.1384 4.88158 22.0226 4.9294 21.9152C4.97723 21.8079 5.04618 21.7113 5.13215 21.6312L5.58948 21.1727C5.67074 21.0914 5.76722 21.0269 5.87342 20.9829C5.97962 20.9389 6.09344 20.9162 6.2084 20.9162C6.32335 20.9162 6.43718 20.9389 6.54337 20.9829C6.64957 21.0269 6.74606 21.0914 6.82731 21.1727ZM14 23.625C14.232 23.625 14.4546 23.7172 14.6187 23.8813C14.7828 24.0454 14.875 24.268 14.875 24.5V25.6667C14.875 25.8988 14.7828 26.1213 14.6187 26.2854C14.4546 26.4495 14.232 26.5417 14 26.5417C13.7679 26.5417 13.5454 26.4495 13.3813 26.2854C13.2172 26.1213 13.125 25.8988 13.125 25.6667V24.5C13.125 24.268 13.2172 24.0454 13.3813 23.8813C13.5454 23.7172 13.7679 23.625 14 23.625Z" fill="#0B0B09"/>
</svg>
