<svg width="15" height="15" viewBox="0 0 15 15" fill="none" xmlns="http://www.w3.org/2000/svg">
<path d="M9.375 11.875C10.125 9.57625 10.9538 8.74687 13.125 8.125C10.9538 7.50313 10.125 6.67375 9.375 4.375C8.625 6.67375 7.79625 7.50313 5.625 8.125C7.79625 8.74687 8.625 9.57625 9.375 11.875ZM4.375 6.25C4.75 5.1 5.16438 4.68563 6.25 4.375C5.16438 4.06437 4.75 3.65 4.375 2.5C4 3.65 3.58562 4.06437 2.5 4.375C3.58562 4.68563 4 5.1 4.375 6.25ZM5.3125 12.5C5.5 11.925 5.70687 11.7181 6.25 11.5625C5.70687 11.4069 5.5 11.2 5.3125 10.625C5.125 11.2 4.91813 11.4069 4.375 11.5625C4.91813 11.7181 5.125 11.925 5.3125 12.5Z" stroke="white" stroke-linejoin="round"/>
</svg>
