<svg width="16" height="16" viewBox="0 0 16 16" fill="none" xmlns="http://www.w3.org/2000/svg">
<g clip-path="url(#clip0_1742_2494)">
<path d="M13.9998 8.00033C13.9998 4.68662 11.3135 2.00033 7.99984 2.00033C4.68613 2.00033 1.99984 4.68662 1.99984 8.00033C1.99984 11.314 4.68613 14.0003 7.99984 14.0003C11.3135 14.0003 13.9998 11.314 13.9998 8.00033ZM15.3332 8.00033C15.3332 12.0504 12.0499 15.3337 7.99984 15.3337C3.94975 15.3337 0.666504 12.0504 0.666504 8.00033C0.666504 3.95024 3.94975 0.666992 7.99984 0.666992C12.0499 0.666992 15.3332 3.95024 15.3332 8.00033Z" fill="#8B9C62"/>
<path d="M7.3335 3.99967C7.3335 3.63148 7.63197 3.33301 8.00016 3.33301C8.36835 3.33301 8.66683 3.63148 8.66683 3.99967V7.58757L10.965 8.73665C11.2943 8.90131 11.4278 9.30187 11.2632 9.63119C11.0985 9.9605 10.698 10.094 10.3687 9.92936L7.70199 8.59603C7.47613 8.4831 7.3335 8.25219 7.3335 7.99967V3.99967Z" fill="#8B9C62"/>
</g>
<defs>
<clipPath id="clip0_1742_2494">
<rect width="16" height="16" fill="white"/>
</clipPath>
</defs>
</svg>
