<svg width="11" height="11" viewBox="0 0 11 11" fill="none" xmlns="http://www.w3.org/2000/svg">
<g clip-path="url(#clip0_1865_1092)">
<path d="M10.0833 3.6665C10.0833 3.54495 10.035 3.4284 9.94906 3.34245C9.8631 3.25649 9.74656 3.20817 9.625 3.20817H7.79167C7.63842 3.20817 7.49532 3.13158 7.41032 3.00407L6.62972 1.83317H4.37028L3.58968 3.00407C3.50468 3.13158 3.36158 3.20817 3.20833 3.20817H1.375C1.25344 3.20817 1.1369 3.25649 1.05094 3.34245C0.96499 3.4284 0.916667 3.54495 0.916667 3.6665V8.70817C0.916667 8.82973 0.96499 8.94627 1.05094 9.03223C1.1369 9.11818 1.25344 9.1665 1.375 9.1665H9.625C9.74656 9.1665 9.8631 9.11818 9.94906 9.03223C10.035 8.94627 10.0833 8.82973 10.0833 8.70817V3.6665ZM11 8.70817C11 9.07284 10.855 9.42248 10.5972 9.68034C10.3393 9.9382 9.98967 10.0832 9.625 10.0832H1.375C1.01033 10.0832 0.660694 9.9382 0.402832 9.68034C0.14497 9.42247 0 9.07284 0 8.70817V3.6665C0 3.30183 0.14497 2.9522 0.402832 2.69434C0.660695 2.43647 1.01033 2.2915 1.375 2.2915H2.96305L3.74365 1.12061L3.77812 1.0754C3.86455 0.975247 3.99086 0.916504 4.125 0.916504H6.875C7.02825 0.916504 7.17134 0.993098 7.25635 1.12061L8.03695 2.2915H9.625C9.98967 2.2915 10.3393 2.43647 10.5972 2.69434C10.855 2.9522 11 3.30183 11 3.6665V8.70817Z" fill="#1A1A1A"/>
<path d="M6.87516 5.95817C6.87516 5.19878 6.25955 4.58317 5.50016 4.58317C4.74077 4.58317 4.12516 5.19878 4.12516 5.95817C4.12516 6.71756 4.74077 7.33317 5.50016 7.33317C6.25955 7.33317 6.87516 6.71756 6.87516 5.95817ZM7.79183 5.95817C7.79183 7.22382 6.76582 8.24984 5.50016 8.24984C4.23451 8.24984 3.2085 7.22382 3.2085 5.95817C3.2085 4.69252 4.23451 3.6665 5.50016 3.6665C6.76582 3.6665 7.79183 4.69252 7.79183 5.95817Z" fill="#1A1A1A"/>
</g>
<defs>
<clipPath id="clip0_1865_1092">
<rect width="11" height="11" fill="white"/>
</clipPath>
</defs>
</svg>
