<svg width="28" height="28" viewBox="0 0 28 28" fill="none" xmlns="http://www.w3.org/2000/svg">
<path d="M24.7916 14C24.7916 16.8622 23.6547 19.6071 21.6308 21.6309C19.607 23.6547 16.8621 24.7917 14 24.7917V26.5417C20.9265 26.5417 26.5416 20.9265 26.5416 14H24.7916ZM14 24.7917C11.1379 24.7917 8.39295 23.6547 6.36912 21.6309C4.34529 19.6071 3.20831 16.8622 3.20831 14H1.45831C1.45831 20.9265 7.07348 26.5417 14 26.5417V24.7917ZM3.20831 14C3.20831 11.1379 4.34529 8.39301 6.36912 6.36918C8.39295 4.34535 11.1379 3.20837 14 3.20837V1.45837C7.07348 1.45837 1.45831 7.07354 1.45831 14H3.20831ZM18.0833 16.625C16.3042 16.625 14.5979 15.9183 13.3398 14.6602C12.0817 13.4022 11.375 11.6959 11.375 9.91671H9.62498C9.62498 12.16 10.5161 14.3114 12.1024 15.8977C13.6886 17.4839 15.84 18.375 18.0833 18.375V16.625ZM23.8291 13.3805C23.2322 14.3706 22.3895 15.1896 21.3827 15.7581C20.376 16.3266 19.2394 16.6252 18.0833 16.625V18.375C19.5409 18.3755 20.9739 17.9992 22.2433 17.2828C23.5127 16.5663 24.5754 15.534 25.3283 14.2859L23.8291 13.3805ZM11.375 9.91671C11.3748 8.76057 11.6734 7.62401 12.2419 6.61729C12.8104 5.61056 13.6294 4.76784 14.6195 4.17087L13.7141 2.67287C12.4662 3.42571 11.434 4.48821 10.7175 5.75738C10.0011 7.02654 9.62475 8.45929 9.62498 9.91671H11.375ZM14 3.20837C13.9413 3.20725 13.8835 3.1945 13.8299 3.17087C13.7762 3.14724 13.7277 3.11319 13.6873 3.07071C13.6381 3.0213 13.6048 2.95833 13.5916 2.88987C13.587 2.85371 13.5893 2.74871 13.7141 2.67287L14.6195 4.17087C15.2063 3.81621 15.3953 3.16637 15.3265 2.65537C15.2541 2.12454 14.8365 1.45837 14 1.45837V3.20837ZM25.3283 14.2859C25.2513 14.4107 25.1463 14.413 25.1101 14.4084C25.0417 14.3952 24.9787 14.3619 24.9293 14.3127C24.8868 14.2723 24.8528 14.2238 24.8292 14.1702C24.8055 14.1165 24.7928 14.0587 24.7916 14H26.5416C26.5416 13.1635 25.8755 12.7459 25.3446 12.6735C24.8336 12.6047 24.1838 12.7937 23.8291 13.3805L25.3283 14.2859Z" fill="black"/>
</svg>
