<svg width="16" height="15" viewBox="0 0 16 15" fill="none" xmlns="http://www.w3.org/2000/svg">
<path d="M7.79153 0C8.06113 0 8.3072 0.153222 8.42654 0.394979L10.4499 4.49487L14.9772 5.15686C15.244 5.19585 15.4655 5.38327 15.5486 5.63969C15.6316 5.89606 15.5618 6.17728 15.3688 6.36532L12.0941 9.5542L12.8675 14.0608C12.913 14.3266 12.8034 14.5955 12.5852 14.7539C12.3672 14.9123 12.0781 14.9333 11.8395 14.8079L7.79153 12.6788L3.74351 14.8079C3.50494 14.9333 3.2159 14.9123 2.99783 14.7539C2.77968 14.5955 2.67002 14.3266 2.7156 14.0608L3.48826 9.5542L0.214298 6.36532C0.021245 6.17728 -0.0485907 5.89606 0.0344474 5.63969C0.11759 5.38327 0.339088 5.19585 0.605818 5.15686L5.13251 4.49487L7.15652 0.394979L7.20701 0.308512C7.33778 0.117271 7.55563 0 7.79153 0ZM6.2379 5.45569C6.13482 5.66451 5.93569 5.80935 5.70527 5.84306L2.22931 6.35079L4.74376 8.80021C4.91077 8.96288 4.98713 9.19713 4.94782 9.42692L4.35431 12.8856L7.46157 11.2517C7.66797 11.1432 7.91509 11.1432 8.12148 11.2517L11.2281 12.8856L10.6352 9.42692C10.5959 9.19713 10.6723 8.96288 10.8393 8.80021L13.3531 6.35079L9.87779 5.84306C9.64737 5.80935 9.44824 5.66451 9.34516 5.45569L7.79153 2.30762L6.2379 5.45569Z" fill="#1A1A1A"/>
</svg>
