<svg width="7" height="7" viewBox="0 0 7 7" fill="none" xmlns="http://www.w3.org/2000/svg">
<path d="M6.56262 3.0625C6.80425 3.0625 7.00013 3.25838 7.00013 3.5C7.00013 3.74163 6.80425 3.93751 6.56262 3.93751H0.437508C0.195879 3.93751 0 3.74163 0 3.5C0 3.25838 0.195879 3.0625 0.437508 3.0625H6.56262Z" fill="#E9E9E9"/>
<path d="M3.19064 0.128142C3.3615 -0.042714 3.63845 -0.042714 3.80931 0.128142L6.87186 3.19067C7.04272 3.36153 7.04272 3.63847 6.87186 3.80933L3.80931 6.87186C3.63845 7.04271 3.3615 7.04271 3.19064 6.87186C3.01979 6.701 3.01979 6.42406 3.19064 6.2532L5.94387 3.5L3.19064 0.7468C3.01979 0.575944 3.01979 0.298998 3.19064 0.128142Z" fill="#E9E9E9"/>
</svg>
