<svg width="14" height="16" viewBox="0 0 14 16" fill="none" xmlns="http://www.w3.org/2000/svg">
<path d="M11.8611 15.9726C11.5694 16.0107 2.42179 16.0084 2.14525 15.9699C1.76504 15.9172 1.58527 15.8672 1.34153 15.7462C1.20637 15.6792 1.09057 15.6129 1.08467 15.5993C1.07843 15.5858 1.05285 15.5745 1.02726 15.5745C1.00167 15.5745 0.980675 15.5592 0.980675 15.5403C0.980675 15.5214 0.95804 15.4973 0.930483 15.4866C0.848799 15.4548 0.541089 15.1346 0.497458 15.0358C0.475479 14.9858 0.442018 14.9447 0.423647 14.9447C0.405276 14.9447 0.390187 14.9225 0.390187 14.895C0.390187 14.8675 0.373128 14.8452 0.351804 14.8452C0.330809 14.8452 0.32228 14.8366 0.33245 14.826C0.342947 14.8157 0.307846 14.7176 0.254046 14.6089C0.0460632 14.1846 0.0267077 14.002 0.00636862 12.2555C-0.0133143 10.5878 0.00899353 10.1181 0.124795 9.74158C0.158256 9.63319 0.177282 9.53673 0.167441 9.52678C0.157599 9.51684 0.16777 9.50855 0.189749 9.50855C0.212056 9.50855 0.220913 9.49364 0.209759 9.4754C0.198606 9.45717 0.206151 9.44226 0.226162 9.44226C0.246173 9.44226 0.253718 9.42734 0.242564 9.40911C0.231411 9.39088 0.238956 9.37596 0.258967 9.37596C0.278978 9.37596 0.286523 9.36105 0.275369 9.34282C0.264216 9.32458 0.270777 9.30967 0.289804 9.30967C0.30883 9.30967 0.324577 9.28879 0.324577 9.26359C0.324577 9.23807 0.346556 9.20857 0.373784 9.19829C0.401012 9.18769 0.422991 9.16548 0.422991 9.14891C0.422991 9.11112 0.683463 8.84561 0.720532 8.84561C0.735622 8.84561 0.75957 8.82605 0.774004 8.80219C0.788439 8.77832 0.848143 8.73921 0.906864 8.71534C0.965585 8.69147 1.01348 8.65866 1.01348 8.64275C1.01348 8.62684 1.04104 8.61358 1.07515 8.61358C1.10894 8.61358 1.1529 8.59369 1.17291 8.56949C1.19817 8.53866 1.20933 7.96456 1.20933 6.63535C1.20998 4.67337 1.22212 4.46123 1.3576 4.07308C1.38352 3.99916 1.40484 3.93154 1.40517 3.92259C1.4055 3.91331 1.42781 3.86326 1.45438 3.81121C1.48095 3.75884 1.49374 3.7068 1.48226 3.69553C1.47111 3.68393 1.47734 3.67465 1.49604 3.67465C1.51507 3.67465 1.55017 3.62625 1.57412 3.56692C1.59839 3.50759 1.64432 3.43035 1.67647 3.39489C1.70894 3.35975 1.73519 3.31666 1.73519 3.29975C1.73519 3.28252 1.84935 3.15026 1.9891 3.00541C2.12885 2.86088 2.25515 2.721 2.26958 2.69482C2.28434 2.66863 2.31813 2.64709 2.3447 2.64709C2.3716 2.64709 2.40178 2.62488 2.41228 2.59736C2.42245 2.56985 2.45165 2.54764 2.47691 2.54764C2.50184 2.54764 2.52251 2.53273 2.52251 2.5145C2.52251 2.49627 2.54449 2.48135 2.57171 2.48135C2.59894 2.48135 2.62092 2.46809 2.62092 2.45185C2.62092 2.43561 2.65766 2.41273 2.70293 2.40146C2.7482 2.38986 2.78495 2.366 2.78495 2.3481C2.78495 2.3302 2.80857 2.31561 2.83743 2.31561C2.86597 2.31561 2.92896 2.29506 2.97685 2.26987C3.16253 2.17242 3.23634 2.14524 3.4417 2.09784C3.67921 2.04314 3.84389 2.01397 3.96592 2.00503C4.01119 2.00171 4.07024 1.98447 4.0978 1.96657C4.1598 1.92647 4.23591 1.75775 4.21032 1.71664C4.20015 1.69974 4.20835 1.68582 4.22836 1.68582C4.24837 1.68582 4.25592 1.6709 4.24476 1.65267C4.23361 1.63444 4.24116 1.61952 4.26117 1.61952C4.28118 1.61952 4.28938 1.60593 4.27921 1.58936C4.26904 1.57245 4.27199 1.55389 4.28577 1.54793C4.29955 1.54163 4.37566 1.43489 4.45537 1.31059C4.58692 1.10475 4.99009 0.658255 5.04422 0.658255C5.05669 0.658255 5.11508 0.613506 5.17446 0.558814C5.23383 0.504121 5.29387 0.459372 5.30797 0.459372C5.32208 0.459372 5.36899 0.428545 5.41196 0.390757C5.45526 0.352969 5.53137 0.313855 5.58124 0.30358C5.6311 0.293636 5.67178 0.275405 5.67178 0.26314C5.67178 0.251207 5.73444 0.224027 5.8112 0.203476C5.88796 0.182593 5.99491 0.147126 6.04903 0.124254C6.10316 0.101383 6.16943 0.079174 6.19666 0.0751963C6.68414 -0.000710748 6.81765 -0.00999224 7.1808 0.00757576C7.4065 0.0181829 7.65746 0.0443688 7.73849 0.0652515C7.81952 0.0861342 7.91203 0.102377 7.94352 0.101051C7.97501 0.0997252 8.00093 0.11431 8.00093 0.133536C8.00093 0.15243 8.02291 0.15939 8.05013 0.149115C8.07736 0.138508 8.09934 0.142817 8.09934 0.158396C8.09934 0.183588 8.22138 0.231319 8.31257 0.241595C8.38934 0.250213 8.493 0.300597 8.493 0.329104C8.493 0.346009 8.51498 0.35993 8.54221 0.35993C8.56944 0.35993 8.59141 0.375841 8.59141 0.395066C8.59141 0.414292 8.60454 0.421916 8.62094 0.41164C8.63701 0.401696 8.65932 0.417938 8.6708 0.44777C8.68196 0.477603 8.7 0.493182 8.7105 0.482575C8.72099 0.471968 8.76856 0.499811 8.81613 0.544229C8.86369 0.588646 8.91487 0.625108 8.93029 0.625108C8.96244 0.625108 9.11039 0.754713 9.2708 0.923432C9.45058 1.11204 9.4942 1.16706 9.54177 1.26319C9.56638 1.31324 9.59787 1.35435 9.61132 1.35435C9.6251 1.35435 9.65298 1.40672 9.67398 1.47036C9.69497 1.534 9.72548 1.58638 9.74221 1.58638C9.75861 1.58638 9.77239 1.61621 9.77239 1.65267C9.77239 1.68913 9.78486 1.71896 9.79995 1.71896C9.81504 1.71896 9.84522 1.77863 9.86687 1.85155C9.90131 1.96757 9.91837 1.98414 10.0037 1.98414C10.0575 1.98414 10.127 1.99707 10.1582 2.01265C10.2208 2.04414 10.7592 2.18137 10.8832 2.19761C10.9258 2.20325 10.9701 2.22247 10.9816 2.2407C11.0072 2.28048 11.2158 2.39119 11.2158 2.365C11.2158 2.35473 11.2476 2.37594 11.2863 2.41273C11.325 2.4492 11.3693 2.47107 11.3848 2.46179C11.4002 2.45218 11.4126 2.46014 11.4126 2.47936C11.4126 2.49859 11.4346 2.5145 11.4618 2.5145C11.4891 2.5145 11.5111 2.52941 11.5111 2.54764C11.5111 2.56588 11.5317 2.58079 11.5567 2.58079C11.5819 2.58079 11.6111 2.603 11.6213 2.63051C11.6318 2.65802 11.6574 2.68023 11.6787 2.68023C11.6997 2.68023 11.8296 2.79923 11.9667 2.94442C12.3276 3.3266 12.3253 3.32329 12.4529 3.57521C12.485 3.63885 12.5191 3.69885 12.5287 3.7078C12.5497 3.72835 12.6707 4.08832 12.7455 4.35417C12.7947 4.52819 12.8042 4.8043 12.8206 6.56409C12.8311 7.67021 12.8488 8.58408 12.8597 8.59535C12.8708 8.60662 12.9151 8.62253 12.9581 8.63081C13.0011 8.6391 13.0414 8.66131 13.0473 8.67987C13.0535 8.69843 13.0719 8.70506 13.0886 8.69479C13.105 8.68451 13.1185 8.69181 13.1185 8.71103C13.1185 8.73026 13.1333 8.74617 13.1516 8.74617C13.2041 8.74617 13.4967 9.01665 13.6647 9.22083C13.7464 9.31994 13.9035 9.73793 13.954 9.99051C14.0003 10.2222 14.0059 10.496 13.9957 12.0788C13.9845 13.8008 13.9803 13.9135 13.9163 14.1376C13.8369 14.4147 13.6529 14.834 13.5699 14.9261C13.5381 14.9613 13.5122 15.0027 13.5122 15.0176C13.5122 15.0813 13.1821 15.3928 12.9545 15.544C12.8193 15.6338 12.6937 15.7193 12.6756 15.7336C12.6038 15.7906 12.0828 15.9434 11.8611 15.9726ZM11.9762 14.8638C12.527 14.7647 12.9158 14.417 13.0726 13.8833C13.1096 13.7564 13.1195 13.3801 13.1221 11.9734C13.1254 10.2762 13.1231 10.2143 13.0558 10.0008C12.9486 9.65937 12.6625 9.37165 12.3568 9.2974C12.2485 9.27122 11.9142 9.36005 11.8037 9.44425C11.7285 9.50159 11.7351 9.50159 11.9211 9.44126C11.9303 9.43795 11.9398 9.43496 11.949 9.43198C11.8624 9.46248 11.7889 9.49761 11.7577 9.5291C11.7181 9.56921 11.7079 9.67197 11.7072 10.0329C11.7069 10.4738 11.7043 10.491 11.6111 10.6508L11.5153 10.8152L11.6419 10.9538C11.6925 11.0095 11.745 11.0883 11.7771 11.154C11.7646 11.1294 11.7492 11.1059 11.7292 11.0764C11.6777 10.9998 11.5967 10.9113 11.5488 10.8802C11.4782 10.8338 11.4851 10.8494 11.5862 10.963C11.6547 11.04 11.7249 11.1407 11.742 11.1865C11.7594 11.2322 11.7735 11.5266 11.7735 11.8405C11.7735 12.3668 11.7676 12.4232 11.6997 12.5594C11.6072 12.7444 11.4431 12.8319 11.1535 12.8511C10.8756 12.8693 10.6129 12.8077 10.5056 12.6993C10.3511 12.5432 10.3301 12.4391 10.3301 11.8289C10.3301 11.2279 10.3547 11.1003 10.5016 10.9422C10.5597 10.8799 10.5643 10.8596 10.5282 10.8258C10.4934 10.793 10.4892 10.793 10.5072 10.8258C10.5092 10.8291 10.5105 10.8334 10.5108 10.8381C10.5046 10.8321 10.4918 10.8275 10.4724 10.8212C10.4393 10.8102 10.3753 10.7466 10.3301 10.6796C10.2543 10.5673 10.2468 10.5212 10.2317 10.0747L10.2153 9.59142L6.97085 9.58313L3.72612 9.57451L3.74646 10.0263C3.76745 10.4977 3.74449 10.6319 3.62639 10.7307C3.547 10.7973 3.55947 10.86 3.67593 10.9773C3.81469 11.1175 3.83306 11.2206 3.83405 11.8637C3.8347 12.3884 3.83109 12.4199 3.74974 12.5846C3.70315 12.6794 3.65231 12.757 3.63722 12.757C3.62213 12.757 3.58407 12.7828 3.55258 12.8147C3.44236 12.9264 2.73344 12.877 2.56187 12.7457C2.53858 12.7278 2.49036 12.6492 2.45526 12.571C2.39949 12.4474 2.39129 12.3536 2.39129 11.8355C2.39129 11.3191 2.40802 11.1314 2.4815 11.0095L2.65799 10.852L2.5868 10.7933C2.54744 10.7612 2.4979 10.735 2.47658 10.735C2.45558 10.735 2.40933 10.6866 2.3739 10.6273C2.31879 10.5358 2.30763 10.445 2.29812 10.0223C2.29189 9.74887 2.27319 9.50822 2.25646 9.48767C2.23973 9.46712 2.11343 9.4101 1.97598 9.36071C1.7283 9.27188 1.72469 9.27155 1.57674 9.32856C1.39894 9.39718 1.16996 9.60203 1.06269 9.78831C0.896038 10.0777 0.878979 10.3061 0.889149 12.1106L0.898663 13.768L0.985268 14.0079C1.15913 14.4879 1.51605 14.7849 2.03043 14.8774C2.11179 14.892 4.32612 14.9049 6.95117 14.9066C10.8569 14.9089 11.7702 14.9009 11.9762 14.8638ZM2.93093 10.5931C2.95258 10.6505 3.03033 10.6468 3.08019 10.5858C3.11135 10.5477 3.11693 10.3684 3.10315 9.83439L3.08511 9.13299L3.20091 9.03985C3.26455 8.98847 3.3633 8.93842 3.42005 8.92814C3.54602 8.90527 10.5574 8.92185 10.6227 8.94505C10.6486 8.95433 10.7126 9.00969 10.7651 9.06869L10.8602 9.17542L10.8507 9.8745C10.8405 10.6114 10.8533 10.6786 10.9868 10.5945C11.0318 10.5659 11.0462 10.4834 11.0639 10.1539C11.0754 9.93085 11.0997 9.63285 11.1174 9.49165C11.1351 9.35044 11.1404 9.17741 11.1292 9.10681C11.1161 9.02295 11.124 8.96063 11.1518 8.92682C11.2053 8.86119 11.4386 8.74617 11.5173 8.74617C11.5498 8.74617 11.5767 8.73125 11.5767 8.71302C11.5767 8.69479 11.6062 8.67987 11.6423 8.67987C11.6784 8.67987 11.7079 8.6686 11.7082 8.65501C11.7082 8.64142 11.7525 8.60463 11.8066 8.5738L11.9047 8.51712L11.9044 6.5684V6.47525C11.9041 4.84375 11.9041 4.52686 11.7991 4.25075C11.7715 4.17915 11.7374 4.1102 11.6941 4.02137C11.6154 3.8606 11.5025 3.70912 11.3303 3.53245C11.1928 3.3919 11.0665 3.27688 11.0498 3.27688C11.0328 3.27688 11.019 3.26263 11.019 3.24539C11.019 3.14197 10.1536 2.80553 10.0204 2.85724C9.98005 2.87282 9.97086 3.04717 9.96266 3.96469C9.9538 4.94783 9.94724 5.06219 9.89377 5.14439C9.80717 5.27798 9.64609 5.36482 9.48535 5.36515C9.37152 5.36515 9.32231 5.34361 9.21635 5.24682L9.08677 5.12848L9.0848 3.99551C9.08283 2.97491 9.07725 2.85856 9.02772 2.82111C8.9585 2.76907 5.23416 2.76045 5.09999 2.81216L5.01568 2.84431V3.93121C5.01568 4.83248 5.01141 5.00087 4.96942 5.1023C5.01141 5.00054 5.01568 4.83049 5.01502 3.90734C5.0147 3.17777 5.00387 2.81348 4.98287 2.84597C4.96418 2.87547 4.95073 3.32627 4.95073 3.94944C4.95007 4.93325 4.9458 5.01181 4.88512 5.13147C4.76636 5.36714 4.39993 5.40327 4.2218 5.1971L4.12995 5.09103V3.98921C4.12995 3.93253 4.12995 3.8785 4.12995 3.82713C4.13027 3.07933 4.1306 2.86983 4.04465 2.82376C4.01119 2.80553 3.96494 2.81249 3.90031 2.82177C3.88916 2.82343 3.87702 2.82509 3.86456 2.82674C3.2511 2.90895 2.59008 3.4098 2.285 4.02402C2.08554 4.4251 2.0839 4.44366 2.07144 6.54354C2.07045 6.72485 2.06914 6.88992 2.06783 7.04074C2.05897 8.23669 2.057 8.51414 2.19118 8.62883C2.24858 8.67788 2.33093 8.69711 2.44869 8.7455C2.71015 8.85356 2.83382 8.95433 2.80332 9.03521C2.79347 9.0604 2.80036 9.072 2.81808 9.06073C2.82792 9.05477 2.83645 9.04316 2.84235 9.02957C2.84203 9.03919 2.84137 9.04946 2.84039 9.06007C2.82628 9.20393 2.90403 10.5229 2.93093 10.5931ZM8.93619 1.95066C8.94538 1.93508 8.65998 1.92547 8.07014 1.92116L8.95588 1.91685L8.88863 1.82106C8.85156 1.76835 8.82105 1.71233 8.82105 1.69676C8.82105 1.65665 8.55402 1.40307 8.4848 1.37755C8.45331 1.36595 8.42739 1.34109 8.42739 1.32219C8.42739 1.3033 8.40771 1.28805 8.38376 1.28805C8.36014 1.28805 8.307 1.25192 8.26599 1.20783C8.22498 1.16375 8.14461 1.11005 8.08786 1.08851C8.03111 1.06696 7.955 1.0368 7.91891 1.02122C7.37763 0.789187 6.58211 0.805097 6.04739 1.05834C5.92208 1.11801 5.81448 1.179 5.80857 1.19425C5.80234 1.20949 5.77675 1.22176 5.75117 1.22176C5.72558 1.22176 5.70458 1.23667 5.70458 1.2549C5.70458 1.27314 5.68949 1.28805 5.67145 1.28805C5.62126 1.28805 5.26992 1.65201 5.18561 1.79123L5.1118 1.91288L5.18659 1.92381C5.20332 1.92613 5.35587 1.92779 5.59895 1.92846C5.27943 1.93409 5.10327 1.94205 5.09704 1.95199C5.08457 1.97254 5.76462 1.98414 6.99644 1.98414C8.25812 1.98414 8.92274 1.97254 8.93619 1.95066ZM1.85525 14.7799C1.93267 14.8055 2.01272 14.8204 2.43984 14.8287H1.91562L1.76012 14.7541C1.6745 14.713 1.59741 14.6795 1.58822 14.6795C1.54492 14.6795 1.1775 14.3404 1.1775 14.3003C1.1775 14.2867 1.14962 14.2357 1.1155 14.1873C1.08139 14.1389 1.05153 14.0845 1.04891 14.0663C1.04628 14.0481 1.02627 13.9735 1.00429 13.9006C1.00069 13.8883 0.997406 13.8697 0.994125 13.8435C1.00429 13.9035 1.01742 13.9423 1.0348 13.9891C1.18538 14.3915 1.45307 14.6497 1.85525 14.7799ZM12.9623 9.86754C12.9404 9.82478 12.9141 9.78268 12.8836 9.73362C12.7727 9.55761 12.5428 9.3879 12.3702 9.35541C12.2938 9.34083 12.1255 9.37364 11.9821 9.42071C12.0691 9.39055 12.1481 9.35939 12.1727 9.3448C12.2029 9.32691 12.2544 9.31862 12.2875 9.32591C12.6126 9.39817 12.8108 9.55695 12.961 9.86488L12.9623 9.86754ZM2.1833 4.53681C2.2125 4.34058 2.25777 4.22721 2.3283 4.07937C2.38702 3.95706 2.43229 3.84569 2.42934 3.8321C2.42639 3.81851 2.43885 3.80724 2.4569 3.80724C2.47494 3.80724 2.4897 3.79 2.4897 3.76912C2.4897 3.74824 2.59861 3.62526 2.73213 3.49565C3.01589 3.2202 3.06641 3.17744 3.10939 3.17744C3.11496 3.17744 3.12218 3.17512 3.13104 3.17114C2.81152 3.37599 2.53202 3.67332 2.36275 4.01076C2.2722 4.19208 2.21676 4.31439 2.1833 4.53681ZM1.64333 9.37C1.6266 9.37563 1.60823 9.38292 1.58691 9.39088C1.28051 9.50921 1.08664 9.75914 0.996422 10.1523C0.992157 10.1705 0.988548 10.1894 0.98494 10.2096C0.996093 10.1002 1.01315 10.0515 1.0394 9.97825C1.11714 9.76014 1.13453 9.73196 1.28314 9.58214C1.42453 9.43894 1.44749 9.42469 1.60889 9.37928C1.62103 9.37563 1.63251 9.37265 1.64333 9.37ZM13.0713 10.4377C13.0575 10.1476 13.0306 10.0137 12.9781 9.89969L13.0693 10.087L13.0713 10.4377ZM12.0851 14.8287L12.3 14.7259C12.4466 14.6556 12.57 14.5734 12.673 14.476C12.5503 14.595 12.4043 14.6984 12.2738 14.7518L12.0851 14.8287ZM2.48609 11.0022C2.49823 10.9829 2.51168 10.9654 2.5271 10.9485C2.60813 10.8576 2.60616 10.8517 2.47527 10.7738C2.37062 10.7115 2.31255 10.6511 2.28041 10.5262C2.31583 10.6598 2.38144 10.7207 2.50085 10.7801L2.62519 10.8421L2.54941 10.9292L2.48609 11.0022ZM11.4248 12.8634C11.577 12.8054 11.7164 12.6768 11.783 12.5326C11.7495 12.6304 11.6967 12.6943 11.6144 12.7643C11.5658 12.8057 11.5002 12.8388 11.4248 12.8634ZM4.11158 5.08175C4.1165 5.096 4.12207 5.10926 4.12831 5.12285C4.16734 5.21036 4.23361 5.27897 4.31267 5.32471C4.20015 5.26671 4.14241 5.23422 4.11158 5.08175ZM2.4172 8.68087C2.41327 8.6802 2.40933 8.67987 2.40539 8.67987C2.37915 8.67987 2.30632 8.64639 2.24366 8.60529L2.1295 8.53071V8.50983L2.20856 8.57281C2.24268 8.59966 2.32765 8.64308 2.4172 8.68087ZM10.3599 12.5657C10.435 12.7036 10.5571 12.8044 10.7126 12.8624C10.6703 12.8488 10.6302 12.8326 10.5938 12.8137C10.4843 12.757 10.4265 12.6966 10.3642 12.574C10.3626 12.5714 10.3612 12.5684 10.3599 12.5657ZM2.17215 9.48601C2.12622 9.46281 2.04946 9.43198 1.96679 9.40513C1.89167 9.3806 1.84115 9.36436 1.80145 9.35608C1.83885 9.36072 1.88084 9.37132 1.93694 9.38756C2.057 9.42303 2.12885 9.44226 2.17215 9.48601ZM10.5069 10.8663C10.4997 10.8895 10.4829 10.9173 10.4603 10.9418C10.3799 11.0277 10.3353 11.089 10.3094 11.1987C10.3347 11.0744 10.3816 11.0078 10.4679 10.912C10.4862 10.8918 10.4993 10.8772 10.5069 10.8663ZM2.82136 8.91522C2.77445 8.84561 2.67997 8.77501 2.59861 8.75943C2.53825 8.74816 2.48084 8.72528 2.471 8.70937C2.46871 8.7054 2.4651 8.70175 2.46116 8.69843C2.47264 8.70308 2.48445 8.70739 2.49561 8.71169C2.68555 8.78064 2.78232 8.83633 2.82136 8.91522ZM3.16515 3.1496C3.17467 3.1423 3.18385 3.13435 3.19205 3.12573C3.22617 3.09159 3.33836 3.04121 3.46893 2.99579C3.36559 3.03723 3.26357 3.08894 3.16515 3.1496ZM11.8348 12.1305C11.8368 12.0304 11.8365 11.9121 11.8339 11.7785C11.826 11.3781 11.823 11.2614 11.7876 11.1762C11.7945 11.1924 11.8001 11.2073 11.8037 11.2206C11.823 11.2909 11.8384 11.5869 11.8381 11.8786C11.8381 11.9737 11.8371 12.0569 11.8348 12.1305ZM12.7619 14.3822C12.877 14.2466 12.9614 14.0852 13.0207 13.8903C13.028 13.8664 13.0345 13.8439 13.0404 13.82C13.0122 13.9745 12.9673 14.0597 12.8954 14.1936C12.8626 14.2552 12.8164 14.3195 12.7619 14.3822ZM4.06106 2.87017L4.06434 2.86983L4.06467 3.27456L4.06106 2.87017ZM2.23874 9.88212C2.23645 9.78931 2.23317 9.70578 2.22923 9.64147C2.23579 9.70081 2.23776 9.7787 2.23874 9.88212ZM4.42486 5.37245C4.49244 5.39167 4.56396 5.39664 4.63252 5.38504C4.56592 5.39731 4.49572 5.39366 4.42486 5.37245ZM4.87724 5.2445C4.9071 5.20969 4.93596 5.16859 4.95499 5.13246C4.93235 5.17489 4.90644 5.21235 4.87724 5.2445Z" fill="#676B5D"/>
</svg>
