<svg width="15" height="15" viewBox="0 0 15 15" fill="none" xmlns="http://www.w3.org/2000/svg">
<path d="M13.125 7.5C13.125 4.3934 10.6066 1.875 7.5 1.875C4.3934 1.875 1.875 4.3934 1.875 7.5C1.875 10.6066 4.3934 13.125 7.5 13.125C10.6066 13.125 13.125 10.6066 13.125 7.5ZM14.375 7.5C14.375 11.297 11.297 14.375 7.5 14.375C3.70304 14.375 0.625 11.297 0.625 7.5C0.625 3.70304 3.70304 0.625 7.5 0.625C11.297 0.625 14.375 3.70304 14.375 7.5Z" fill="#636363"/>
<path d="M6.875 3.75C6.875 3.40482 7.15482 3.125 7.5 3.125C7.84518 3.125 8.125 3.40482 8.125 3.75V7.11365L10.2795 8.19092C10.5883 8.34529 10.7135 8.7208 10.5591 9.02954C10.4047 9.33828 10.0292 9.46345 9.72046 9.30908L7.22046 8.05908C7.00872 7.95321 6.875 7.73673 6.875 7.5V3.75Z" fill="#636363"/>
</svg>
