<svg width="18" height="14" viewBox="0 0 18 14" fill="none" xmlns="http://www.w3.org/2000/svg">
<path d="M3.06472 0.0226164C2.35377 0.0904961 1.775 0.412032 1.29984 1.00152C1.0962 1.25517 0.874701 1.69818 0.796103 2.00542C0.681779 2.47344 0.671061 2.87357 0.671061 7.51441C0.671061 11.8551 0.667488 12.1695 0.610326 12.1695C0.470994 12.1695 0.231628 12.3267 0.131595 12.4839C-0.0684723 12.7983 -0.0398913 13.152 0.213765 13.4342C0.470994 13.7272 0.428122 13.7236 2.56812 13.7236C4.58666 13.7236 4.57594 13.7236 4.67597 13.5414L4.71884 13.4557H5.5334C6.31223 13.4557 6.35153 13.4593 6.38726 13.5271C6.4087 13.5664 6.47658 13.6272 6.54088 13.6593C6.64806 13.7201 6.95174 13.7236 11.7283 13.7236C16.5299 13.7236 16.8086 13.7201 16.9694 13.6593C17.2695 13.5414 17.4981 13.2163 17.4981 12.9019C17.4981 12.5947 17.2838 12.2767 17.0301 12.1981L16.8908 12.1588V8.65408C16.8908 4.83137 16.8943 4.93855 16.6871 4.5527C16.5657 4.3312 16.2441 4.02396 16.0048 3.90249C15.6046 3.69885 15.6439 3.70242 12.6858 3.70242H9.95988V2.54846C9.95988 1.33734 9.93488 1.10869 9.78483 0.815739C9.62049 0.497775 9.28823 0.21911 8.90596 0.0726328C8.73805 0.00832558 8.58085 0.00475311 6.03 0.00118065C4.54736 -0.00239182 3.2112 0.00832558 3.06472 0.0226164ZM8.40222 1.05868C8.59514 1.10155 8.71304 1.19444 8.8095 1.38021L8.8881 1.53741V6.86419V12.1874L8.18429 12.1803L7.47691 12.1695L7.45905 11.037L7.44118 9.90092L7.33758 9.68656C7.13037 9.265 6.76596 9.00062 6.26936 8.91845C5.90138 8.85414 4.74028 8.88987 4.51163 8.97204C4.09364 9.12209 3.78639 9.41147 3.62919 9.80446C3.55417 9.99738 3.54702 10.0653 3.53631 11.1013L3.52559 12.1981L3.41126 12.1838C3.34696 12.1803 2.95397 12.1731 2.53954 12.1731L1.77857 12.1695V7.46082C1.77857 2.25551 1.77143 2.48773 2.0108 2.00185C2.15727 1.70175 2.43594 1.40522 2.7146 1.24445C3.09687 1.02652 3.05757 1.02652 5.77991 1.02652C7.1518 1.02652 8.3272 1.04081 8.40222 1.05868ZM15.1902 4.77778C15.3867 4.8278 15.5832 4.98856 15.6868 5.17791L15.7654 5.32796L15.7761 8.77197C15.7833 11.9195 15.7797 12.2124 15.7261 12.191C15.6975 12.1803 15.2688 12.1695 14.7794 12.1695H13.8898V11.3478C13.8898 10.4404 13.8755 10.3618 13.6754 10.2582C13.5254 10.1796 12.6108 10.1832 12.4429 10.2582C12.2392 10.3582 12.2285 10.4118 12.2285 11.3335V12.1695H11.5676C11.2032 12.1695 10.6994 12.1731 10.4422 12.1767L9.97775 12.1838L9.96703 8.46115L9.95988 4.73848H12.5C14.2113 4.73848 15.0866 4.75277 15.1902 4.77778ZM6.19434 10.1474L6.31581 10.2689V11.3979V12.5268H5.51197H4.70455L4.71527 11.38L4.72599 10.2332L4.84389 10.1296L4.95821 10.026H5.51554H6.07287L6.19434 10.1474Z" fill="#676B5D"/>
<path d="M3.45483 3.09455L3.34766 3.20173L3.35837 3.7412L3.36909 4.28066L3.46913 4.36641C3.56559 4.44858 3.59417 4.45215 4.06218 4.45215C4.62666 4.45215 4.7124 4.41999 4.78028 4.17348C4.82672 3.99485 4.82315 3.35535 4.76956 3.20173C4.70525 3.01595 4.61594 2.98737 4.05504 2.98737H3.55844L3.45483 3.09455Z" fill="#676B5D"/>
<path d="M5.99097 3.09455L5.88379 3.20173L5.89451 3.7412L5.90522 4.28066L6.00526 4.36641C6.10172 4.44858 6.1303 4.45215 6.58402 4.45215C7.31998 4.45215 7.35214 4.41999 7.35214 3.71976C7.35214 3.2446 7.31641 3.09812 7.17708 3.0231C7.13778 3.00524 6.88055 2.98737 6.60189 2.98737H6.09457L5.99097 3.09455Z" fill="#676B5D"/>
<path d="M3.67927 5.51342C3.66498 5.51699 3.61139 5.52771 3.5578 5.53843C3.38988 5.57773 3.35059 5.70991 3.35059 6.23866C3.35059 6.99963 3.38988 7.03893 4.13299 7.01749C4.58671 7.00678 4.601 7.0032 4.69747 6.90674C4.79393 6.81028 4.7975 6.79599 4.80822 6.35299C4.82965 5.57415 4.7975 5.53128 4.14371 5.51699C3.90434 5.50985 3.69356 5.50985 3.67927 5.51342Z" fill="#676B5D"/>
<path d="M5.97652 5.61449C5.89078 5.69666 5.88721 5.71452 5.88721 6.25399C5.88721 6.78631 5.89078 6.81132 5.97295 6.90778L6.05869 7.00781H6.59816H7.13763L7.23409 6.90778C7.33412 6.81132 7.33412 6.80417 7.34484 6.27542L7.35556 5.73953L7.24838 5.63235L7.14477 5.52517H6.60173C6.07656 5.52517 6.05869 5.52875 5.97652 5.61449Z" fill="#676B5D"/>
<path d="M12.4006 6.42469C12.2362 6.50329 12.2041 6.65691 12.2184 7.29641L12.2291 7.88947L12.347 7.99307L12.4613 8.09668H13.0365C13.9011 8.09668 13.9011 8.09668 13.8832 7.1678L13.8725 6.55331L13.7725 6.46756C13.676 6.38539 13.6546 6.38182 13.0758 6.38539C12.7328 6.38539 12.447 6.40326 12.4006 6.42469Z" fill="#676B5D"/>
</svg>
