<svg width="67" height="67" viewBox="0 0 67 67" fill="none" xmlns="http://www.w3.org/2000/svg">
<rect width="67" height="67" rx="33.5" fill="#676B5D"/>
<path d="M25.4604 49.4289C24.6945 49.5409 24.1825 49.5231 23.4398 49.3571C23.0892 49.2784 22.3736 48.9268 22.2059 48.7504C22.1261 48.6665 22.0341 48.5981 22.0011 48.5976C21.9213 48.5958 21.4799 48.1362 21.4348 48.0075C21.4157 47.9524 21.3729 47.907 21.3399 47.907C21.3069 47.907 21.2803 47.8685 21.2803 47.8208C21.2803 47.7731 21.2543 47.7346 21.2225 47.7346C21.1907 47.7346 21.1646 47.6978 21.1646 47.653C21.1646 47.6082 21.145 47.5634 21.1213 47.5525C21.0663 47.5284 20.677 46.7435 20.6909 46.6861C20.6972 46.6625 20.6718 46.643 20.6342 46.643C20.5972 46.643 20.5833 46.6269 20.6035 46.6068C20.6238 46.5867 20.6093 46.5155 20.5717 46.4488C20.5341 46.3816 20.5092 46.3075 20.5162 46.2839C20.5225 46.2604 20.4982 46.2408 20.4606 46.2408C20.4236 46.2408 20.4103 46.2236 20.4311 46.2029C20.4525 46.1822 20.4404 46.1305 20.4051 46.088C20.3698 46.0455 20.3635 46.0104 20.3912 46.0099C20.419 46.0099 20.4103 45.9898 20.3727 45.9656C20.3351 45.9421 20.2917 45.8582 20.2761 45.7801C20.2374 45.5807 19.9527 44.8482 19.8799 44.7614C19.8469 44.7218 19.8394 44.6896 19.8631 44.6896C19.8868 44.6896 19.8706 44.6471 19.8266 44.5948C19.7833 44.5425 19.7561 44.4902 19.7665 44.4787C19.8012 44.4397 19.7098 44.1151 19.6635 44.1151C19.6381 44.1151 19.6172 44.0473 19.6172 43.9651C19.6172 43.8824 19.5947 43.7985 19.5669 43.7784C19.5386 43.7583 19.5073 43.6934 19.4975 43.6336C19.4871 43.5744 19.4501 43.4584 19.4153 43.3751C19.3806 43.2923 19.3465 43.205 19.3401 43.1814C19.3332 43.1579 19.3216 43.1257 19.3135 43.1096C19.3054 43.0935 19.2956 43.0614 19.291 43.0378C19.2863 43.0143 19.2621 42.9626 19.2372 42.9229C19.2117 42.8833 19.2042 42.8511 19.2204 42.8511C19.2522 42.8511 19.1099 42.349 19.0104 42.1088C18.9763 42.0272 18.9393 41.9112 18.9277 41.8508C18.9011 41.7147 18.7385 41.1286 18.6946 41.0126C18.6766 40.9649 18.6547 40.8747 18.6454 40.8115C18.6309 40.7121 18.5731 40.4559 18.4962 40.1508C18.4695 40.0428 18.3452 39.9922 17.8535 39.8894C17.6394 39.8446 17.4179 39.7831 17.3618 39.7526C17.3057 39.7222 17.0714 39.613 16.8406 39.5108C16.6098 39.4085 16.4212 39.3034 16.4212 39.2781C16.4212 39.2522 16.394 39.2315 16.361 39.2315C16.2957 39.2315 16.1788 39.1459 16.0284 38.9874C15.9758 38.9322 15.9098 38.8868 15.8826 38.8868C15.7091 38.8868 14.4741 37.2781 14.4197 36.9811C14.4116 36.9392 14.3375 36.7105 14.2548 36.4738C14.0188 35.7987 13.9818 35.192 14.0066 32.394C14.0269 30.1746 14.0431 29.7885 14.1322 29.4645C14.1883 29.2588 14.2386 29.0526 14.2432 29.0049C14.2479 28.9572 14.271 28.9049 14.2936 28.8877C14.3167 28.8704 14.3445 28.8055 14.3555 28.744C14.3659 28.682 14.4498 28.4889 14.5417 28.3154C14.6337 28.1419 14.7037 27.9799 14.6973 27.9564C14.691 27.9328 14.7118 27.9133 14.7436 27.9133C14.7754 27.9133 14.8015 27.8794 14.8015 27.838C14.8015 27.7966 14.8518 27.7087 14.9137 27.6432C14.9756 27.5772 15.012 27.5099 14.9953 27.4933C14.9791 27.4766 15.0195 27.4341 15.0855 27.3991C15.152 27.3634 15.2064 27.31 15.2064 27.279C15.2064 27.2049 15.8849 26.5344 15.9601 26.5344C15.9931 26.5344 16.0348 26.4959 16.0533 26.4482C16.0712 26.4005 16.1227 26.362 16.1672 26.362C16.2112 26.362 16.2476 26.3362 16.2476 26.3046C16.2476 26.273 16.2847 26.2471 16.3298 26.2471C16.3749 26.2471 16.42 26.2276 16.431 26.204C16.4611 26.1357 17.183 25.8007 17.3895 25.7593C17.4925 25.7381 17.5914 25.6973 17.6099 25.668C17.6279 25.6393 17.7308 25.6151 17.8384 25.6151C17.946 25.6151 18.0496 25.5904 18.0681 25.5606C18.0889 25.5267 19.3581 25.5042 21.3515 25.5014C24.3011 25.4979 25.2099 25.4635 25.5032 25.3434C25.5512 25.3238 25.7027 25.3009 25.841 25.2917C25.9792 25.2831 26.1239 25.2497 26.162 25.2181C26.2002 25.1865 26.2824 25.1601 26.3448 25.1595C26.5999 25.1567 27.4063 25.0142 27.5857 24.9406C27.6736 24.9044 27.7528 24.8849 27.9617 24.8476C28.0253 24.8361 28.1242 24.8068 28.1809 24.7832C28.2382 24.7591 28.2989 24.7528 28.3157 24.77C28.3325 24.7867 28.4291 24.7746 28.5303 24.743C28.631 24.712 28.7675 24.6781 28.8334 24.6683C29.1088 24.6281 29.8747 24.4483 29.9285 24.4115C29.9603 24.3897 30.0592 24.3672 30.1483 24.3621C30.2374 24.3563 30.3548 24.3293 30.4086 24.3012C30.463 24.2736 30.6302 24.2334 30.7806 24.2116C30.931 24.1897 31.0692 24.1478 31.0877 24.1179C31.1062 24.088 31.2092 24.0639 31.3168 24.0639C31.4244 24.0639 31.5297 24.0363 31.5505 24.0024C31.5719 23.9685 31.6245 23.9547 31.6679 23.9714C31.7113 23.9881 31.7622 23.9766 31.7813 23.9467C31.7998 23.9162 31.8901 23.8915 31.982 23.8915C32.074 23.8915 32.1637 23.8674 32.1822 23.8381C32.2007 23.8082 32.3557 23.7554 32.527 23.7203C33.2229 23.5767 36.0603 22.6034 37.1917 22.1203C39.1944 21.2648 39.7035 20.9212 40.5735 19.8399C41.1855 19.0787 41.7032 18.7121 42.3656 18.5696C43.3623 18.3553 44.2867 18.6472 44.7605 19.2855C44.138 18.4588 42.8058 18.245 41.6639 18.8506C41.3729 19.0046 40.8494 19.5102 40.3976 20.0743C39.7376 20.8976 39.0174 21.3647 37.275 22.1007C36.1927 22.558 34.1311 23.2797 32.9741 23.6071C32.708 23.6824 32.5212 23.7542 32.5576 23.7663C32.6253 23.7887 34.3081 23.2883 34.8455 23.086C35.0045 23.0263 35.4725 22.8568 35.8861 22.7097C36.6729 22.4299 38.384 21.6968 38.8525 21.4394C39.5762 21.0419 40.0511 20.627 40.6782 19.8463C41.3857 18.9649 42.0856 18.5788 42.973 18.58C43.8112 18.5811 44.4533 18.9161 44.7952 19.5297L44.9687 19.8411V45.9248L44.8119 46.2569C44.7257 46.4396 44.5071 46.7436 44.326 46.932C44.134 47.1319 44.0333 47.2566 44.0397 47.2761C43.8748 47.3761 43.703 47.4462 43.5335 47.4778C43.4155 47.4996 43.3044 47.541 43.2871 47.5686C43.2402 47.6438 42.5345 47.6272 42.1342 47.5416C41.7779 47.4657 41.3024 47.2445 41.2202 47.117C41.1948 47.0774 41.1467 47.0452 41.1132 47.0452C41.0802 47.0452 40.7667 46.7608 40.4173 46.4132C40.0679 46.0656 39.7607 45.7812 39.7353 45.7812C39.7092 45.7812 39.6728 45.7427 39.6549 45.695C39.6364 45.6473 39.5814 45.6088 39.5328 45.6088C39.4842 45.6088 39.4443 45.583 39.4443 45.5514C39.4443 45.5198 39.4055 45.4939 39.3575 45.4939C39.3095 45.4939 39.2708 45.4681 39.2708 45.4365C39.2708 45.4049 39.2372 45.379 39.1956 45.379C39.1545 45.379 39.07 45.3405 39.0076 45.2934C38.8687 45.1883 36.862 44.1972 36.6821 44.1449C36.6104 44.1243 36.552 44.0835 36.552 44.0536C36.552 44.0243 36.5034 44.0002 36.4444 44.0002C36.3379 44.0002 35.6594 43.7181 34.9901 43.3957C34.9103 43.3578 34.7708 43.3084 34.68 43.2872C34.5892 43.2653 34.407 43.2004 34.2751 43.1424C34.1432 43.0849 33.8667 42.9798 33.6596 42.9091C33.4525 42.8385 33.2055 42.7465 33.1101 42.704C33.0146 42.6615 32.6374 42.5322 32.2713 42.4167C31.9051 42.3007 31.58 42.1869 31.5482 42.1628C31.5164 42.1392 31.3081 42.0634 31.0854 41.995C30.8627 41.9267 30.3554 41.7704 29.9574 41.648C29.5594 41.5256 29.1175 41.3941 28.974 41.3562C28.8305 41.3177 28.6616 41.2648 28.598 41.2372C28.4829 41.1884 28.0704 41.085 27.3543 40.9253C27.1472 40.8787 26.9135 40.8173 26.8336 40.7874C26.7538 40.7581 26.5895 40.7179 26.4681 40.6977C26.3466 40.6776 26.2083 40.6466 26.1615 40.6282C26.0932 40.6024 26.084 40.6294 26.1146 40.7609C26.1522 40.9195 26.2095 41.066 26.3998 41.4952C26.4478 41.6026 26.4866 41.7308 26.4866 41.779C26.4866 41.8279 26.5126 41.8836 26.5444 41.9031C26.5762 41.9226 26.6023 41.979 26.6023 42.0289C26.6023 42.0783 26.6804 42.2714 26.7758 42.4581C26.8713 42.6443 26.9493 42.8379 26.9493 42.8873C26.9493 42.9373 27.0112 43.0981 27.0864 43.2446C27.2218 43.5072 27.3415 43.7738 27.452 44.0576C27.5278 44.2518 27.7488 44.7304 27.8784 44.9792C28.0184 45.2475 28.2046 45.9524 28.2515 46.3896C28.2914 46.7608 28.2017 47.4054 28.1057 47.4376C28.0745 47.4485 28.0484 47.5134 28.0484 47.5829C28.0484 47.6525 27.9964 47.7536 27.9327 47.8076C27.8691 47.8616 27.817 47.9386 27.817 47.9782C27.8165 48.0644 27.1362 48.7291 26.9922 48.7843C26.9366 48.8055 26.8915 48.8463 26.8915 48.8756C26.8915 48.9044 26.7029 49.0216 26.4721 49.1353C26.1568 49.2905 25.9052 49.3634 25.4604 49.4289ZM40.2264 44.1174C40.3924 44.3839 40.3988 44.0157 40.4127 33.18C40.4265 22.4805 40.4242 22.2254 40.3178 22.2254C40.2576 22.2254 40.1934 22.2639 40.1755 22.3116C40.157 22.3593 40.102 22.3978 40.0534 22.3978C40.0048 22.3978 39.9649 22.4236 39.9649 22.4552C39.9649 22.4868 39.9377 22.5127 39.9048 22.5127C39.8718 22.5127 39.7931 22.5603 39.7301 22.6184C39.6676 22.6764 39.545 22.7568 39.4576 22.7965C39.3708 22.8361 39.2349 22.9033 39.1551 22.9464C38.565 23.2641 38.4557 23.317 38.3874 23.317C38.2798 23.317 37.9993 23.4514 37.9987 23.5037C37.9981 23.5273 37.9333 23.5468 37.8535 23.5468C37.7737 23.5468 37.7089 23.5727 37.7089 23.6043C37.7089 23.6359 37.6696 23.6617 37.6215 23.6617C37.573 23.6617 37.4885 23.6841 37.4335 23.7123C37.378 23.7399 37.2288 23.795 37.1015 23.8352C36.9742 23.8749 36.8574 23.9249 36.8412 23.9455C36.8053 23.9921 36.2216 24.1788 36.1117 24.1788C36.0672 24.1788 36.0313 24.2047 36.0313 24.2363C36.0313 24.2679 35.9822 24.2937 35.922 24.2937C35.8624 24.2937 35.7386 24.3322 35.6472 24.3793C35.5564 24.427 35.4361 24.4655 35.3794 24.4655C35.2273 24.4661 34.8165 24.6022 34.8165 24.6522C34.8165 24.6763 34.7448 24.6959 34.6575 24.6965C34.5701 24.6965 34.4203 24.7372 34.3248 24.7878C34.2294 24.8378 33.9824 24.9154 33.7753 24.9607C33.5682 25.0061 33.3276 25.0584 33.2402 25.0774C33.1529 25.0969 33.0811 25.1302 33.0811 25.1515C33.0811 25.19 32.7531 25.2773 31.8663 25.4761C31.628 25.5295 31.4065 25.5922 31.3746 25.6157C31.3428 25.6393 31.1936 25.676 31.0432 25.6973C30.8928 25.7191 30.7545 25.7611 30.736 25.7909C30.7175 25.8208 30.6145 25.8449 30.5069 25.8449C30.3993 25.8449 30.2975 25.8674 30.2808 25.8944C30.264 25.9214 30.1043 25.9581 29.9262 25.9765C29.748 25.9949 29.5681 26.038 29.5259 26.073C29.4836 26.1075 29.3095 26.1517 29.1394 26.1707C28.9688 26.1897 28.8033 26.2247 28.7715 26.2477C28.7397 26.2712 28.5644 26.3086 28.3822 26.3304C28.1994 26.3523 28.0351 26.3942 28.0172 26.4235C27.9987 26.4528 27.9009 26.4775 27.7991 26.4787C27.6354 26.4798 27.2912 26.5516 26.4299 26.7642C26.1673 26.8291 25.9191 26.8682 25.4453 26.9205C25.3019 26.936 25.1526 26.9751 25.1127 27.0072C25.0554 27.0532 25.0404 28.2982 25.0404 32.883C25.0404 33.1237 25.0404 33.3547 25.0404 33.5764C25.0398 38.1313 25.0398 38.769 25.2 38.8116C25.2255 38.8185 25.2562 38.8098 25.2914 38.7995C25.3019 38.796 25.3129 38.7932 25.3238 38.7897C25.4019 38.7696 25.4754 38.7846 25.5014 38.8259C25.5251 38.865 25.6657 38.8989 25.8132 38.9012C25.9607 38.9035 26.0816 38.923 26.0816 38.9443C26.0816 38.9943 27.0593 39.2034 27.1952 39.1821C27.2507 39.1741 27.2964 39.1907 27.2964 39.2201C27.2964 39.2758 27.9675 39.4395 28.0918 39.4137C28.1317 39.4056 28.1641 39.4234 28.1641 39.4539C28.1641 39.509 28.5945 39.609 28.7281 39.5843C28.7681 39.5774 28.8004 39.5958 28.8004 39.6262C28.8004 39.6797 29.2389 39.7842 29.3448 39.7561C29.3737 39.7486 29.4171 39.7739 29.4408 39.8124C29.4645 39.8509 29.5646 39.8825 29.6629 39.8825C29.7613 39.8825 29.8417 39.9032 29.8417 39.929C29.8417 39.9543 29.8805 39.96 29.9285 39.9417C29.9765 39.9239 30.0152 39.9325 30.0152 39.9612C30.0152 40.0232 30.5758 40.1847 30.7239 40.1652C30.7794 40.1583 30.8251 40.1766 30.8251 40.2071C30.8251 40.2375 30.8639 40.2473 30.9119 40.2289C30.9599 40.2111 30.9986 40.2238 30.9986 40.2577C30.9986 40.2916 31.0374 40.3048 31.0854 40.2864C31.1334 40.2686 31.1722 40.2812 31.1722 40.3151C31.1722 40.349 31.2109 40.3622 31.2589 40.3438C31.307 40.326 31.3457 40.341 31.3457 40.3777C31.3457 40.4145 31.3746 40.4271 31.4099 40.4053C31.4452 40.3835 31.4932 40.3961 31.5164 40.4335C31.5395 40.4708 31.6211 40.5082 31.698 40.5173C31.7744 40.526 31.9271 40.5736 32.037 40.6231C32.1463 40.6725 32.2701 40.7 32.3118 40.6845C32.3528 40.6684 32.387 40.6834 32.387 40.7173C32.387 40.7512 32.4257 40.7644 32.4737 40.746C32.5217 40.7282 32.5605 40.7408 32.5605 40.7747C32.5605 40.8086 32.5993 40.8218 32.6473 40.8035C32.6953 40.7856 32.734 40.7948 32.734 40.8247C32.734 40.8873 33.1899 41.0488 33.2981 41.0241C33.338 41.0149 33.3704 41.0344 33.3704 41.0666C33.3704 41.0993 33.4745 41.1424 33.6018 41.1631C33.729 41.1832 33.8331 41.2211 33.8331 41.2481C33.8331 41.2746 33.8719 41.2815 33.9199 41.2631C33.9679 41.2453 34.0067 41.2579 34.0067 41.2918C34.0067 41.3257 34.0454 41.3389 34.0935 41.3205C34.1415 41.3027 34.1802 41.3142 34.1802 41.3464C34.1802 41.4107 34.6517 41.6061 34.8061 41.6061C34.8588 41.6061 34.9369 41.6411 34.9797 41.6836C35.0225 41.7256 35.0815 41.7457 35.111 41.7279C35.1405 41.7095 35.2041 41.7342 35.2527 41.7819C35.3007 41.8302 35.3788 41.8549 35.4257 41.837C35.4725 41.8192 35.5107 41.8313 35.5107 41.8646C35.5107 41.9307 35.7311 42.0192 35.8433 41.9979C35.8832 41.9904 35.9156 42.0094 35.9156 42.0399C35.9156 42.095 36.3107 42.253 36.3929 42.2306C36.4166 42.2243 36.4363 42.2444 36.4363 42.2748C36.4363 42.3053 36.475 42.3156 36.523 42.2972C36.571 42.2794 36.6098 42.2909 36.6098 42.3242C36.6098 42.3869 36.792 42.4621 36.9829 42.4788C37.0448 42.4845 37.1056 42.519 37.1177 42.5552C37.1304 42.592 37.164 42.6075 37.1935 42.5897C37.2224 42.5719 37.2461 42.5862 37.2461 42.6213C37.2461 42.6563 37.2721 42.6695 37.304 42.65C37.3358 42.6305 37.3618 42.6437 37.3618 42.6787C37.3618 42.7138 37.3861 42.7281 37.4156 42.7098C37.4816 42.6695 37.8824 42.8522 37.8824 42.9223C37.8824 42.9499 37.9085 42.9568 37.9403 42.9373C37.9721 42.9177 37.9981 42.931 37.9981 42.966C37.9981 43.001 38.0242 43.0143 38.056 42.9947C38.0878 42.9752 38.1138 42.9884 38.1138 43.0235C38.1138 43.0585 38.1399 43.0717 38.1717 43.0522C38.2035 43.0326 38.2295 43.0459 38.2295 43.0809C38.2295 43.116 38.2555 43.1292 38.2874 43.1096C38.3192 43.0901 38.3452 43.1033 38.3452 43.1384C38.3452 43.1734 38.3712 43.1866 38.4031 43.1671C38.4349 43.1476 38.4609 43.1579 38.4609 43.1906C38.4609 43.2228 38.4985 43.2355 38.5442 43.2182C38.5899 43.2004 38.6726 43.2389 38.7282 43.3033C38.7831 43.367 38.8502 43.4067 38.8762 43.3906C38.9023 43.3745 38.9237 43.3906 38.9237 43.4256C38.9237 43.4607 38.9497 43.4739 38.9815 43.4544C39.0133 43.4348 39.0394 43.448 39.0394 43.4831C39.0394 43.5181 39.0654 43.5313 39.0972 43.5118C39.129 43.4923 39.1551 43.5055 39.1551 43.5405C39.1551 43.5756 39.1811 43.5888 39.2129 43.5693C39.2447 43.5497 39.2708 43.5595 39.2708 43.5911C39.2708 43.6221 39.3622 43.6807 39.4732 43.7209C39.5843 43.7606 39.6757 43.8186 39.6757 43.8491C39.6757 43.8795 39.6913 43.8887 39.711 43.8697C39.7301 43.8502 39.7989 43.8841 39.8643 43.9444C39.9291 44.0042 40.0043 44.0398 40.0315 44.0237C40.0586 44.0071 40.0806 44.0226 40.0806 44.0576C40.0806 44.0927 40.1049 44.107 40.1344 44.0886C40.1639 44.0708 40.2056 44.0835 40.2264 44.1174ZM15.9208 36.4882C15.8913 36.4221 15.8439 36.3072 15.7935 36.1796C15.9225 36.4755 16.0839 36.7789 16.2077 36.9455C16.3454 37.1305 16.8712 37.6803 16.91 37.6803C16.9245 37.6803 17.0054 37.7447 17.0905 37.8228C17.1761 37.9015 17.2686 37.9515 17.2964 37.9342C17.3242 37.9176 17.3467 37.9308 17.3467 37.9641C17.3467 37.9974 17.3988 38.025 17.4624 38.025C17.5261 38.025 17.5781 38.0526 17.5781 38.0859C17.5781 38.1192 17.6042 38.1307 17.636 38.1112C17.6678 38.0917 17.6938 38.102 17.6938 38.1348C17.6938 38.1669 17.7332 38.179 17.7806 38.1606C17.828 38.1428 17.8674 38.1554 17.8674 38.1893C17.8674 38.2232 17.9067 38.2365 17.9541 38.2181C18.0016 38.2003 18.0409 38.2152 18.0409 38.252C18.0409 38.2887 18.0698 38.3014 18.1051 38.2795C18.1404 38.2577 18.1884 38.2703 18.2115 38.3077C18.2347 38.3445 18.381 38.3864 18.5378 38.4013C18.694 38.4157 18.9387 38.4375 19.0821 38.4502C19.2256 38.4628 20.032 38.5019 20.8754 38.5369C21.7188 38.5714 22.5125 38.6082 22.6397 38.6185C23.1204 38.657 23.3941 38.6536 23.4641 38.6093C23.5219 38.5731 23.5341 37.3775 23.5219 32.8221L23.5074 27.0802H20.9622C18.4233 27.0802 18.4157 27.0808 17.9906 27.2198C17.6724 27.3238 17.3693 27.4766 17.0928 27.6697C17.1067 27.6587 17.1153 27.6432 17.1153 27.626C17.1153 27.5944 17.1547 27.5685 17.2021 27.5685C17.2496 27.5685 17.2889 27.5467 17.2889 27.5203C17.2889 27.4726 17.898 27.1962 18.0102 27.1934C18.0432 27.1928 18.1028 27.1715 18.1427 27.1468C18.2642 27.071 18.8386 27.0434 21.1936 26.9986L23.4496 26.9555L21.1357 26.9469C18.7218 26.9383 18.4146 26.9618 17.7557 27.2049C17.0025 27.4829 16.2355 28.1879 15.8578 28.9486C15.4274 29.815 15.4222 29.8529 15.3944 32.3613C15.3672 34.7921 15.4083 35.4253 15.6327 36.0394C15.7629 36.3951 15.9283 36.7036 15.9896 36.7036C16.0053 36.7036 15.974 36.6065 15.9208 36.4882ZM42.4379 46.0593C42.6566 46.1386 42.892 46.1386 43.0459 46.0593C43.117 46.0231 43.2125 45.976 43.2582 45.9553C43.3039 45.934 43.3692 45.8674 43.4028 45.8059C43.4369 45.745 43.4907 45.6761 43.5225 45.6531C43.5543 45.6295 43.5595 45.61 43.5335 45.61C43.5081 45.6094 43.5023 45.5836 43.5214 45.5531C43.5405 45.5227 43.57 39.8411 43.5867 32.9278L43.6174 20.3582L43.4728 20.2019C43.3507 20.0697 43.2761 20.0439 42.995 20.0347C42.7838 20.0278 42.6525 20.0485 42.6386 20.0904C42.6265 20.1272 42.5727 20.1577 42.52 20.1582C42.4165 20.16 41.8739 20.6443 41.8739 20.7345C41.8739 20.7644 41.8531 20.7891 41.8282 20.7891C41.8027 20.7891 41.7316 20.8862 41.6691 21.0045C41.558 21.2159 41.5551 21.4331 41.5389 33.1128C41.5274 41.1804 41.5407 45.0717 41.5812 45.2113C41.646 45.433 42.0619 45.8961 42.1967 45.8961C42.2418 45.8961 42.2788 45.9197 42.2788 45.949C42.2788 45.9777 42.3505 46.0277 42.4379 46.0593ZM24.4139 47.961C24.488 47.9903 24.5765 48.0161 24.6106 48.0184C24.7934 48.0288 25.3522 47.8857 25.6108 47.7616C25.7739 47.6835 25.933 47.6197 25.9636 47.6197C26.051 47.6197 26.4866 47.2026 26.4866 47.1193C26.4866 47.0785 26.5143 47.0452 26.5479 47.0452C26.5814 47.0452 26.5942 47.0216 26.5762 46.9929C26.5583 46.9636 26.5745 46.9297 26.6121 46.9176C26.6503 46.905 26.6908 46.7447 26.7047 46.5534C26.7313 46.1794 26.685 46.0346 26.25 45.1205C26.1146 44.8361 25.9983 44.5776 25.9914 44.546C25.9845 44.5144 25.9121 44.3391 25.8306 44.157C25.749 43.9749 25.6871 43.8186 25.6941 43.81C25.7004 43.8014 25.6594 43.7238 25.6032 43.6388C25.5466 43.5532 25.5153 43.4831 25.5327 43.4831C25.5506 43.4831 25.5327 43.4251 25.4928 43.3538C25.4528 43.2826 25.4187 43.2119 25.4158 43.1958C25.3979 43.0826 25.244 42.6839 25.1775 42.5782C25.1324 42.5069 25.1087 42.4489 25.1248 42.4489C25.1515 42.4489 25.0063 42.0266 24.8489 41.6446C24.8165 41.5653 24.7864 41.4883 24.7824 41.4722C24.7783 41.4561 24.7407 41.3079 24.6997 41.1419C24.658 40.9758 24.6002 40.8253 24.5707 40.8075C24.5418 40.7897 24.5319 40.7523 24.5487 40.7253C24.5655 40.6983 24.5539 40.6604 24.5232 40.6414C24.4926 40.6225 24.481 40.5714 24.4978 40.5277C24.5151 40.4829 24.4816 40.434 24.4214 40.4145C24.0084 40.2847 20.0702 40.0698 19.9678 40.1715C19.9545 40.1847 20.0123 40.4248 20.0974 40.7046C20.1818 40.9844 20.2992 41.3814 20.3583 41.5871C20.4173 41.7928 20.5596 42.2191 20.6753 42.5351C20.7904 42.8511 20.9506 43.3165 21.031 43.5693C21.1114 43.8221 21.1976 44.0415 21.2225 44.0576C21.2474 44.0737 21.3006 44.203 21.3417 44.3449C21.3821 44.4868 21.4371 44.6281 21.4637 44.658C21.4903 44.6879 21.5111 44.7528 21.5111 44.8016C21.5106 44.8505 21.5933 45.0584 21.6945 45.2641C21.7958 45.4698 21.9109 45.7151 21.9496 45.8099C22.1023 46.1805 22.3493 46.6729 22.3922 46.6907C22.417 46.7016 22.4373 46.7378 22.4373 46.7717C22.4373 46.886 23.0435 47.4755 23.2726 47.5829C23.3975 47.6421 23.5352 47.7248 23.5774 47.7674C23.6202 47.8099 23.6937 47.83 23.7406 47.8122C23.7874 47.7944 23.8256 47.8076 23.8256 47.8415C23.8256 47.8754 23.8644 47.8886 23.9124 47.8702C23.9604 47.8518 23.9991 47.8685 23.9991 47.907C23.9991 47.9524 24.0483 47.9644 24.1391 47.942C24.2161 47.9231 24.3393 47.9311 24.4139 47.961ZM53.4196 32.8611C53.3218 32.8887 52.2522 32.91 51.0432 32.9082C49.0562 32.9054 48.8196 32.895 48.5853 32.8008C48.2376 32.6612 48.0606 32.3498 48.1214 31.9844C48.1862 31.596 48.2712 31.4392 48.4794 31.3237C48.6547 31.226 48.8566 31.2157 50.898 31.1996C52.324 31.1887 53.2125 31.2042 53.3681 31.2427C53.6758 31.3191 53.8615 31.4955 53.9616 31.8057C54.1016 32.2395 53.8448 32.7399 53.4196 32.8611ZM48.8364 28.1718C48.7438 28.2637 48.3724 28.2798 48.1173 28.2034C47.9542 28.154 47.6516 27.8817 47.7031 27.8305C47.7211 27.8127 47.7072 27.7984 47.673 27.7984C47.5822 27.7984 47.529 27.499 47.5759 27.2525C47.6129 27.0566 47.9953 26.5918 48.1196 26.5918C48.1457 26.5918 48.1821 26.5533 48.2 26.5057C48.2185 26.458 48.2619 26.4195 48.2972 26.4195C48.3325 26.4195 48.3973 26.3873 48.4418 26.3477C48.6287 26.181 48.6981 26.1322 48.7467 26.1322C48.775 26.1322 48.8687 26.0679 48.9549 25.9886C49.0406 25.9093 49.136 25.8449 49.1672 25.8449C49.1985 25.8449 49.239 25.8065 49.2575 25.7588C49.2754 25.7111 49.3275 25.6726 49.3732 25.6726C49.4183 25.6726 49.4704 25.6341 49.4889 25.5864C49.5068 25.5387 49.5554 25.5002 49.5965 25.5002C49.6375 25.5002 49.7324 25.4359 49.8076 25.3577C49.8822 25.279 49.9759 25.2147 50.0159 25.2141C50.0558 25.2135 50.0882 25.1871 50.0882 25.1555C50.0882 25.1239 50.1269 25.0981 50.1749 25.0981C50.2229 25.0981 50.2617 25.0722 50.2617 25.0406C50.2617 25.009 50.2889 24.9831 50.3219 24.9831C50.3786 24.9831 50.4439 24.9383 50.6354 24.7677C50.6799 24.7281 50.7441 24.6959 50.7783 24.6959C50.8124 24.6959 50.8402 24.67 50.8402 24.6384C50.8402 24.6068 50.8679 24.581 50.9021 24.581C50.9362 24.581 51.0045 24.5408 51.0542 24.4913C51.1213 24.4247 51.2393 24.4063 51.5129 24.4184C51.7154 24.4276 51.8814 24.4546 51.8814 24.4793C51.8814 24.5034 51.9138 24.5247 51.9537 24.527C52.0648 24.5316 52.2638 24.8171 52.306 25.0337C52.3714 25.3664 52.1082 25.9599 51.8953 25.9599C51.8629 25.9599 51.8207 25.9983 51.8028 26.046C51.7842 26.0937 51.7293 26.1322 51.6807 26.1322C51.6321 26.1322 51.5922 26.1569 51.5922 26.1868C51.5922 26.2172 51.5031 26.2839 51.3944 26.335C51.285 26.3862 51.1821 26.4649 51.1647 26.5103C51.1473 26.5551 51.093 26.5918 51.0444 26.5918C50.9958 26.5918 50.9559 26.6177 50.9559 26.6493C50.9559 26.6809 50.9177 26.7067 50.8714 26.7067C50.8246 26.7067 50.758 26.759 50.7233 26.8234C50.6892 26.8871 50.636 26.9245 50.6059 26.9061C50.5758 26.8877 50.5509 26.9004 50.5509 26.9348C50.5509 26.9687 50.4862 27.0216 50.4063 27.0515C50.3265 27.0813 50.2617 27.1325 50.2617 27.1652C50.2617 27.1974 50.2253 27.2238 50.1813 27.2238C50.1368 27.2238 50.0847 27.264 50.0656 27.3134C50.0465 27.3629 50.0049 27.387 49.9725 27.3675C49.9401 27.3479 49.8996 27.3686 49.8816 27.414C49.8643 27.4594 49.7602 27.5444 49.6508 27.603C49.5415 27.6616 49.4518 27.7294 49.4518 27.7541C49.4518 27.7782 49.4195 27.7989 49.3795 27.7995C49.3396 27.8001 49.2459 27.8644 49.1713 27.9431C49.0961 28.0213 49.0099 28.0856 48.9787 28.0856C48.948 28.0856 48.8838 28.1241 48.8364 28.1718ZM51.7108 39.5125C51.3822 39.6372 50.9003 39.6125 50.8523 39.4682C50.8402 39.4332 50.7939 39.4039 50.7488 39.4039C50.7037 39.4039 50.6666 39.378 50.6666 39.3464C50.6666 39.3148 50.6279 39.289 50.5799 39.289C50.5319 39.289 50.4931 39.2631 50.4931 39.2315C50.4931 39.1999 50.4543 39.1741 50.4063 39.1741C50.3583 39.1741 50.3196 39.1471 50.3196 39.1138C50.3196 39.0804 50.2282 39.0155 50.1171 38.9696C50.006 38.923 49.9146 38.8598 49.9146 38.8288C49.9146 38.7972 49.8759 38.7719 49.8279 38.7719C49.7798 38.7719 49.7411 38.7461 49.7411 38.7145C49.7411 38.6829 49.7087 38.657 49.6688 38.657C49.6289 38.6564 49.4975 38.5662 49.3761 38.4559C49.2552 38.345 49.1215 38.2548 49.0787 38.2548C49.0365 38.2548 48.9885 38.2215 48.9729 38.1813C48.9573 38.1405 48.8259 38.0469 48.6807 37.9727C48.5361 37.8986 48.4037 37.8027 48.3869 37.759C48.3701 37.7159 48.3163 37.6803 48.2677 37.6803C48.2191 37.6803 48.1792 37.6545 48.1792 37.6229C48.1792 37.5913 48.1405 37.5654 48.0924 37.5654C48.0444 37.5654 48.0057 37.539 48.0057 37.5068C48.0057 37.474 47.9409 37.4229 47.8611 37.393C47.7812 37.3632 47.7164 37.2988 47.7164 37.2506C47.7164 37.2029 47.6945 37.1632 47.6678 37.1632C47.5828 37.1632 47.5921 36.5088 47.68 36.3003C47.8298 35.9464 48.2405 35.8102 48.6813 35.9682C48.7872 36.0061 48.8734 36.0578 48.8734 36.0831C48.8734 36.1084 48.9121 36.1291 48.9601 36.1291C49.0082 36.1291 49.0469 36.1549 49.0469 36.1865C49.0469 36.2181 49.0845 36.244 49.1308 36.244C49.1771 36.244 49.2413 36.2894 49.2737 36.3445C49.3061 36.3997 49.3333 36.4221 49.3344 36.3939C49.3356 36.3663 49.405 36.4112 49.4889 36.4945C49.5727 36.5778 49.6769 36.6461 49.7203 36.6461C49.7636 36.6461 49.7989 36.672 49.7989 36.7036C49.7989 36.7352 49.8377 36.7611 49.8857 36.7611C49.9337 36.7611 49.9725 36.7869 49.9725 36.8185C49.9725 36.8501 50.0124 36.876 50.061 36.876C50.1096 36.876 50.1645 36.9145 50.183 36.9621C50.201 37.0098 50.2524 37.0483 50.297 37.0483C50.341 37.0483 50.3774 37.0742 50.3774 37.1058C50.3774 37.1374 50.4162 37.1632 50.4642 37.1632C50.5122 37.1632 50.5509 37.1891 50.5509 37.2207C50.5509 37.2523 50.5897 37.2781 50.6377 37.2781C50.6857 37.2781 50.7245 37.304 50.7245 37.3356C50.7245 37.3672 50.7632 37.393 50.8113 37.393C50.8593 37.393 50.898 37.4189 50.898 37.4505C50.898 37.4821 50.9368 37.5079 50.9848 37.5079C51.0328 37.5079 51.0716 37.5338 51.0716 37.5654C51.0716 37.597 51.1103 37.6229 51.1583 37.6229C51.2063 37.6229 51.2451 37.6487 51.2451 37.6803C51.2451 37.7119 51.2839 37.7378 51.3319 37.7378C51.3799 37.7378 51.4186 37.7636 51.4186 37.7952C51.4186 37.8268 51.4551 37.8527 51.4991 37.8527C51.5436 37.8527 51.5951 37.8912 51.613 37.9388C51.6315 37.9865 51.6761 38.025 51.7119 38.025C51.7796 38.025 51.9705 38.237 52.096 38.4513C52.2771 38.7587 52.0498 39.3844 51.7108 39.5125ZM47.6661 27.6398C47.6349 27.5823 47.6308 27.433 47.6563 27.2951C47.7078 27.0158 47.6829 26.9808 47.5955 27.2089C47.5284 27.3835 47.5741 27.7409 47.6632 27.7409C47.7002 27.7409 47.7008 27.7047 47.6661 27.6398ZM17.0882 27.6725C16.7081 27.938 16.3778 28.2781 16.1262 28.6682C16.1262 28.6636 16.1221 28.6613 16.1134 28.6613C16.0874 28.6607 16.1001 28.6234 16.1424 28.5791C16.1846 28.5343 16.2835 28.4125 16.3633 28.308C16.4432 28.2034 16.5542 28.0787 16.6103 28.0299C16.667 27.9816 16.774 27.884 16.8487 27.8127C16.9233 27.7415 17.0135 27.6834 17.0494 27.6834C17.0639 27.6834 17.0777 27.6794 17.0882 27.6725ZM15.6321 35.7568L15.5246 35.4684V32.8255C15.5246 35.1736 15.535 35.4448 15.631 35.7528L15.6321 35.7568ZM16.114 28.6866C16.0654 28.7636 16.0197 28.8417 15.9775 28.9221C15.8901 29.0876 15.8196 29.2209 15.7623 29.3502C15.797 29.2588 15.8306 29.1818 15.8572 29.1376C15.9179 29.0342 15.9746 28.9089 15.9821 28.8578C15.9891 28.8072 16.0325 28.7423 16.0781 28.7142C16.0938 28.7038 16.1059 28.6946 16.114 28.6866ZM44.1993 47.1676C44.5453 46.8745 44.7419 46.6315 44.9033 46.2983L45.0844 45.9248L44.9062 46.2983C44.7396 46.647 44.4857 46.9527 44.1993 47.1676ZM15.6032 29.8891C15.5523 30.197 15.5344 30.6164 15.528 31.3271C15.5344 30.4309 15.5535 30.1333 15.6032 29.8891Z" fill="#E8ECDF"/>
</svg>
