<svg width="67" height="67" viewBox="0 0 67 67" fill="none" xmlns="http://www.w3.org/2000/svg">
<rect width="67" height="67" rx="33.5" fill="#676B5D"/>
<path d="M15.6295 39.1757C15.5888 39.1348 15.2971 38.9758 14.9808 38.8223C13.9314 38.3114 13.6082 37.8253 13.5898 36.7265C13.5683 35.4703 13.8339 33.8869 14.1809 33.1963C14.3421 32.8745 14.349 32.8406 14.2185 33.0003C14.0504 33.2055 13.7633 34.0767 13.6151 34.8159C13.8163 33.5157 14.2707 32.606 14.947 32.1754C15.2664 31.9725 15.4253 31.778 15.4744 31.5311C15.4867 31.4694 15.5159 31.366 15.5389 31.3027C15.6126 31.1021 15.6541 30.957 15.6479 30.9169C15.6448 30.896 15.6955 30.7741 15.7608 30.6468C15.8268 30.5195 15.9404 30.2764 16.0149 30.1067C16.0886 29.9369 16.2098 29.6591 16.2835 29.4894C16.358 29.3196 16.5637 28.8944 16.7418 28.5441C16.9199 28.1938 17.0451 27.9075 17.0205 27.9075C16.9721 27.9075 17.3506 27.1228 17.4297 27.0587C17.4558 27.0379 17.6316 26.6991 17.8196 26.3064C18.0077 25.9136 18.185 25.5926 18.2142 25.5926C18.2426 25.5926 18.2879 25.5085 18.3132 25.4051C18.3393 25.3017 18.4031 25.1705 18.456 25.1127C18.509 25.0548 18.6902 24.74 18.8583 24.4128C19.0272 24.0856 19.1868 23.8179 19.2137 23.8179C19.2413 23.8179 19.2828 23.7569 19.3058 23.6828C19.358 23.5192 19.5906 23.128 19.7227 22.9853C19.7756 22.9282 19.8186 22.8309 19.8186 22.7708C19.8186 22.7098 19.8486 22.6604 19.8846 22.6604C19.9215 22.6604 20.0082 22.5107 20.0773 22.3278C20.1472 22.145 20.2539 21.9281 20.3153 21.8456C20.3767 21.763 20.6216 21.3139 20.8596 20.8471C21.0976 20.3802 21.3232 19.9867 21.3616 19.9728C21.3992 19.9582 21.4307 19.9003 21.4307 19.8432C21.4307 19.7861 21.4737 19.6919 21.5267 19.6341C21.5796 19.5762 21.6602 19.4605 21.7063 19.3779C21.8491 19.1217 22.4156 18.7351 22.8302 18.6117C24.2158 18.1973 26.6823 18.9905 27.443 20.0947C28.0272 20.942 28.008 21.817 27.3747 23.1581C27.2296 23.4645 27.1114 23.7407 27.1114 23.7716C27.1114 23.8024 26.9955 24.0771 26.8543 24.3819C26.4819 25.1829 26.267 25.7624 26.267 25.9645C26.267 26.0903 26.3376 26.1698 26.5165 26.2439C26.9564 26.4252 27.8369 26.5402 28.5139 26.5047C29.049 26.4761 29.2233 26.4345 29.4459 26.2817C29.5971 26.1791 29.7207 26.0541 29.7207 26.0039C29.7215 25.9545 29.7476 25.9028 29.779 25.8882C29.8105 25.8743 29.9195 25.6976 30.0201 25.4962C30.1207 25.2948 30.2335 25.1296 30.2696 25.1296C30.3057 25.1296 30.3356 25.0833 30.3356 25.0262C30.3356 24.9699 30.569 24.6983 30.8538 24.4236C31.471 23.8279 32.0728 23.5555 32.9457 23.476C34.1117 23.3703 35.2886 23.8865 35.7968 24.7276C35.8919 24.885 35.9902 25.0316 36.0148 25.0525C36.0593 25.0911 36.5114 26.0332 36.6258 26.3257C36.8538 26.9098 36.9552 27.0688 37.1478 27.1467C37.6107 27.3319 37.9009 27.5171 37.9861 27.6807C38.0353 27.7748 38.1619 27.933 38.2686 28.0317C38.3746 28.1305 38.4836 28.2818 38.5104 28.3682C38.5373 28.4546 38.5918 28.5248 38.6317 28.5248C38.6709 28.5248 38.7031 28.5688 38.7031 28.622C38.7031 28.6753 38.7814 28.8057 38.8766 28.9114C38.9718 29.0171 39.0908 29.1961 39.1407 29.3096C39.2789 29.6221 39.4831 29.8366 39.7517 29.9508C40.0765 30.0889 40.2093 30.2324 41.0652 31.3629C41.1381 31.4593 41.241 31.5867 41.294 31.6461C41.3469 31.7063 41.3899 31.7919 41.3899 31.8374C41.3899 31.883 41.4245 31.92 41.4667 31.92C41.5089 31.92 41.5435 31.9563 41.5435 32.001C41.5435 32.1237 41.9319 32.4648 42.2344 32.6083C42.546 32.7565 43.0473 33.2619 44.1773 34.5675C44.6847 35.1539 45.1891 35.343 47.4199 35.7843C48.2997 35.9587 49.194 36.1694 49.4074 36.2535C49.9547 36.4688 50.4484 36.7219 50.4484 36.7867C50.4484 36.8168 50.529 36.8623 50.628 36.887C50.9189 36.9603 52.214 38.306 52.214 38.536C52.214 38.5892 52.2447 38.6332 52.2823 38.6332C52.3207 38.6332 52.4443 38.8678 52.5587 39.1541C52.6723 39.4403 52.792 39.7096 52.8243 39.7521C52.8772 39.82 52.9709 40.1965 53.2112 41.2953C53.2488 41.4651 53.3371 42.4242 53.4085 43.4274C53.5305 45.1411 53.5305 45.2862 53.4085 45.8387C53.3371 46.162 53.2457 46.4267 53.2066 46.4267C53.1674 46.4267 53.1352 46.4846 53.1352 46.5548C53.1352 46.8557 52.2877 47.9044 52.0965 47.8403C52.0558 47.8272 51.9207 47.9036 51.7964 48.0108C51.6728 48.1181 51.4824 48.2238 51.3742 48.2454C51.2659 48.267 51.0817 48.3342 50.965 48.3951C50.7846 48.4877 49.7406 48.5039 44.2479 48.4993C40.6706 48.4962 37.6745 48.4769 37.59 48.4569C36.9505 48.3048 36.0163 47.9599 36.0163 47.8758C36.0163 47.8426 35.9495 47.8156 35.8681 47.8156C35.7868 47.8156 35.6747 47.7701 35.6187 47.7153C35.5626 47.6598 35.3638 47.5533 35.1765 47.4784C34.9884 47.4036 34.7466 47.2832 34.6391 47.2107C34.5309 47.1389 34.1486 46.9298 33.7901 46.7461C33.4316 46.5625 32.9564 46.3156 32.7345 46.1975C32.5127 46.0787 32.3315 45.9961 32.3315 46.0123C32.3315 46.0293 32.1941 45.9552 32.026 45.8487C31.8579 45.7423 31.6921 45.6551 31.6575 45.6551C31.623 45.6551 31.5278 45.6034 31.4449 45.5401C31.3627 45.4768 30.8116 45.1766 30.2205 44.8734C29.6294 44.5701 29.1342 44.2924 29.1204 44.2553C29.1058 44.219 29.0574 44.189 29.0114 44.189C28.9262 44.189 27.4868 43.3625 27.4185 43.2738C27.3978 43.2468 27.179 43.1202 26.9333 42.9929C26.6869 42.8656 26.4267 42.7097 26.3545 42.6457C25.8586 42.2089 25.3489 41.9798 25.1324 42.0963C25.0495 42.141 24.9604 42.1557 24.9336 42.1287C24.9067 42.1017 24.8852 42.121 24.8852 42.1711C24.8852 42.2221 24.7056 42.3417 24.4868 42.4381C24.1544 42.5847 24.0139 42.6048 23.6408 42.5608C23.3944 42.5315 23.0121 42.4219 22.7918 42.3177C22.5707 42.2136 22.2268 42.0677 22.0264 41.9944C21.8261 41.9219 21.6426 41.8301 21.6188 41.7907C21.595 41.7514 21.5136 41.7197 21.4392 41.7197C21.3647 41.7197 21.1336 41.6333 20.9256 41.5268C20.7176 41.4211 20.5218 41.3347 20.4903 41.3339C20.4589 41.3339 20.217 41.2351 19.953 41.1148C19.6889 40.9944 19.0418 40.712 18.5136 40.4882C17.9855 40.2637 17.5195 40.0553 17.4773 40.0245C17.435 39.9928 17.2109 39.9033 16.9783 39.8238C16.7457 39.7444 16.4739 39.6178 16.3734 39.5422C16.272 39.4666 16.1277 39.4048 16.0509 39.4048C15.9749 39.4048 15.8913 39.3701 15.8652 39.3277C15.8391 39.2852 15.7677 39.2505 15.707 39.2505C15.5957 39.2505 15.2472 39.0977 14.9041 38.9164C14.9048 38.9125 14.9056 38.9079 14.9056 38.9033C14.9071 38.8554 14.9294 38.857 14.9647 38.9071C14.9954 38.9519 15.1589 39.0437 15.3278 39.1116C15.7086 39.2652 15.7208 39.2675 15.6295 39.1757ZM39.1906 42.898C39.3656 42.9142 42.2106 42.9335 45.5115 42.9412L45.9706 42.942C50.9949 42.9536 51.54 42.9543 51.6298 42.7522C51.6428 42.7213 51.6459 42.6866 51.6528 42.6457C51.6989 42.3648 51.4939 41.1194 51.3281 40.678C51.2291 40.4118 51.1684 40.1726 51.1945 40.1464C51.2206 40.1209 51.2014 40.0993 51.1523 40.0993C51.1032 40.0993 51.0709 40.0715 51.0817 40.0368C51.0924 40.0028 50.9719 39.7644 50.8145 39.5075C50.3094 38.6818 49.247 37.8245 48.6413 37.7543C48.5545 37.7443 48.4501 37.715 48.4087 37.6895C48.2175 37.5707 47.0138 37.3137 46.8258 37.3515C46.7106 37.3747 46.5932 37.3569 46.5663 37.3122C46.5386 37.2674 46.4511 37.2481 46.3713 37.269C46.2915 37.2898 46.2093 37.279 46.1878 37.2443C46.1663 37.2095 45.9683 37.1571 45.7464 37.127C45.5246 37.0969 45.2889 37.0436 45.2221 37.0081C45.1553 36.9726 44.9373 36.9356 44.7377 36.9248C44.5381 36.9148 44.3577 36.8785 44.3362 36.8438C44.3155 36.8091 44.1781 36.7813 44.0315 36.7813C43.8227 36.7813 43.7136 36.8399 43.5294 37.0514C43.3997 37.1995 43.2653 37.3214 43.2316 37.3214C43.1978 37.3214 43.0435 37.4341 42.8884 37.5722C42.7333 37.7103 42.5898 37.8122 42.5683 37.7983C42.5468 37.7852 42.467 37.8477 42.3894 37.9364C42.3127 38.0259 42.1783 38.1131 42.09 38.1301C42.0025 38.1471 41.8544 38.232 41.7615 38.3199C41.5059 38.5591 40.8871 38.5414 40.5931 38.2875C40.2914 38.0267 40.1901 37.796 40.2369 37.4781C40.2692 37.2605 40.3551 37.1563 40.699 36.9171C40.9309 36.7551 41.1727 36.5807 41.2364 36.5282C41.3001 36.4765 41.5335 36.3006 41.7553 36.1377C42.4977 35.5922 42.5445 35.3869 42.034 34.9132C41.839 34.7326 41.6517 34.5104 41.6172 34.4193C41.5757 34.3105 41.4682 34.2411 41.3009 34.2164C41.0944 34.1863 40.9723 34.2349 40.6438 34.4787C40.4219 34.6431 40.2231 34.7774 40.2016 34.7766C40.0396 34.7704 40.0081 34.7882 40.0081 34.8854C40.0081 34.9463 39.9329 35.0204 39.8416 35.049C39.7494 35.0783 39.6051 35.1678 39.5199 35.2473C39.4347 35.3275 39.3196 35.3923 39.2643 35.3923C39.209 35.3923 39.1637 35.4271 39.1637 35.4695C39.1637 35.5119 39.0969 35.5467 39.0148 35.5467C38.9326 35.5467 38.8421 35.5853 38.8129 35.6323C38.7799 35.6856 38.6141 35.7049 38.3792 35.6817C37.8318 35.6292 37.5977 35.3769 37.5931 34.8368C37.5931 34.8044 37.5923 34.7743 37.5915 34.7465C37.5892 34.6616 37.5877 34.5991 37.6038 34.542C37.656 34.3599 37.8894 34.231 38.8628 33.6176C39.6013 33.1523 39.893 32.9092 39.8915 32.7611C39.8915 32.6932 39.7963 32.5134 39.6804 32.3614C39.5652 32.2094 39.4708 32.0543 39.4708 32.0165C39.4708 31.9408 39.1146 31.6638 38.9273 31.5944C38.8528 31.5666 38.611 31.6931 38.3009 31.9215C38.0237 32.1268 37.7758 32.2742 37.7504 32.2487C37.7259 32.2233 37.7052 32.2395 37.7052 32.2842C37.7052 32.3807 37.329 32.6399 37.1893 32.6399C37.1356 32.6399 37.091 32.67 37.091 32.7063C37.091 32.7426 37.0135 32.8082 36.9183 32.8514C36.8231 32.8946 36.6596 32.9795 36.5537 33.0412C36.1645 33.2673 35.35 33.1037 35.1688 32.7634C35.122 32.6754 35.0959 32.4447 35.1097 32.2495L35.135 31.8953L36.2274 31.2325C36.8285 30.8683 37.3896 30.5095 37.4741 30.4354C37.6921 30.2456 37.666 29.9979 37.3812 29.5604C36.8554 28.754 36.6481 28.7501 35.7284 29.5295C35.6755 29.5742 35.6317 29.5835 35.6309 29.5503C35.6309 29.5171 35.6048 29.5264 35.5734 29.5727C35.4759 29.7162 34.9185 30.0627 34.8518 30.0218C34.8164 29.9994 34.788 30.0133 34.788 30.0511C34.788 30.1298 33.8338 30.6213 33.5982 30.6646C33.5137 30.68 33.3326 30.6723 33.1959 30.6468C32.7092 30.5581 32.3446 29.6391 32.6962 29.3898C32.7699 29.3373 33.2105 29.0835 33.6749 28.8258C34.1394 28.568 34.5884 28.2949 34.6729 28.2193C34.7573 28.1429 34.9017 28.0418 34.9938 27.9947C35.168 27.9044 35.2548 27.5749 35.1596 27.3674C35.0936 27.2231 35.0007 26.9677 34.9777 26.8658C34.9416 26.7053 34.3988 25.8527 34.1862 25.6227C33.8807 25.2909 33.0155 25.0077 32.8413 25.1829C32.8121 25.2122 32.7184 25.2469 32.6332 25.26C32.2494 25.3195 31.7819 25.8534 31.3382 26.7393C31.1063 27.2022 30.5206 27.8875 30.4323 27.7995C30.4101 27.7763 30.3049 27.8273 30.1982 27.9114C30.0846 28.0009 29.9456 28.0456 29.8627 28.0194C29.7844 27.9939 29.6255 28.0209 29.5096 28.0796C29.3591 28.1544 29.0812 28.1753 28.5316 28.1521C27.4308 28.1058 27.2404 28.0904 27.1114 28.0364C27.0485 28.0101 26.8757 27.9746 26.7276 27.9584C26.5794 27.9422 26.3614 27.889 26.2424 27.8412C26.1242 27.7925 26.0029 27.7532 25.9737 27.7524C25.9453 27.7524 25.801 27.7185 25.6529 27.6768C25.4103 27.6081 25.3036 27.5371 24.8338 27.1297C24.6549 26.9738 23.8703 25.9877 22.92 24.7245C22.7688 24.5231 22.6098 24.358 22.5684 24.358C22.5262 24.358 22.3135 24.206 22.0955 24.0208C21.595 23.5941 21.43 23.5408 21.2081 23.7338C21.1137 23.8163 21.0369 23.912 21.0361 23.9467C21.0361 24.0177 20.5848 24.8372 20.5126 24.8981C20.4873 24.919 20.4013 25.0857 20.3214 25.2685C20.2416 25.4506 20.1372 25.6243 20.0888 25.6543C20.0412 25.6837 19.9407 25.8735 19.8655 26.0749C19.791 26.2763 19.6973 26.4414 19.659 26.4414C19.6198 26.4414 19.5883 26.4947 19.5883 26.5602C19.5883 26.6791 19.3028 27.2948 19.2137 27.3674C19.1876 27.3882 19.16 27.4414 19.1531 27.4847C19.1454 27.5271 19.0164 27.7825 18.8652 28.051C18.714 28.3196 18.5904 28.5719 18.5904 28.612C18.5904 28.6514 18.5082 28.8481 18.4069 29.048C18.2242 29.4122 17.3867 31.4709 17.1994 32.0172C17.0727 32.3892 17.1072 32.4231 18.053 32.8444C21.3516 34.3151 22.1684 34.6894 24.5682 35.8268C25.0487 36.0552 25.4525 36.2411 25.4663 36.2411C25.5446 36.2411 30.417 38.5977 31.8671 39.3369C32.8152 39.82 34.1624 40.5052 34.861 40.8594C35.5595 41.2128 36.143 41.5345 36.1568 41.5731C36.1714 41.6109 36.2282 41.6426 36.285 41.6426C36.341 41.6426 36.9459 41.9188 37.6299 42.256C38.4022 42.6364 38.9933 42.8803 39.1906 42.898ZM38.1005 46.8071C38.284 46.8434 41.043 46.8758 44.2303 46.8804C50.3524 46.8881 50.4399 46.8835 51.0433 46.5332C51.1807 46.4537 51.3127 46.3271 51.3365 46.2531C51.3603 46.179 51.4102 46.118 51.4478 46.118C51.4855 46.118 51.5392 45.9961 51.5668 45.8472C51.5945 45.6983 51.6405 45.5617 51.6682 45.5447C51.6966 45.527 51.7158 45.3449 51.7127 45.1404L51.705 44.7677L45.3388 44.7252C39.8538 44.689 38.9135 44.6658 38.5496 44.5609C38.0222 44.4089 37.4925 44.1974 37.2538 44.0439C37.1532 43.9791 36.8078 43.8024 36.4861 43.6504C35.9173 43.3826 34.755 42.7661 34.2891 42.486C34.1624 42.4096 33.8346 42.2375 33.5598 42.1025C33.285 41.9674 33.0431 41.8324 33.0224 41.8015C33.0017 41.7714 32.5526 41.5291 32.0245 41.2637C31.4963 40.999 30.5291 40.506 29.875 40.1695C29.221 39.8323 28.4779 39.4635 28.2245 39.35C27.9712 39.2366 27.3018 38.921 26.7368 38.6486C26.1726 38.3762 25.6682 38.1478 25.616 38.1401C25.5646 38.1324 25.4394 38.0715 25.3381 38.0051C25.2368 37.9387 25.0241 37.8377 24.866 37.7805C24.7079 37.7234 24.5781 37.6486 24.5781 37.6146C24.5781 37.5807 24.5229 37.5529 24.4553 37.5529C24.3878 37.5529 24.1713 37.4719 23.9755 37.3724C23.779 37.2728 23.4374 37.0992 23.2155 36.9865C22.9937 36.8739 22.7603 36.7813 22.6974 36.7813C22.6336 36.7813 22.5822 36.7466 22.5822 36.7041C22.5822 36.6617 22.5208 36.627 22.4456 36.627C22.3703 36.627 22.2345 36.5745 22.1431 36.5097C22.0518 36.4456 21.9489 36.4001 21.9143 36.4094C21.8806 36.4194 21.7101 36.3515 21.5359 36.2597C21.3616 36.1686 21.1989 36.1146 21.1736 36.1401C21.1482 36.1655 21.1052 36.1293 21.0791 36.059C21.0523 35.9896 20.9663 35.9325 20.8887 35.9325C20.8104 35.9325 20.5709 35.8283 20.356 35.701C20.141 35.5737 19.9461 35.4695 19.923 35.4695C19.8701 35.4695 19.4448 35.2882 18.9358 35.0482C18.7247 34.9487 18.3961 34.8044 18.2065 34.7272C18.0169 34.6493 17.8442 34.5675 17.8227 34.5436C17.8012 34.5196 17.6285 34.4371 17.4389 34.3584C17.2493 34.2804 17.0243 34.1871 16.9399 34.1523C16.3772 33.9154 16.1968 33.8645 16.008 33.8853C15.8905 33.8977 15.7815 33.9479 15.7654 33.9957C15.7493 34.0443 15.6947 34.1261 15.6441 34.1786C15.5128 34.3128 15.3585 35.2164 15.3101 36.1323C15.2702 36.8785 15.2764 36.9171 15.4514 37.0838C15.7523 37.3693 16.3572 37.6525 19.9338 39.1818C20.8204 39.5615 21.7769 39.9766 22.0594 40.1055C22.8716 40.4743 23.5188 40.7166 23.6907 40.7158C23.7775 40.7151 24.1252 40.5708 24.463 40.3941C24.9589 40.1363 25.1554 40.0746 25.4809 40.0762C25.4986 40.0762 25.5147 40.0762 25.5308 40.0762C25.603 40.0762 25.6605 40.0762 25.7181 40.0831C25.9707 40.114 26.2071 40.2814 27.549 41.1873C28.0894 41.5523 28.8248 42.0307 29.1841 42.2506C29.5434 42.4713 29.8888 42.6835 29.9518 42.7229C30.3617 42.9775 33.5153 44.6728 35.0567 45.4675C36.9406 46.439 37.514 46.6906 38.1005 46.8071ZM24.747 24.5741C24.7977 24.625 24.8545 24.6667 24.8729 24.6667C24.9466 24.6667 25.1109 24.3881 25.1132 24.2585C25.1147 24.1828 25.1715 24.0355 25.2399 23.9305C25.3074 23.8264 25.3412 23.7407 25.3143 23.7407C25.2875 23.7407 25.322 23.6543 25.3911 23.5478C25.4602 23.4413 25.4932 23.3549 25.4648 23.3549C25.4364 23.3549 25.4886 23.2075 25.5815 23.0269C25.6736 22.8464 25.7987 22.6033 25.8594 22.4868C25.9192 22.3695 25.9837 22.2052 26.0029 22.1203C26.059 21.8656 26.0966 21.7075 26.1534 21.4829C26.1948 21.3185 26.1618 21.2097 26.0075 21.0068C25.7811 20.7082 24.9144 20.256 24.5175 20.229C24.3793 20.219 24.2442 20.1896 24.2173 20.1626C24.1436 20.0886 23.6147 20.1048 23.3975 20.1881C23.0789 20.3093 22.7403 20.7306 22.4225 21.4011C22.2567 21.7491 22.1216 22.0701 22.1216 22.1141C22.1216 22.1581 22.355 22.3487 22.6406 22.5377C23.1572 22.8803 24.6549 24.2708 24.6549 24.4089C24.6549 24.4491 24.6964 24.5231 24.747 24.5741ZM19.9223 48.159L19.6413 48.4329H17.5855C16.2751 48.4329 15.5113 48.4044 15.4806 48.3542C15.4537 48.311 15.4007 48.2956 15.3623 48.3195C15.2541 48.3866 14.9831 47.8835 14.9824 47.615C14.9824 47.1273 15.0154 47.1212 17.5448 47.1212H19.8263L20.0121 47.3334C20.2715 47.6304 20.2493 47.8395 19.9223 48.159ZM26.0543 48.1675L25.7826 48.4329H23.8036C22.5454 48.4329 21.8061 48.4044 21.7754 48.3542C21.7485 48.311 21.6979 48.294 21.6618 48.3164C21.5213 48.4044 21.2887 47.9692 21.311 47.6605C21.3217 47.5047 21.3232 47.3943 21.3739 47.3156C21.499 47.1204 21.9243 47.1204 23.5349 47.1212C23.6086 47.1212 23.6846 47.1212 23.7629 47.1212C25.9975 47.1212 25.9998 47.1212 26.1142 47.2948C26.3614 47.6706 26.3468 47.882 26.0543 48.1675ZM13.5 37.0598C13.5154 37.3909 13.5653 37.5097 13.7042 37.7759C13.8232 38.0043 14.0251 38.2798 14.1533 38.3878C14.2807 38.4959 14.425 38.6209 14.4742 38.6664C14.4772 38.6695 14.4803 38.6718 14.4834 38.6749C14.3836 38.6116 14.2961 38.5514 14.2316 38.4989C14.0512 38.3531 13.8101 38.0545 13.6965 37.8353C13.5576 37.5684 13.5115 37.4534 13.5 37.0598ZM14.6093 38.7513C14.6331 38.7621 14.6561 38.7698 14.6761 38.7744C14.7352 38.7875 14.8066 38.8346 14.8403 38.8817C14.7613 38.8392 14.683 38.7952 14.6093 38.7513Z" fill="#E8ECDF"/>
</svg>
