<svg width="14" height="14" viewBox="0 0 14 14" fill="none" xmlns="http://www.w3.org/2000/svg">
<path d="M5.95806 7.56348H9.1686M4.03174 7.56348H4.03751M7.24228 10.1319H4.03174M9.1686 10.1319H9.16283" stroke="#676B5D" stroke-linecap="round" stroke-linejoin="round"/>
<path d="M10.4528 0.5V1.78421M2.74756 0.5V1.78421" stroke="#676B5D" stroke-linecap="round" stroke-linejoin="round"/>
<path d="M0.5 7.07773C0.5 4.27987 0.5 2.88094 1.30399 2.01176C2.10799 1.14258 3.402 1.14258 5.99002 1.14258H7.21002C9.79804 1.14258 11.0921 1.14258 11.896 2.01176C12.7 2.88094 12.7 4.27987 12.7 7.07773V7.40746C12.7 10.2053 12.7 11.6043 11.896 12.4734C11.0921 13.3426 9.79804 13.3426 7.21002 13.3426H5.99002C3.402 13.3426 2.10799 13.3426 1.30399 12.4734C0.5 11.6043 0.5 10.2053 0.5 7.40746V7.07773Z" stroke="#676B5D" stroke-linecap="round" stroke-linejoin="round"/>
<path d="M0.820801 4.35254H12.3787" stroke="#676B5D" stroke-linecap="round" stroke-linejoin="round"/>
</svg>
