<svg width="18" height="13" viewBox="0 0 18 13" fill="none" xmlns="http://www.w3.org/2000/svg">
<g clip-path="url(#clip0_2804_13508)">
<path d="M13.1178 6.23061H4.35725M1.26498 6.23061H0M1.26498 6.23061C1.26498 5.82065 1.42784 5.42748 1.71773 5.13759C2.00762 4.8477 2.4008 4.68484 2.81076 4.68484C3.22073 4.68484 3.6139 4.8477 3.90379 5.13759C4.19368 5.42748 4.35654 5.82065 4.35654 6.23061C4.35654 6.64058 4.19368 7.03375 3.90379 7.32364C3.6139 7.61353 3.22073 7.77639 2.81076 7.77639C2.4008 7.77639 2.00762 7.61353 1.71773 7.32364C1.42784 7.03375 1.26498 6.64058 1.26498 6.23061ZM13.1178 10.9155H9.04209M9.04209 10.9155C9.04209 11.3255 8.87884 11.7191 8.58888 12.0091C8.29892 12.299 7.90566 12.4619 7.4956 12.4619C7.08563 12.4619 6.69246 12.2984 6.40257 12.0085C6.11268 11.7186 5.94982 11.3254 5.94982 10.9155M9.04209 10.9155C9.04209 10.5054 8.87884 10.1125 8.58888 9.82253C8.29892 9.53257 7.90566 9.36968 7.4956 9.36968C7.08563 9.36968 6.69246 9.53253 6.40257 9.82242C6.11268 10.1123 5.94982 10.5055 5.94982 10.9155M5.94982 10.9155H0M13.1178 1.54578H10.9162M7.8239 1.54578H0M7.8239 1.54578C7.8239 1.13581 7.98676 0.742637 8.27665 0.452747C8.56654 0.162858 8.95971 6.10896e-09 9.36968 0C9.57267 -3.02485e-09 9.77368 0.0399827 9.96122 0.117665C10.1488 0.195348 10.3192 0.309209 10.4627 0.452747C10.6062 0.596286 10.7201 0.766691 10.7978 0.954234C10.8755 1.14178 10.9155 1.34278 10.9155 1.54578C10.9155 1.74877 10.8755 1.94978 10.7978 2.13732C10.7201 2.32486 10.6062 2.49527 10.4627 2.63881C10.3192 2.78234 10.1488 2.89621 9.96122 2.97389C9.77368 3.05157 9.57267 3.09155 9.36968 3.09155C8.95971 3.09155 8.56654 2.9287 8.27665 2.63881C7.98676 2.34892 7.8239 1.95574 7.8239 1.54578Z" stroke="#1A1A1A" stroke-width="1.06361" stroke-miterlimit="10" stroke-linecap="round"/>
</g>
<defs>
<clipPath id="clip0_2804_13508">
<rect width="17.0177" height="12.4619" fill="white"/>
</clipPath>
</defs>
</svg>
