<svg width="15" height="15" viewBox="0 0 15 15" fill="none" xmlns="http://www.w3.org/2000/svg">
<path d="M12.5 3.75C12.5 3.40482 12.2202 3.125 11.875 3.125H3.125C2.77982 3.125 2.5 3.40482 2.5 3.75V12.5C2.5 12.8452 2.77982 13.125 3.125 13.125H11.875C12.2202 13.125 12.5 12.8452 12.5 12.5V3.75ZM13.75 12.5C13.75 13.5355 12.9105 14.375 11.875 14.375H3.125C2.08947 14.375 1.25 13.5355 1.25 12.5V3.75C1.25 2.71447 2.08947 1.875 3.125 1.875H11.875C12.9105 1.875 13.75 2.71447 13.75 3.75V12.5Z" fill="#636363"/>
<path d="M9.375 3.75V1.25C9.375 0.904822 9.65482 0.625 10 0.625C10.3452 0.625 10.625 0.904822 10.625 1.25V3.75C10.625 4.09518 10.3452 4.375 10 4.375C9.65482 4.375 9.375 4.09518 9.375 3.75Z" fill="#636363"/>
<path d="M4.375 3.75V1.25C4.375 0.904822 4.65482 0.625 5 0.625C5.34518 0.625 5.625 0.904822 5.625 1.25V3.75C5.625 4.09518 5.34518 4.375 5 4.375C4.65482 4.375 4.375 4.09518 4.375 3.75Z" fill="#636363"/>
<path d="M12.875 4.5C13.2202 4.5 13.5 4.77982 13.5 5.125C13.5 5.47018 13.2202 5.75 12.875 5.75H1.625C1.27982 5.75 1 5.47018 1 5.125C1 4.77982 1.27982 4.5 1.625 4.5H12.875Z" fill="#636363"/>
</svg>
