<svg width="15" height="15" viewBox="0 0 15 15" fill="none" xmlns="http://www.w3.org/2000/svg">
<g clip-path="url(#clip0_2377_4872)">
<path d="M7.84668 14.895C7.63674 15.035 7.36326 15.035 7.15332 14.895L7.5 14.375L7.84668 14.895ZM12.5 6.25C12.5 4.92392 11.9734 3.65192 11.0358 2.71423C10.0981 1.77655 8.82608 1.25 7.5 1.25C6.17392 1.25 4.90192 1.77655 3.96423 2.71423C3.02655 3.65192 2.5 4.92392 2.5 6.25C2.5 8.18627 3.75962 10.0653 5.14099 11.5234C5.8189 12.239 6.49924 12.8247 7.0105 13.2318C7.20045 13.3831 7.36701 13.5083 7.5 13.6066C7.63299 13.5083 7.79955 13.3831 7.9895 13.2318C8.50076 12.8247 9.1811 12.239 9.85901 11.5234C11.2404 10.0653 12.5 8.18627 12.5 6.25ZM13.75 6.25C13.75 8.68871 12.1971 10.8722 10.766 12.3828C10.0377 13.1516 9.31173 13.7769 8.76831 14.2096C8.49623 14.4263 8.26868 14.5958 8.10791 14.7119C8.02762 14.7699 7.9637 14.8148 7.91931 14.8456C7.89721 14.8609 7.87959 14.8727 7.86743 14.881C7.86135 14.8851 7.85623 14.8884 7.85278 14.8907C7.85111 14.8919 7.84954 14.8931 7.84851 14.8938L7.84729 14.8944V14.895C7.84711 14.8951 7.84669 14.895 7.5 14.375C7.15331 14.895 7.15289 14.8951 7.15271 14.895V14.8944L7.15149 14.8938C7.15046 14.8931 7.14889 14.8919 7.14722 14.8907C7.14377 14.8884 7.13865 14.8851 7.13257 14.881C7.12041 14.8727 7.10279 14.8609 7.08069 14.8456C7.0363 14.8148 6.97238 14.7699 6.89209 14.7119C6.73132 14.5958 6.50377 14.4263 6.23169 14.2096C5.68827 13.7769 4.96231 13.1516 4.23401 12.3828C2.80289 10.8722 1.25 8.68871 1.25 6.25C1.25 4.5924 1.90834 3.00255 3.08044 1.83044C4.25255 0.658342 5.8424 0 7.5 0C9.1576 0 10.7475 0.658342 11.9196 1.83044C13.0917 3.00255 13.75 4.5924 13.75 6.25Z" fill="#636363"/>
<path d="M8.75 6.25C8.75 5.55964 8.19036 5 7.5 5C6.80964 5 6.25 5.55964 6.25 6.25C6.25 6.94036 6.80964 7.5 7.5 7.5C8.19036 7.5 8.75 6.94036 8.75 6.25ZM10 6.25C10 7.63071 8.88071 8.75 7.5 8.75C6.11929 8.75 5 7.63071 5 6.25C5 4.86929 6.11929 3.75 7.5 3.75C8.88071 3.75 10 4.86929 10 6.25Z" fill="#636363"/>
</g>
<defs>
<clipPath id="clip0_2377_4872">
<rect width="15" height="15" fill="white"/>
</clipPath>
</defs>
</svg>
