<svg width="15" height="15" viewBox="0 0 15 15" fill="none" xmlns="http://www.w3.org/2000/svg">
<rect width="15" height="15" rx="7.5" fill="#676B5D"/>
<path d="M7.13947 2.60659C6.9594 2.66242 6.73236 2.81794 6.59535 2.98144C6.35265 3.26856 6.27828 3.83083 6.43094 4.24556C6.77542 5.18268 8.10635 5.22654 8.54477 4.31335C8.61524 4.16979 8.64264 4.03819 8.65047 3.78298C8.66612 3.46396 8.65829 3.42807 8.53303 3.18481C8.27076 2.6664 7.69924 2.42714 7.13947 2.60659Z" fill="#E8ECDF"/>
<path d="M6.71112 5.8408L6.625 5.90061V8.73192C6.625 11.5074 6.625 11.5592 6.70329 11.639C6.77767 11.7148 6.83247 11.7188 7.50576 11.7188C8.17906 11.7188 8.23386 11.7148 8.30823 11.639C8.38652 11.5592 8.38652 11.5074 8.38652 8.75585V5.94847L8.29649 5.86472C8.21037 5.78098 8.17123 5.77699 7.50185 5.77699C6.93033 5.77699 6.78158 5.78896 6.71112 5.8408Z" fill="#E8ECDF"/>
</svg>
