<svg width="57" height="57" viewBox="0 0 57 57" fill="none" xmlns="http://www.w3.org/2000/svg">
<rect width="57" height="57" rx="28.5" fill="#676B5D"/>
<path d="M28.1543 10.1185C28.0148 10.1846 27.824 10.3535 27.7359 10.4929C27.5744 10.7352 27.567 10.8086 27.567 12.2327C27.567 13.0549 27.545 13.7303 27.5156 13.7303C27.4789 13.7303 27.1633 13.767 26.7962 13.8037C22.1274 14.3249 18.0973 16.696 15.4325 20.5059C13.8763 22.7228 13.1422 24.7416 12.8485 27.6192L12.8045 28.045H11.2482C9.85347 28.045 9.66994 28.0597 9.4644 28.1845C9.02395 28.4561 8.85511 29.1828 9.1414 29.638C9.42769 30.1151 9.52313 30.1371 11.2409 30.1592L12.8045 30.1812L12.8485 30.5996C13.1642 33.5874 14.2213 36.2081 16.0418 38.5058C17.6128 40.4878 19.8591 42.1982 22.1935 43.1966C23.7131 43.8499 25.5483 44.3197 26.8476 44.3931L27.5597 44.4372L27.5817 45.876C27.6037 47.1093 27.6258 47.3515 27.7359 47.5204C28.0222 47.9608 28.5947 48.1223 29.0646 47.9021C29.5564 47.6672 29.5784 47.5717 29.6225 45.92L29.6592 44.4519L29.9528 44.4372C32.4047 44.283 35.0327 43.4095 37.2203 42.0074C38.5784 41.1411 40.4283 39.4307 41.4119 38.1387C42.2708 37.0082 42.9902 35.7456 43.4967 34.4683C43.9005 33.4479 44.3556 31.4365 44.3923 30.5189L44.3997 30.1738H45.8385C47.0644 30.1738 47.314 30.1518 47.5269 30.0417C48.0701 29.7701 48.2757 29.1094 47.9747 28.5809C47.6884 28.0744 47.593 28.045 45.9339 28.045H44.4657L44.4217 27.766C44.3997 27.6192 44.363 27.2669 44.341 26.9879C44.1134 24.6168 43.0416 22.0255 41.3752 19.8599C40.4136 18.6119 38.6885 17.0704 37.2056 16.1381C35.275 14.9195 32.691 14.0239 30.6135 13.8404C30.3345 13.8184 29.9895 13.7817 29.8647 13.7596L29.6225 13.7229V12.2034C29.6225 10.8086 29.6078 10.6618 29.4757 10.4415C29.2187 10.0158 28.6388 9.8763 28.1543 10.1185ZM27.567 17.1218C27.567 18.3257 27.589 18.5752 27.6992 18.7955C27.9708 19.3387 28.6608 19.5442 29.16 19.2359C29.5858 18.979 29.6225 18.8175 29.6225 17.1878V15.7123L29.9748 15.7563C33.4911 16.1601 36.4275 17.5989 38.8059 20.0948C40.8834 22.2824 42.0946 24.8223 42.3663 27.5458L42.4103 28.045H41.0229C39.6942 28.045 39.6134 28.0523 39.3859 28.2065C38.6885 28.6836 38.7325 29.6747 39.4666 30.0417C39.6795 30.1518 39.9291 30.1738 41.0596 30.1738H42.4103L42.3589 30.5556C41.9919 33.4112 40.832 35.8484 38.7839 38.058C37.1028 39.8785 34.5849 41.3981 32.2652 41.9927C31.5605 42.1762 30.7016 42.3304 30.0849 42.3964L29.6225 42.4478V40.8034C29.6225 39.3059 29.6078 39.1444 29.4757 38.9315C29.0719 38.2635 28.0589 38.3369 27.6992 39.0563C27.589 39.2765 27.567 39.5335 27.567 40.8769V42.4478L27.0752 42.3964C26.7962 42.3671 26.1649 42.2643 25.6731 42.1615C21.0703 41.2366 17.0769 37.7863 15.5427 33.3965C15.2931 32.6844 14.9701 31.3117 14.8967 30.629L14.8453 30.1738H16.1446C17.2971 30.1738 17.4733 30.1592 17.7302 30.027C18.3762 29.6967 18.4643 28.7571 17.8991 28.2652L17.6495 28.045H16.2474H14.8526L14.904 27.5458C15.2197 24.448 16.5337 21.864 18.9562 19.5296C20.0059 18.5165 20.9015 17.8852 22.2155 17.2245C23.9773 16.3436 25.4015 15.9399 27.4789 15.7196C27.545 15.7123 27.567 16.0353 27.567 17.1218Z" fill="#E8ECDF"/>
<path d="M27.1268 23.567C25.2035 24.0662 23.6619 25.6445 23.1628 27.6339C22.9866 28.3313 22.9646 29.6012 23.1187 30.328C23.5371 32.288 25.0127 33.8663 27.0167 34.505C27.8022 34.7545 29.1749 34.7913 29.9898 34.5857C31.9571 34.0939 33.6015 32.4936 34.108 30.5702C34.3062 29.7994 34.3282 28.5148 34.1447 27.788C33.9612 27.076 33.4473 26.0409 32.9849 25.4757C32.2361 24.5654 31.1203 23.846 30.0191 23.567C29.2484 23.3688 27.8976 23.3688 27.1268 23.567Z" fill="#E8ECDF"/>
</svg>
