<svg width="22" height="22" viewBox="0 0 22 22" fill="none" xmlns="http://www.w3.org/2000/svg">
<path d="M19.2501 4.41707C19.2501 4.19812 19.2067 3.98111 19.1229 3.77881C19.0392 3.57652 18.9161 3.39295 18.7613 3.23812C18.6065 3.08331 18.4229 2.96027 18.2206 2.87646C18.0185 2.79275 17.802 2.74943 17.5832 2.74935C17.3643 2.74932 17.1472 2.79273 16.945 2.87646C16.7428 2.96015 16.559 3.08261 16.4043 3.23722L15.0526 4.58895L17.4105 6.94686L18.7613 5.59603L18.8714 5.47428C18.9751 5.34792 19.0601 5.20689 19.1229 5.05534C19.2067 4.85313 19.25 4.63596 19.2501 4.41707ZM19.2501 18.3327C19.7562 18.3327 20.1665 18.7433 20.1667 19.2493C20.1667 19.7556 19.7563 20.166 19.2501 20.166H11.9167C11.4105 20.166 11.0001 19.7556 11.0001 19.2493C11.0003 18.7432 11.4106 18.3327 11.9167 18.3327H19.2501ZM4.16893 15.4753C4.06261 15.5813 3.98379 15.7121 3.93976 15.8557L2.97834 19.0193L6.14728 18.0588L6.25202 18.0203C6.35439 17.9749 6.44798 17.9109 6.52773 17.8314L16.1142 8.24308L13.7563 5.88517L4.16893 15.4753ZM21.0834 4.41707C21.0833 4.87665 20.9925 5.33168 20.8166 5.75627C20.6627 6.12788 20.4461 6.47042 20.1766 6.76782L20.0575 6.89225L18.1436 8.80526C18.1193 8.83699 18.0939 8.86841 18.0648 8.89746C18.0356 8.92674 18.0037 8.95265 17.9717 8.97713L7.82217 19.1294C7.50343 19.4471 7.11138 19.6823 6.68081 19.8133L2.69009 21.0236L2.6874 21.0245C2.44988 21.0958 2.19745 21.101 1.95693 21.0406C1.71635 20.9801 1.49607 20.856 1.32046 20.6807C1.1448 20.5054 1.01971 20.2849 0.958804 20.0443C0.898017 19.8038 0.903067 19.5514 0.974022 19.3138L0.975813 19.3102L2.1861 15.3204L2.18699 15.3177C2.31916 14.8868 2.5553 14.4946 2.87449 14.1764L13.025 4.02319C13.0486 3.99268 13.0739 3.96258 13.102 3.93457C13.1302 3.90637 13.1598 3.88044 13.1906 3.85669L15.1072 1.941C15.4323 1.61598 15.8184 1.35775 16.2431 1.18188C16.6679 1.00601 17.1235 0.915958 17.5832 0.916016C18.0428 0.916101 18.4978 1.00686 18.9224 1.18278C19.3471 1.35876 19.7334 1.61679 20.0584 1.94189C20.3832 2.26683 20.6408 2.65253 20.8166 3.07699C20.9925 3.50172 21.0835 3.95737 21.0834 4.41707Z" fill="#636363"/>
</svg>
