<svg width="30" height="30" viewBox="0 0 30 30" fill="none" xmlns="http://www.w3.org/2000/svg">
<path d="M25 6.25C25 5.55964 24.4404 5 23.75 5H6.25C5.55964 5 5 5.55964 5 6.25V23.75C5 24.4404 5.55964 25 6.25 25H23.75C24.4404 25 25 24.4404 25 23.75V6.25ZM27.5 23.75C27.5 25.8211 25.8211 27.5 23.75 27.5H6.25C4.17893 27.5 2.5 25.8211 2.5 23.75V6.25C2.5 4.17893 4.17893 2.5 6.25 2.5H23.75C25.8211 2.5 27.5 4.17893 27.5 6.25V23.75Z" fill="#ADADAD"/>
<path d="M10.625 12.5C11.6605 12.5 12.5 11.6605 12.5 10.625C12.5 9.58947 11.6605 8.75 10.625 8.75C9.58947 8.75 8.75 9.58947 8.75 10.625C8.75 11.6605 9.58947 12.5 10.625 12.5Z" fill="#ADADAD"/>
<path d="M19.2113 11.5308C19.7023 11.1303 20.4261 11.1586 20.8837 11.6162L27.1337 17.8662C27.6218 18.3544 27.6218 19.1456 27.1337 19.6338C26.6455 20.122 25.8543 20.122 25.3661 19.6338L19.9999 14.2676L7.13369 27.1338C6.64554 27.622 5.85427 27.622 5.36612 27.1338C4.87796 26.6456 4.87796 25.8544 5.36612 25.3662L19.1161 11.6162L19.2113 11.5308Z" fill="#ADADAD"/>
</svg>
