<svg width="18" height="18" viewBox="0 0 18 18" fill="none" xmlns="http://www.w3.org/2000/svg">
<path d="M9 16.5C13.1421 16.5 16.5 13.1421 16.5 9C16.5 4.85786 13.1421 1.5 9 1.5C4.85786 1.5 1.5 4.85786 1.5 9C1.5 13.1421 4.85786 16.5 9 16.5Z" fill="#D9D9D9"/>
<path d="M9 16.5C13.1421 16.5 16.5 13.1421 16.5 9C16.5 4.85786 13.1421 1.5 9 1.5C4.85786 1.5 1.5 4.85786 1.5 9C1.5 13.1421 4.85786 16.5 9 16.5Z" fill="black" fill-opacity="0.2"/>
<path d="M10.7197 6.21967C11.0126 5.92678 11.4873 5.92678 11.7802 6.21967C12.0731 6.51256 12.0731 6.98732 11.7802 7.28022L7.28022 11.7802C6.98732 12.0731 6.51256 12.0731 6.21967 11.7802C5.92678 11.4873 5.92678 11.0126 6.21967 10.7197L10.7197 6.21967Z" fill="white"/>
<path d="M6.21967 6.21967C6.51256 5.92678 6.98732 5.92678 7.28022 6.21967L11.7802 10.7197C12.0731 11.0126 12.0731 11.4873 11.7802 11.7802C11.4873 12.0731 11.0126 12.0731 10.7197 11.7802L6.21967 7.28022C5.92678 6.98732 5.92678 6.51256 6.21967 6.21967Z" fill="white"/>
</svg>
