<svg width="100%" height="100%" viewBox="0 0 345 50" fill="none" xmlns="http://www.w3.org/2000/svg" preserveAspectRatio="none">
<g clip-path="url(#clip0_3218_1898)">
<path d="M334.673 0H10.3912L0 10.6633V40.369L9.13787 49.7364C9.22357 49.8243 9.28784 49.8792 10.2413 49.9231C11.9231 49.978 16.0582 49.989 26.4602 50H26.878L29.5776 47.2216H335.359L339.301 43.1913L342.086 40.336L343.415 38.9853L344.1 38.2605L345 37.349V10.5864L334.673 0Z" fill="#E2FD34" fill-opacity="0.05"/>
</g>
<mask id="path-2-inside-1_3218_1898" fill="white">
<path d="M4.44653 17.1992C4.39297 17.1442 4.46796 22.8877 4.46796 22.8877C4.46796 22.8877 6.39623 21.0757 6.32124 20.9879C6.23554 20.9 6.32124 15.2773 6.32124 15.2773L4.45725 17.1882L4.44653 17.1992Z"/>
</mask>
<path d="M4.44653 17.1992L-3.42753 24.8802L4.44447 32.95L12.3186 24.8823L4.44653 17.1992ZM4.46796 22.8877L-6.5311 23.0313L-6.20495 48.0116L12.0007 30.9038L4.46796 22.8877ZM6.32124 20.9879L14.6879 13.8465L14.4506 13.5685L14.1953 13.3068L6.32124 20.9879ZM6.32124 15.2773L17.32 15.445L17.7411 -12.1824L-1.55284 7.59627L6.32124 15.2773ZM4.45725 17.1882L12.3293 24.8713L12.3313 24.8693L4.45725 17.1882ZM4.44653 17.1992L12.3206 9.51807C11.39 8.56407 9.46003 6.94323 6.45912 6.38457C3.12778 5.7644 0.228052 6.76739 -1.73056 8.09625C-4.69389 10.1068 -5.69637 12.9343 -5.76323 13.1008C-6.27606 14.3775 -6.42166 15.4827 -6.42935 15.5324C-6.51309 16.0749 -6.53756 16.5176 -6.54145 16.5811C-6.55834 16.8567 -6.56359 17.1026 -6.56567 17.205C-6.57099 17.4677 -6.57244 17.7749 -6.57271 18.0544C-6.57326 18.6388 -6.56853 19.3939 -6.56245 20.1156C-6.55629 20.8455 -6.54846 21.574 -6.54219 22.1179C-6.53905 22.3904 -6.53629 22.6178 -6.53431 22.7774C-6.53332 22.8573 -6.53253 22.9202 -6.53197 22.9635C-6.5317 22.9851 -6.53148 23.0018 -6.53134 23.0132C-6.53126 23.0189 -6.53121 23.0233 -6.53117 23.0264C-6.53115 23.0279 -6.53113 23.0291 -6.53112 23.0299C-6.53112 23.0303 -6.53111 23.0306 -6.53111 23.0309C-6.53111 23.031 -6.53111 23.0311 -6.53111 23.0312C-6.5311 23.0313 -6.5311 23.0313 4.46796 22.8877C15.467 22.7441 15.467 22.7441 15.467 22.7441C15.467 22.7441 15.467 22.7441 15.467 22.744C15.467 22.7439 15.467 22.7437 15.467 22.7435C15.467 22.7429 15.467 22.742 15.467 22.7408C15.4669 22.7383 15.4669 22.7344 15.4668 22.7293C15.4667 22.719 15.4665 22.7034 15.4662 22.683C15.4657 22.6421 15.465 22.5818 15.464 22.5047C15.4621 22.3504 15.4594 22.1295 15.4564 21.8644C15.4502 21.3331 15.4427 20.6292 15.4368 19.9301C15.4308 19.2228 15.4268 18.5523 15.4273 18.0752C15.4275 17.824 15.429 17.6915 15.4298 17.6507C15.4308 17.6012 15.4295 17.7294 15.4174 17.9268C15.4158 17.9514 15.394 18.3649 15.3131 18.8888C15.2887 19.0472 15.2446 19.3103 15.1717 19.6327C15.113 19.8918 14.9619 20.528 14.6515 21.3008C14.4943 21.6921 14.2036 22.3538 13.7225 23.1092C13.2932 23.7831 12.3332 25.1401 10.6212 26.3016C8.66296 27.6302 5.76364 28.6331 2.43271 28.013C-0.567791 27.4544 -2.49733 25.8338 -3.42753 24.8802L4.44653 17.1992ZM4.46796 22.8877C12.0007 30.9038 12.0009 30.9037 12.001 30.9035C12.0011 30.9034 12.0013 30.9033 12.0014 30.9031C12.0017 30.9028 12.0021 30.9025 12.0024 30.9022C12.0031 30.9016 12.0039 30.9008 12.0048 30.8999C12.0067 30.8982 12.009 30.896 12.0118 30.8933C12.0174 30.8881 12.0248 30.8811 12.034 30.8725C12.0522 30.8553 12.0773 30.8316 12.1083 30.8023C12.1702 30.7438 12.2564 30.6621 12.3588 30.5644C12.56 30.3726 12.8402 30.1036 13.1282 29.821C13.3902 29.5637 13.7629 29.1934 14.1016 28.8308C14.2373 28.6856 14.567 28.3306 14.9116 27.8921C15.0344 27.7359 15.4923 27.155 15.9398 26.3453C16.1288 26.0034 16.6747 24.9941 17.0155 23.5817C17.2288 22.6982 18.2682 18.041 14.6879 13.8465L6.32124 20.9879L-2.04539 28.1293C-3.83757 26.0296 -4.46713 23.7251 -4.62766 22.0308C-4.77939 20.4292 -4.54553 19.1457 -4.37047 18.4204C-4.03252 17.0201 -3.49325 16.0258 -3.31427 15.7021C-2.8867 14.9286 -2.46256 14.3957 -2.38535 14.2974C-2.23467 14.1057 -2.11687 13.971 -2.07214 13.9202C-2.01802 13.8589 -1.98251 13.8208 -1.97499 13.8127C-1.96205 13.7989 -1.98312 13.8217 -2.05053 13.8898C-2.11262 13.9525 -2.19091 14.0304 -2.28274 14.1205C-2.46747 14.3019 -2.66466 14.4914 -2.82266 14.642C-2.89983 14.7156 -2.96368 14.7761 -3.00697 14.8171C-3.02853 14.8375 -3.04477 14.8528 -3.05476 14.8622C-3.05974 14.8669 -3.06315 14.8701 -3.06486 14.8717C-3.06571 14.8725 -3.06614 14.8729 -3.06613 14.8729C-3.06612 14.8729 -3.06601 14.8728 -3.06578 14.8726C-3.06566 14.8725 -3.06552 14.8723 -3.06535 14.8722C-3.06526 14.8721 -3.06511 14.8719 -3.06507 14.8719C-3.06492 14.8717 -3.06475 14.8716 4.46796 22.8877ZM6.32124 20.9879L14.1953 13.3068C15.3753 14.5165 15.99 15.7102 16.243 16.2394C16.5423 16.8652 16.7219 17.3947 16.8195 17.7079C17.0128 18.3283 17.1065 18.8283 17.1436 19.0369C17.2247 19.4927 17.2559 19.8451 17.2641 19.9376C17.2768 20.0804 17.2829 20.186 17.2853 20.2297C17.288 20.2806 17.2892 20.313 17.2895 20.3201C17.2899 20.3322 17.289 20.3093 17.2878 20.2391C17.2867 20.1733 17.2856 20.0863 17.2848 19.9766C17.2814 19.5222 17.2835 18.8779 17.2888 18.1828C17.294 17.4999 17.3017 16.8145 17.3083 16.2966C17.3116 16.0385 17.3145 15.824 17.3166 15.6746C17.3177 15.6 17.3185 15.5417 17.3191 15.5025C17.3194 15.4829 17.3196 15.4681 17.3198 15.4584C17.3198 15.4535 17.3199 15.45 17.3199 15.4477C17.3199 15.4466 17.32 15.4458 17.32 15.4453C17.32 15.4451 17.32 15.445 17.32 15.4449C17.32 15.4449 17.32 15.4449 17.32 15.4449C17.32 15.4449 17.32 15.445 6.32124 15.2773C-4.67748 15.1097 -4.67748 15.1098 -4.67748 15.1099C-4.67748 15.11 -4.67749 15.1102 -4.67749 15.1103C-4.67749 15.1106 -4.6775 15.1109 -4.6775 15.1114C-4.67752 15.1123 -4.67754 15.1135 -4.67756 15.1151C-4.67761 15.1183 -4.67768 15.1228 -4.67776 15.1286C-4.67794 15.1402 -4.67819 15.1569 -4.6785 15.1785C-4.67914 15.2218 -4.68005 15.2844 -4.68117 15.3636C-4.68341 15.5221 -4.6865 15.7475 -4.68993 16.0179C-4.69676 16.557 -4.70503 17.2828 -4.71058 18.0165C-4.71604 18.738 -4.71926 19.5159 -4.71461 20.1405C-4.7124 20.4374 -4.70788 20.7908 -4.69619 21.1144C-4.69122 21.2519 -4.6797 21.5446 -4.64988 21.8809C-4.6376 22.0194 -4.60201 22.4084 -4.51622 22.8906C-4.47676 23.1124 -4.3806 23.6231 -4.18478 24.2516C-4.15539 24.346 -3.54412 26.6276 -1.55282 28.669L6.32124 20.9879ZM6.32124 15.2773L-1.55284 7.59627L-3.41683 9.50711L4.45725 17.1882L12.3313 24.8693L14.1953 22.9584L6.32124 15.2773ZM4.45725 17.1882L-3.41481 9.50503L-3.42552 9.516L4.44653 17.1992L12.3186 24.8823L12.3293 24.8713L4.45725 17.1882Z" fill="#E2FD34" mask="url(#path-2-inside-1_3218_1898)"/>
<mask id="path-4-inside-2_3218_1898" fill="white">
<path d="M11.1093 8.25974V5.84375L6.3208 10.7526V13.1137L11.1093 8.25974Z"/>
</mask>
<path d="M11.1093 8.25974L18.9401 15.985L22.1093 12.7724V8.25974H11.1093ZM11.1093 5.84375H22.1093V-21.1856L3.23528 -1.83733L11.1093 5.84375ZM6.3208 10.7526L-1.55327 3.07152L-4.6792 6.27599V10.7526H6.3208ZM6.3208 13.1137H-4.6792V39.9269L14.1516 20.8389L6.3208 13.1137ZM11.1093 8.25974H22.1093V5.84375H11.1093H0.109344V8.25974H11.1093ZM11.1093 5.84375L3.23528 -1.83733L-1.55327 3.07152L6.3208 10.7526L14.1949 18.4337L18.9834 13.5248L11.1093 5.84375ZM6.3208 10.7526H-4.6792V13.1137H6.3208H17.3208V10.7526H6.3208ZM6.3208 13.1137L14.1516 20.8389L18.9401 15.985L11.1093 8.25974L3.27858 0.534507L-1.50996 5.38846L6.3208 13.1137Z" fill="#E2FD34" mask="url(#path-4-inside-2_3218_1898)"/>
<mask id="path-6-inside-3_3218_1898" fill="white">
<path d="M335.288 5.78975L333.962 7.14844L337.976 11.2648L339.302 9.90607L335.288 5.78975Z"/>
</mask>
<path d="M333.962 7.14844L326.282 -0.72697L318.6 7.14576L326.279 15.0212L333.962 7.14844ZM335.288 5.78975L342.97 -2.08298L335.291 -9.95838L327.608 -2.08566L335.288 5.78975ZM339.302 9.90607L346.982 17.7815L354.664 9.90875L346.984 2.03334L339.302 9.90607ZM337.976 11.2648L330.293 19.1375L337.973 27.0129L345.656 19.1402L337.976 11.2648ZM333.962 7.14844L341.642 15.0238L342.967 13.6652L335.288 5.78975L327.608 -2.08566L326.282 -0.72697L333.962 7.14844ZM335.288 5.78975L327.605 13.6625L331.619 17.7788L339.302 9.90607L346.984 2.03334L342.97 -2.08298L335.288 5.78975ZM339.302 9.90607L331.622 2.03066L330.296 3.38935L337.976 11.2648L345.656 19.1402L346.982 17.7815L339.302 9.90607ZM337.976 11.2648L345.658 3.39203L341.644 -0.72429L333.962 7.14844L326.279 15.0212L330.293 19.1375L337.976 11.2648Z" fill="#E2FD34" mask="url(#path-6-inside-3_3218_1898)"/>
<mask id="path-8-inside-4_3218_1898" fill="white">
<path d="M336.954 39.0712L340.136 42.3328L341.464 40.9711L338.261 37.6875C338.261 37.6875 336.933 39.0602 336.943 39.0712H336.954Z"/>
</mask>
<path d="M336.954 39.0712L344.828 31.3901L341.591 28.0712H336.954V39.0712ZM340.136 42.3328L332.262 50.0139L340.136 58.0856L348.01 50.014L340.136 42.3328ZM341.464 40.9711L349.338 48.6522L356.831 40.9711L349.338 33.29L341.464 40.9711ZM338.261 37.6875L346.135 30.0064L338.229 21.902L330.356 30.0382L338.261 37.6875ZM336.943 39.0712L329.069 46.7523L332.307 50.0712H336.943V39.0712ZM336.954 39.0712L329.08 46.7523L332.262 50.0139L340.136 42.3328L348.01 34.6517L344.828 31.3901L336.954 39.0712ZM340.136 42.3328L348.01 50.014L349.338 48.6522L341.464 40.9711L333.59 33.2899L332.262 34.6516L340.136 42.3328ZM341.464 40.9711L349.338 33.29L346.135 30.0064L338.261 37.6875L330.387 45.3686L333.59 48.6522L341.464 40.9711ZM338.261 37.6875C330.356 30.0382 330.356 30.0382 330.356 30.0383C330.356 30.0383 330.356 30.0383 330.356 30.0384C330.356 30.0385 330.356 30.0386 330.356 30.0387C330.355 30.0389 330.355 30.0393 330.355 30.0397C330.354 30.0405 330.353 30.0417 330.351 30.0431C330.348 30.0461 330.344 30.0503 330.339 30.0557C330.329 30.0665 330.314 30.0821 330.295 30.1017C330.257 30.141 330.203 30.1967 330.139 30.2634C330.01 30.3962 329.837 30.5758 329.663 30.7577C329.493 30.9347 329.303 31.1333 329.148 31.2968C329.078 31.3714 328.977 31.4781 328.88 31.5841C328.845 31.6229 328.735 31.7437 328.607 31.8926C328.567 31.9386 328.379 32.1571 328.16 32.4478C328.091 32.5397 327.761 32.9742 327.414 33.5754C327.284 33.8008 326.808 34.6267 326.446 35.7842C326.271 36.3426 325.922 37.5907 325.944 39.2198C325.967 40.8722 326.415 44.0311 329.069 46.7523L336.943 39.0712L344.817 31.3901C347.472 34.1113 347.92 37.27 347.942 38.9222C347.964 40.5512 347.616 41.7991 347.441 42.3573C347.079 43.5143 346.603 44.3394 346.473 44.564C346.128 45.1635 345.799 45.5958 345.732 45.6848C345.518 45.9696 345.336 46.1798 345.306 46.2151C345.197 46.3428 345.114 46.4329 345.113 46.4331C345.087 46.4619 345.089 46.4596 345.141 46.404C345.233 46.307 345.373 46.1603 345.534 45.9928C345.69 45.8301 345.848 45.6658 345.969 45.5409C346.029 45.4788 346.079 45.4272 346.113 45.3913C346.131 45.3734 346.144 45.3594 346.153 45.3501C346.158 45.3455 346.161 45.342 346.163 45.3397C346.164 45.3386 346.165 45.3378 346.166 45.3373C346.166 45.3371 346.166 45.3369 346.166 45.3368C346.166 45.3368 346.166 45.3368 346.166 45.3368C346.166 45.3368 346.166 45.3368 346.166 45.3368C346.166 45.3368 346.166 45.3368 338.261 37.6875ZM336.943 39.0712V50.0712H336.954V39.0712V28.0712H336.943V39.0712Z" fill="#E2FD34" mask="url(#path-8-inside-4_3218_1898)"/>
<mask id="path-10-inside-5_3218_1898" fill="white">
<path d="M342.493 38.0422L340.221 35.7031C340.221 35.7031 338.904 37.0649 338.904 37.0758L342.085 40.3484L343.414 38.9867L342.503 38.0422H342.493Z"/>
</mask>
<path d="M342.493 38.0422L334.6 45.7048L337.841 49.0422H342.493V38.0422ZM340.221 35.7031L348.114 28.0406L340.208 19.8982L332.316 28.0539L340.221 35.7031ZM338.904 37.0758H327.904V41.5417L331.017 44.7437L338.904 37.0758ZM342.085 40.3484L334.199 48.0163L342.072 56.115L349.96 48.0295L342.085 40.3484ZM343.414 38.9867L351.288 46.6678L358.737 39.0316L351.333 31.3519L343.414 38.9867ZM342.503 38.0422L350.422 30.4074L347.178 27.0422H342.503V38.0422ZM342.493 38.0422L350.385 30.3797L348.114 28.0406L340.221 35.7031L332.329 43.3656L334.6 45.7048L342.493 38.0422ZM340.221 35.7031C332.316 28.0539 332.316 28.054 332.316 28.054C332.316 28.054 332.316 28.054 332.316 28.0541C332.316 28.0541 332.316 28.0542 332.316 28.0543C332.316 28.0545 332.316 28.0548 332.315 28.0552C332.315 28.0559 332.313 28.057 332.312 28.0584C332.309 28.0611 332.306 28.0651 332.301 28.0703C332.291 28.0806 332.276 28.0957 332.258 28.1147C332.221 28.1528 332.168 28.2071 332.105 28.2722C331.98 28.402 331.812 28.5764 331.642 28.7521C331.475 28.9254 331.298 29.1095 331.159 29.2552C331.092 29.3246 331.017 29.4042 330.95 29.4751C330.922 29.5042 330.861 29.5693 330.793 29.6443C330.769 29.6703 330.678 29.7699 330.568 29.8979C330.529 29.9436 330.377 30.1198 330.196 30.3545C330.123 30.4492 329.896 30.7447 329.639 31.1462C329.52 31.3325 329.252 31.7604 328.976 32.3392C328.911 32.4748 327.904 34.4127 327.904 37.0758H338.904H349.904C349.856 38.1015 349.571 39.7598 349.392 40.3918C349.249 40.8144 348.965 41.5234 348.832 41.8122C348.556 42.3907 348.288 42.8184 348.169 43.0045C347.913 43.4055 347.686 43.7003 347.614 43.7942C347.434 44.0273 347.284 44.2012 347.247 44.2439C347.142 44.3662 347.058 44.4575 347.044 44.4729C347.015 44.505 346.994 44.5281 346.986 44.5363C346.977 44.5463 346.971 44.5521 346.971 44.5523C346.971 44.5528 346.972 44.5508 346.977 44.5458C346.982 44.5409 346.988 44.5342 346.996 44.5256C347.013 44.5081 347.034 44.4857 347.061 44.4583C347.168 44.3455 347.321 44.1872 347.483 44.0186C347.643 43.8526 347.804 43.6858 347.926 43.56C347.986 43.4972 348.037 43.445 348.072 43.4086C348.09 43.3904 348.103 43.3762 348.113 43.3666C348.117 43.3618 348.121 43.3581 348.123 43.3557C348.124 43.3545 348.125 43.3536 348.126 43.3531C348.126 43.3528 348.126 43.3526 348.126 43.3524C348.126 43.3524 348.127 43.3523 348.127 43.3523C348.127 43.3523 348.127 43.3523 348.127 43.3523C348.127 43.3523 348.127 43.3523 340.221 35.7031ZM338.904 37.0758L331.017 44.7437L334.199 48.0163L342.085 40.3484L349.972 32.6806L346.791 29.408L338.904 37.0758ZM342.085 40.3484L349.96 48.0295L351.288 46.6678L343.414 38.9867L335.54 31.3056L334.211 32.6673L342.085 40.3484ZM343.414 38.9867L351.333 31.3519L350.422 30.4074L342.503 38.0422L334.584 45.6771L335.495 46.6215L343.414 38.9867ZM342.503 38.0422V27.0422H342.493V38.0422V49.0422H342.503V38.0422Z" fill="#E2FD34" mask="url(#path-10-inside-5_3218_1898)"/>
<mask id="path-12-inside-6_3218_1898" fill="white">
<path d="M334.684 0H10.402L0 10.6633V40.369L9.14858 49.7364C9.23428 49.8353 9.30927 49.8902 10.402 49.9231C12.0838 49.978 16.2189 49.989 26.6209 50H26.878L29.5883 47.2216H335.369L339.312 43.1913L338.851 42.7191L335.605 39.3806L329.252 45.8928H240.959H109.901H29.0526L26.3423 48.6602C20.2361 48.6602 11.4304 48.6383 9.88775 48.6163L1.30694 39.8199V11.2124L8.7415 3.59103H15.394L17.6008 1.33978H19.7648C18.9185 2.18537 17.558 3.56906 17.558 3.59103H20.7182C20.7182 3.59103 22.0787 2.18537 22.925 1.33978H24.4141L22.218 3.59103H26.0531L28.2492 1.33978H334.148L343.704 11.1355V24.5442L341.883 26.4111V31.0125C341.883 31.0125 342.761 32.0558 343.436 32.7586C342.622 33.5932 341.165 35.0977 341.09 35.1746L343.929 38.0848L344.111 38.2605L345 37.349V10.5864L334.684 0Z"/>
</mask>
<path d="M334.684 0L342.562 -7.677L339.324 -11H334.684V0ZM10.402 0V-11H5.76546L2.52789 -7.68109L10.402 0ZM0 10.6633L-7.87406 2.9822L-11 6.18667V10.6633H0ZM0 40.369H-11V44.8494L-7.86957 48.0547L0 40.369ZM9.14858 49.7364L17.4594 42.5301L17.2459 42.2839L17.0181 42.0507L9.14858 49.7364ZM10.402 49.9231L10.7609 38.929L10.7472 38.9285L10.7335 38.9281L10.402 49.9231ZM26.6209 50L26.6093 61H26.6209V50ZM26.878 50V61H31.5145L34.752 57.6811L26.878 50ZM29.5883 47.2216V36.2216H24.9518L21.7142 39.5405L29.5883 47.2216ZM335.369 47.2216V58.2216H339.997L343.233 54.9134L335.369 47.2216ZM339.312 43.1913L347.175 50.8831L354.689 43.2019L347.186 35.5104L339.312 43.1913ZM338.851 42.7191L330.964 50.3872L330.97 50.3936L330.977 50.4L338.851 42.7191ZM335.605 39.3806L343.492 31.7125L335.618 23.6143L327.731 31.6995L335.605 39.3806ZM329.252 45.8928V56.8928H333.889L337.127 53.5739L329.252 45.8928ZM29.0526 45.8928V34.8928H24.4289L21.1938 38.1962L29.0526 45.8928ZM26.3423 48.6602V59.6602H30.966L34.2012 56.3569L26.3423 48.6602ZM9.88775 48.6163L2.01369 56.2974L5.18706 59.5505L9.73115 59.6152L9.88775 48.6163ZM1.30694 39.8199H-9.69306V44.2965L-6.56712 47.501L1.30694 39.8199ZM1.30694 11.2124L-6.56713 3.5313L-9.69306 6.73576V11.2124H1.30694ZM8.7415 3.59103V-7.40897H4.105L0.867431 -4.09006L8.7415 3.59103ZM15.394 3.59103V14.591H20.0148L23.2494 11.2913L15.394 3.59103ZM17.6008 1.33978V-9.66022H12.9801L9.7455 -6.36046L17.6008 1.33978ZM19.7648 1.33978L27.5397 9.12117L46.3367 -9.66022H19.7648V1.33978ZM17.558 3.59103H6.55799V14.591H17.558V3.59103ZM20.7182 3.59103V14.591H25.3801L28.6223 11.2412L20.7182 3.59103ZM22.925 1.33978V-9.66022H18.3713L15.1501 -6.44162L22.925 1.33978ZM24.4141 1.33978L32.2881 9.02088L50.5115 -9.66022H24.4141V1.33978ZM22.218 3.59103L14.3439 -4.09008L-3.87943 14.591H22.218V3.59103ZM26.0531 3.59103V14.591H30.6896L33.9271 11.2721L26.0531 3.59103ZM28.2492 1.33978V-9.66022H23.6127L20.3751 -6.34133L28.2492 1.33978ZM334.148 1.33978L342.022 -6.34131L338.785 -9.66022H334.148V1.33978ZM343.704 11.1355H354.704V6.65889L351.578 3.45442L343.704 11.1355ZM343.704 24.5442L351.578 32.2254L354.704 29.0209V24.5442H343.704ZM341.883 26.4111L334.009 18.73L330.883 21.9345V26.4111H341.883ZM341.883 31.0125H330.883V35.0268L333.468 38.0975L341.883 31.0125ZM343.436 32.7586L351.31 40.4397L358.744 32.8189L351.37 25.1397L343.436 32.7586ZM341.09 35.1746L333.216 27.4935L325.723 35.1746L333.216 42.8557L341.09 35.1746ZM343.929 38.0848L336.055 45.7659L336.171 45.8853L336.291 46.0011L343.929 38.0848ZM344.111 38.2605L336.473 46.1769L344.346 53.7723L351.985 45.9415L344.111 38.2605ZM345 37.349L352.874 45.03L356 41.8256V37.349H345ZM345 10.5864H356V6.11313L352.878 2.90943L345 10.5864ZM334.684 0V-11H10.402V0V11H334.684V0ZM10.402 0L2.52789 -7.68109L-7.87406 2.9822L0 10.6633L7.87406 18.3444L18.276 7.68109L10.402 0ZM0 10.6633H-11V40.369H0H11V10.6633H0ZM0 40.369L-7.86957 48.0547L1.27901 57.4221L9.14858 49.7364L17.0181 42.0507L7.86957 32.6833L0 40.369ZM9.14858 49.7364L0.837796 56.9427C1.1588 57.3129 2.21477 58.5156 3.99254 59.4774C5.47737 60.2808 6.80768 60.5639 7.42933 60.6769C8.52602 60.8764 9.61467 60.9044 10.0704 60.9181L10.402 49.9231L10.7335 38.9281C10.5303 38.922 10.4817 38.9178 10.5241 38.9207C10.5503 38.9225 10.6344 38.9287 10.7588 38.9425C10.8786 38.9558 11.092 38.9822 11.366 39.032C11.8216 39.1149 13.0488 39.3637 14.4613 40.1279C16.1668 41.0506 17.1812 42.2093 17.4594 42.5301L9.14858 49.7364ZM10.402 49.9231L10.043 60.9173C11.9515 60.9796 16.3482 60.9892 26.6093 61L26.6209 50L26.6325 39C16.0896 38.9889 12.2162 38.9765 10.7609 38.929L10.402 49.9231ZM26.6209 50V61H26.878V50V39H26.6209V50ZM26.878 50L34.752 57.6811L37.4623 54.9027L29.5883 47.2216L21.7142 39.5405L19.0039 42.3189L26.878 50ZM29.5883 47.2216V58.2216H335.369V47.2216V36.2216H29.5883V47.2216ZM335.369 47.2216L343.233 54.9134L347.175 50.8831L339.312 43.1913L331.448 35.4995L327.506 39.5298L335.369 47.2216ZM339.312 43.1913L347.186 35.5104L346.725 35.0381L338.851 42.7191L330.977 50.4L331.437 50.8722L339.312 43.1913ZM338.851 42.7191L346.738 35.051L343.492 31.7125L335.605 39.3806L327.718 47.0487L330.964 50.3872L338.851 42.7191ZM335.605 39.3806L327.731 31.6995L321.378 38.2117L329.252 45.8928L337.127 53.5739L343.479 47.0617L335.605 39.3806ZM329.252 45.8928V34.8928H240.959V45.8928V56.8928H329.252V45.8928ZM240.959 45.8928V34.8928H109.901V45.8928V56.8928H240.959V45.8928ZM109.901 45.8928V34.8928H29.0526V45.8928V56.8928H109.901V45.8928ZM29.0526 45.8928L21.1938 38.1962L18.4835 40.9636L26.3423 48.6602L34.2012 56.3569L36.9115 53.5895L29.0526 45.8928ZM26.3423 48.6602V37.6602C20.2013 37.6602 11.4896 37.638 10.0444 37.6174L9.88775 48.6163L9.73115 59.6152C11.3712 59.6385 20.271 59.6602 26.3423 59.6602V48.6602ZM9.88775 48.6163L17.7618 40.9352L9.181 32.1388L1.30694 39.8199L-6.56712 47.501L2.01369 56.2974L9.88775 48.6163ZM1.30694 39.8199H12.3069V11.2124H1.30694H-9.69306V39.8199H1.30694ZM1.30694 11.2124L9.18101 18.8935L16.6156 11.2721L8.7415 3.59103L0.867431 -4.09006L-6.56713 3.5313L1.30694 11.2124ZM8.7415 3.59103V14.591H15.394V3.59103V-7.40897H8.7415V3.59103ZM15.394 3.59103L23.2494 11.2913L25.4562 9.04002L17.6008 1.33978L9.7455 -6.36046L7.5387 -4.10921L15.394 3.59103ZM17.6008 1.33978V12.3398H19.7648V1.33978V-9.66022H17.6008V1.33978ZM19.7648 1.33978L11.9898 -6.44162C11.5374 -5.98951 10.9601 -5.40629 10.4932 -4.93053C10.2616 -4.69462 10.0388 -4.4663 9.86452 -4.28556C9.78353 -4.20154 9.67916 -4.09273 9.58016 -3.98676C9.54127 -3.94513 9.43807 -3.83451 9.31901 -3.69934C9.27558 -3.65003 9.11913 -3.4725 8.93361 -3.23789C8.85892 -3.14343 8.62683 -2.84886 8.36396 -2.44851C8.24248 -2.2635 7.96684 -1.83425 7.68147 -1.2522C7.62355 -1.13406 6.55799 0.852226 6.55799 3.59103H17.558H28.558C28.558 5.20773 28.198 6.44201 28.0181 6.99475C27.8081 7.63999 27.5792 8.13857 27.435 8.43273C27.15 9.0141 26.8748 9.44252 26.754 9.62652C26.4924 10.0249 26.2623 10.3168 26.1902 10.408C26.0099 10.636 25.8612 10.8044 25.8279 10.8422C25.7292 10.9542 25.6561 11.0321 25.656 11.0321C25.6347 11.0549 25.6433 11.0454 25.7031 10.9834C25.8104 10.8721 25.9805 10.6975 26.1949 10.4791C26.6198 10.0461 27.1459 9.51466 27.5397 9.12117L19.7648 1.33978ZM17.558 3.59103V14.591H20.7182V3.59103V-7.40897H17.558V3.59103ZM20.7182 3.59103C28.6223 11.2412 28.6223 11.2413 28.6222 11.2413C28.6222 11.2413 28.6222 11.2413 28.6222 11.2413C28.6222 11.2413 28.6222 11.2413 28.6222 11.2413C28.6223 11.2412 28.6224 11.2411 28.6227 11.2408C28.6231 11.2404 28.6239 11.2396 28.625 11.2385C28.6271 11.2362 28.6306 11.2327 28.6352 11.2279C28.6445 11.2183 28.6586 11.2037 28.677 11.1847C28.714 11.1466 28.7682 11.0907 28.8362 11.0206C28.9725 10.8803 29.1627 10.6846 29.3783 10.4636C29.8195 10.0114 30.3298 9.49106 30.7 9.12117L22.925 1.33978L15.1501 -6.44162C14.674 -5.96591 14.0809 -5.3606 13.6302 -4.89862C13.3998 -4.66246 13.1971 -4.45393 13.0518 -4.30425C12.979 -4.2293 12.9204 -4.16885 12.8796 -4.12676C12.8592 -4.10571 12.8432 -4.08923 12.8322 -4.07781C12.8266 -4.0721 12.8223 -4.06765 12.8193 -4.06452C12.8178 -4.06296 12.8166 -4.06173 12.8157 -4.06084C12.8153 -4.06039 12.815 -4.06003 12.8147 -4.05975C12.8146 -4.05961 12.8144 -4.05949 12.8144 -4.0594C12.8143 -4.05935 12.8143 -4.05929 12.8142 -4.05927C12.8142 -4.05922 12.8141 -4.05917 20.7182 3.59103ZM22.925 1.33978V12.3398H24.4141V1.33978V-9.66022H22.925V1.33978ZM24.4141 1.33978L16.54 -6.34133L14.3439 -4.09008L22.218 3.59103L30.092 11.2721L32.2881 9.02088L24.4141 1.33978ZM22.218 3.59103V14.591H26.0531V3.59103V-7.40897H22.218V3.59103ZM26.0531 3.59103L33.9271 11.2721L36.1232 9.02088L28.2492 1.33978L20.3751 -6.34133L18.1791 -4.09008L26.0531 3.59103ZM28.2492 1.33978V12.3398H334.148V1.33978V-9.66022H28.2492V1.33978ZM334.148 1.33978L326.274 9.02087L335.83 18.8166L343.704 11.1355L351.578 3.45442L342.022 -6.34131L334.148 1.33978ZM343.704 11.1355H332.704V24.5442H343.704H354.704V11.1355H343.704ZM343.704 24.5442L335.83 16.8631L334.009 18.73L341.883 26.4111L349.757 34.0923L351.578 32.2254L343.704 24.5442ZM341.883 26.4111H330.883V31.0125H341.883H352.883V26.4111H341.883ZM341.883 31.0125C333.468 38.0975 333.468 38.0977 333.469 38.0979C333.469 38.098 333.469 38.0982 333.469 38.0983C333.469 38.0986 333.469 38.0989 333.47 38.0992C333.47 38.0999 333.471 38.1006 333.471 38.1014C333.473 38.1029 333.474 38.1047 333.476 38.1068C333.479 38.1109 333.484 38.116 333.489 38.1222C333.499 38.1344 333.513 38.1506 333.53 38.1703C333.563 38.2098 333.609 38.2639 333.665 38.3298C333.777 38.4607 333.933 38.6422 334.115 38.8505C334.452 39.2369 334.978 39.8321 335.502 40.3775L343.436 32.7586L351.37 25.1397C351.219 24.9823 350.969 24.7045 350.698 24.3935C350.575 24.2531 350.469 24.1299 350.395 24.0432C350.359 24.0003 350.331 23.9674 350.314 23.9471C350.305 23.937 350.299 23.93 350.296 23.9266C350.295 23.9249 350.294 23.9241 350.294 23.9243C350.294 23.9243 350.295 23.9246 350.295 23.9252C350.295 23.9254 350.296 23.9258 350.296 23.9262C350.296 23.9264 350.296 23.9266 350.296 23.9268C350.297 23.9269 350.297 23.9271 350.297 23.9271C350.297 23.9273 350.297 23.9275 341.883 31.0125ZM343.436 32.7586L335.562 25.0775C335.143 25.5071 334.566 26.1018 334.09 26.5918C333.851 26.8382 333.636 27.0606 333.476 27.2256C333.395 27.3085 333.33 27.3761 333.282 27.4255C333.225 27.4837 333.21 27.4991 333.216 27.4935L341.09 35.1746L348.964 42.8557C349.015 42.8029 349.427 42.3778 349.881 41.9097C350.357 41.4197 350.915 40.8448 351.31 40.4397L343.436 32.7586ZM341.09 35.1746L333.216 42.8557L336.055 45.7659L343.929 38.0848L351.803 30.4037L348.964 27.4935L341.09 35.1746ZM343.929 38.0848L336.291 46.0011L336.473 46.1769L344.111 38.2605L351.748 30.3441L351.566 30.1684L343.929 38.0848ZM344.111 38.2605L351.985 45.9415L352.874 45.03L345 37.349L337.126 29.668L336.237 30.5795L344.111 38.2605ZM345 37.349H356V10.5864H345H334V37.349H345ZM345 10.5864L352.878 2.90943L342.562 -7.677L334.684 0L326.806 7.677L337.122 18.2634L345 10.5864Z" fill="#E2FD34" mask="url(#path-12-inside-6_3218_1898)"/>
<defs>
<clipPath id="clip0_3218_1898">
<rect width="345" height="50" fill="white"/>
</clipPath>
</defs>
</svg>
