<svg width="80" height="80" viewBox="0 0 80 80" fill="none" xmlns="http://www.w3.org/2000/svg">
<mask id="path-1-inside-1_2110_3538" fill="white">
<path d="M63.3334 43.3268H43.3334V63.3268H36.6668V43.3268H16.6667V36.6602H36.6668V16.6602H43.3334V36.6602H63.3334V43.3268Z"/>
</mask>
<path d="M63.3334 43.3268V73.3268H93.3334V43.3268H63.3334ZM43.3334 43.3268V13.3268H13.3334V43.3268H43.3334ZM43.3334 63.3268V93.3268H73.3334V63.3268H43.3334ZM36.6668 63.3268H6.66675V93.3268H36.6668V63.3268ZM36.6668 43.3268H66.6668V13.3268H36.6668V43.3268ZM16.6667 43.3268H-13.3333V73.3268H16.6667V43.3268ZM16.6667 36.6602V6.66016H-13.3333V36.6602H16.6667ZM36.6668 36.6602V66.6602H66.6668V36.6602H36.6668ZM36.6668 16.6602V-13.3398H6.66675V16.6602H36.6668ZM43.3334 16.6602H73.3334V-13.3398H43.3334V16.6602ZM43.3334 36.6602H13.3334V66.6602H43.3334V36.6602ZM63.3334 36.6602H93.3334V6.66016H63.3334V36.6602ZM63.3334 43.3268V13.3268H43.3334V43.3268V73.3268H63.3334V43.3268ZM43.3334 43.3268H13.3334V63.3268H43.3334H73.3334V43.3268H43.3334ZM43.3334 63.3268V33.3268H36.6668V63.3268V93.3268H43.3334V63.3268ZM36.6668 63.3268H66.6668V43.3268H36.6668H6.66675V63.3268H36.6668ZM36.6668 43.3268V13.3268H16.6667V43.3268V73.3268H36.6668V43.3268ZM16.6667 43.3268H46.6667V36.6602H16.6667H-13.3333V43.3268H16.6667ZM16.6667 36.6602V66.6602H36.6668V36.6602V6.66016H16.6667V36.6602ZM36.6668 36.6602H66.6668V16.6602H36.6668H6.66675V36.6602H36.6668ZM36.6668 16.6602V46.6602H43.3334V16.6602V-13.3398H36.6668V16.6602ZM43.3334 16.6602H13.3334V36.6602H43.3334H73.3334V16.6602H43.3334ZM43.3334 36.6602V66.6602H63.3334V36.6602V6.66016H43.3334V36.6602ZM63.3334 36.6602H33.3334V43.3268H63.3334H93.3334V36.6602H63.3334Z" fill="white" mask="url(#path-1-inside-1_2110_3538)"/>
</svg>
