<svg width="24" height="24" viewBox="0 0 24 24" fill="none" xmlns="http://www.w3.org/2000/svg">
<path d="M13.8529 9.31803L14.6809 10.146L6.52693 18.3H5.69893V17.472L13.8529 9.31803ZM17.0929 3.90002C16.8679 3.90002 16.6339 3.99002 16.4629 4.16102L14.8159 5.80802L18.1909 9.18302L19.8379 7.53602C19.9214 7.45276 19.9876 7.35386 20.0327 7.24499C20.0779 7.13611 20.1011 7.0194 20.1011 6.90152C20.1011 6.78365 20.0779 6.66694 20.0327 6.55806C19.9876 6.44919 19.9214 6.35029 19.8379 6.26702L17.7319 4.16102C17.5519 3.98102 17.3269 3.90002 17.0929 3.90002ZM13.8529 6.77102L3.89893 16.725V20.1H7.27393L17.2279 10.146L13.8529 6.77102Z" fill="white"/>
</svg>
