<svg width="44" height="44" viewBox="0 0 44 44" fill="none" xmlns="http://www.w3.org/2000/svg">
<path d="M38.4908 12.65C38.4603 12.3419 38.3522 12.0466 38.1765 11.7917C38.0008 11.5367 37.7632 11.3306 37.4861 11.1925L22.8195 3.85916C22.5648 3.7317 22.2839 3.66534 21.9991 3.66534C21.7142 3.66534 21.4333 3.7317 21.1786 3.85916L6.51198 11.1925C6.23564 11.3314 5.99885 11.5378 5.82354 11.7926C5.64824 12.0474 5.5401 12.3423 5.50914 12.65C5.48898 12.8462 3.74731 32.3895 21.2556 40.1757C21.4896 40.2812 21.7433 40.3358 22 40.3358C22.2566 40.3358 22.5104 40.2812 22.7443 40.1757C40.2526 32.3895 38.511 12.848 38.4908 12.65ZM22 36.4778C9.59014 30.4792 9.00348 17.677 9.10431 13.9975L22 7.54966L34.8865 13.9938C34.9543 17.6403 34.2851 30.5268 22 36.4778Z" fill="#4C5534"/>
<path d="M20.1666 23.0744L15.9628 18.8705L13.3705 21.4629L20.1666 28.259L30.6295 17.7962L28.0372 15.2039L20.1666 23.0744Z" fill="#4C5534"/>
</svg>
