<svg width="36" height="36" viewBox="0 0 36 36" fill="none" xmlns="http://www.w3.org/2000/svg">
<path d="M15.75 33C7.87994 33 1.5 26.2843 1.5 18C1.5 9.71573 7.87994 3 15.75 3C23.6201 3 30 9.71573 30 18C30 26.2843 23.6201 33 15.75 33Z" stroke="#E2FD34" stroke-width="2" stroke-linecap="round" stroke-linejoin="round"/>
<path d="M19.5 13.2C18.5455 12.4255 17.3542 12.0019 16.125 12C13.0185 12 10.5 14.685 10.5 18C10.5 21.315 13.0185 24 16.125 24C17.391 24 18.5595 23.553 19.5 22.8" stroke="#E2FD34" stroke-width="2" stroke-linecap="round" stroke-linejoin="round"/>
<path d="M15 3C21.4995 3 34.5 4.5 34.5 18C34.5 31.5 21.4995 33 15 33" stroke="#E2FD34" stroke-width="2"/>
</svg>
