<svg width="20" height="20" viewBox="0 0 20 20" fill="none" xmlns="http://www.w3.org/2000/svg">
<path d="M10.0002 1.58105C10.4298 1.58109 10.8522 1.69174 11.2266 1.90251C11.5541 2.08689 11.8349 2.3426 12.0493 2.64958L12.1372 2.78467L19.1986 14.5718L19.2051 14.5832C19.4234 14.9612 19.5392 15.3901 19.5404 15.8267C19.5416 16.2631 19.4277 16.6926 19.2116 17.0718C18.9954 17.4508 18.6836 17.7668 18.3075 17.9881C17.9313 18.2094 17.5036 18.3284 17.0672 18.3332H2.9323C2.49586 18.3283 2.06824 18.2095 1.69207 17.9881C1.31592 17.7668 1.00409 17.4509 0.787932 17.0718C0.571799 16.6926 0.458786 16.2631 0.45997 15.8267C0.461192 15.3901 0.576967 14.9612 0.795257 14.5832C0.797444 14.5794 0.79952 14.5755 0.801767 14.5718L7.86231 2.78467C8.08515 2.4173 8.39937 2.1133 8.77377 1.90251C9.14812 1.6918 9.5706 1.58105 10.0002 1.58105ZM10.0002 3.24772C9.85695 3.24772 9.71563 3.28488 9.59083 3.35514C9.46618 3.4254 9.36149 3.52658 9.28728 3.64893L2.23813 15.4165C2.16543 15.5424 2.12711 15.6854 2.12664 15.8307C2.12623 15.9761 2.16377 16.1194 2.23569 16.2458C2.30774 16.3722 2.4122 16.478 2.53761 16.5518C2.66296 16.6255 2.80561 16.6649 2.95102 16.6665H17.0493C17.1948 16.6649 17.3374 16.6255 17.4627 16.5518C17.5881 16.478 17.6918 16.3722 17.7638 16.2458C17.8358 16.1194 17.8741 15.9762 17.8737 15.8307C17.8732 15.6854 17.8341 15.5424 17.7614 15.4165L10.7122 3.64893L10.6512 3.56104C10.5846 3.47765 10.5023 3.40782 10.4087 3.35514C10.284 3.28491 10.1433 3.24775 10.0002 3.24772Z" fill="#F0705F"/>
<path d="M9.16663 10.8334V7.50002C9.16663 7.03978 9.53972 6.66669 9.99996 6.66669C10.4602 6.66669 10.8333 7.03978 10.8333 7.50002V10.8334C10.8333 11.2936 10.4602 11.6667 9.99996 11.6667C9.53972 11.6667 9.16663 11.2936 9.16663 10.8334Z" fill="#F0705F"/>
<path d="M10.0081 13.3333C10.4683 13.3333 10.8414 13.7064 10.8414 14.1666C10.8414 14.6269 10.4683 15 10.0081 15H9.99996C9.53972 15 9.16663 14.6269 9.16663 14.1666C9.16663 13.7064 9.53972 13.3333 9.99996 13.3333H10.0081Z" fill="#F0705F"/>
</svg>
