<svg width="15" height="15" viewBox="0 0 15 15" fill="none" xmlns="http://www.w3.org/2000/svg">
<path fill-rule="evenodd" clip-rule="evenodd" d="M6.48859 0.418355C6.74179 0.165477 7.08057 0.01668 7.43809 0.00131956C7.79561 -0.0140409 8.1459 0.105151 8.41986 0.33538L8.51141 0.41907L9.87046 1.77743H11.7917C12.1525 1.77749 12.5 1.91389 12.7644 2.15928C13.0289 2.40468 13.1909 2.74095 13.218 3.10073L13.2223 3.20803V5.12933L14.5813 6.4884C14.8344 6.74165 14.9833 7.08058 14.9987 7.43827C15.014 7.79597 14.8947 8.14642 14.6643 8.42043L14.5806 8.51127L13.2216 9.87035V11.7916C13.2217 12.1526 13.0854 12.5002 12.84 12.7648C12.5946 13.0295 12.2582 13.1916 11.8983 13.2187L11.7917 13.2222H9.87117L8.51213 14.5813C8.25889 14.8344 7.91996 14.9833 7.56228 14.9987C7.20459 15.014 6.85415 14.8947 6.58014 14.6643L6.4893 14.5813L5.13026 13.2222H3.20829C2.84737 13.2224 2.49975 13.086 2.23511 12.8406C1.97046 12.5952 1.80836 12.2588 1.78129 11.8989L1.77772 11.7916V9.87035L0.418672 8.51127C0.1656 8.25803 0.0166801 7.9191 0.00131855 7.5614C-0.014043 7.20371 0.105271 6.85325 0.335699 6.57924L0.418672 6.4884L1.77772 5.12933V3.20803C1.77778 2.84723 1.91417 2.49978 2.15956 2.23528C2.40495 1.97078 2.74122 1.80878 3.10099 1.78172L3.20829 1.77743H5.12954L6.48859 0.418355ZM9.70237 5.34177L6.66669 8.37751L5.40207 7.11286C5.26785 6.97873 5.08585 6.90342 4.89611 6.90349C4.70636 6.90356 4.52442 6.979 4.3903 7.11322C4.25617 7.24744 4.18086 7.42944 4.18093 7.61919C4.181 7.80894 4.25644 7.99088 4.39065 8.12501L6.1102 9.84459C6.18327 9.9177 6.27002 9.97569 6.36551 10.0153C6.46099 10.0548 6.56334 10.0752 6.66669 10.0752C6.77005 10.0752 6.87239 10.0548 6.96788 10.0153C7.06336 9.97569 7.15012 9.9177 7.22319 9.84459L10.7138 6.35321C10.8441 6.2183 10.9162 6.03761 10.9145 5.85007C10.9129 5.66252 10.8377 5.48311 10.7051 5.35049C10.5724 5.21786 10.393 5.14264 10.2055 5.14101C10.018 5.13938 9.83727 5.21147 9.70237 5.34177Z" fill="#E2FD34"/>
</svg>
