<svg width="20" height="20" viewBox="0 0 20 20" fill="none" xmlns="http://www.w3.org/2000/svg">
<g clip-path="url(#clip0_838_2025)">
<path d="M11.6667 10C11.6667 9.07953 10.9205 8.33333 10 8.33333C9.07953 8.33333 8.33333 9.07953 8.33333 10C8.33333 10.9205 9.07953 11.6667 10 11.6667C10.9205 11.6667 11.6667 10.9205 11.6667 10ZM13.3333 10C13.3333 11.8409 11.8409 13.3333 10 13.3333C8.15905 13.3333 6.66667 11.8409 6.66667 10C6.66667 8.15905 8.15905 6.66667 10 6.66667C11.8409 6.66667 13.3333 8.15905 13.3333 10Z" fill="#666666"/>
<path d="M10.8333 2.5C10.8333 2.27899 10.7455 2.06709 10.5892 1.91081C10.4329 1.75453 10.221 1.66667 10 1.66667C9.77899 1.66667 9.56709 1.75453 9.41081 1.91081C9.25453 2.06709 9.16667 2.27899 9.16667 2.5V2.64486C9.16495 3.07553 9.03744 3.49672 8.79964 3.85579C8.56185 4.2148 8.22376 4.49671 7.82796 4.66634C7.75877 4.69595 7.68573 4.71408 7.61149 4.72412C7.25081 4.85116 6.86255 4.88379 6.48437 4.81527C6.05021 4.73654 5.64909 4.52892 5.33366 4.22038L5.32715 4.21468L5.27751 4.16423C5.20012 4.08677 5.10766 4.02468 5.00651 3.98275C4.9054 3.94086 4.79694 3.91927 4.6875 3.91927C4.57806 3.91927 4.4696 3.94086 4.36849 3.98275C4.26734 4.02468 4.17569 4.08677 4.09831 4.16423C4.02083 4.24162 3.95795 4.33406 3.91602 4.43522C3.87415 4.53631 3.85254 4.64482 3.85254 4.75423C3.85255 4.86366 3.87413 4.97214 3.91602 5.07324C3.95794 5.17439 4.02003 5.26604 4.09749 5.34342L4.15446 5.40039C4.46301 5.71582 4.66981 6.11694 4.74854 6.55111C4.82401 6.96768 4.77551 7.39582 4.61426 7.78646L4.61507 7.78727C4.46212 8.20315 4.18773 8.56383 3.82731 8.82161C3.46693 9.07932 3.03733 9.22304 2.5944 9.2334H2.5C2.27899 9.2334 2.06709 9.32126 1.91081 9.47754C1.75455 9.63382 1.66667 9.84573 1.66667 10.0667C1.66668 10.2877 1.75454 10.4997 1.91081 10.6559C2.06708 10.8122 2.279 10.9001 2.5 10.9001H2.64486C3.07553 10.9018 3.49672 11.0293 3.85579 11.2671C4.21479 11.5049 4.49671 11.843 4.66634 12.2388C4.84153 12.6402 4.89338 13.0845 4.81527 13.5156C4.73654 13.9498 4.52892 14.3509 4.22038 14.6663L4.21468 14.6729L4.16423 14.7225C4.08677 14.7999 4.02468 14.8923 3.98275 14.9935C3.94086 15.0946 3.91927 15.2031 3.91927 15.3125C3.91927 15.4219 3.94086 15.5304 3.98275 15.6315C4.01421 15.7074 4.05693 15.7782 4.10889 15.8415L4.16423 15.9017C4.24162 15.9792 4.33405 16.042 4.43522 16.084C4.53631 16.1258 4.64482 16.1475 4.75423 16.1475C4.86366 16.1475 4.97214 16.1259 5.07324 16.084C5.17439 16.0421 5.26604 15.98 5.34342 15.9025L5.40039 15.8455C5.71581 15.537 6.11698 15.3302 6.55111 15.2515C6.98509 15.1728 7.43258 15.2264 7.8361 15.4045C8.23159 15.5605 8.57385 15.8263 8.82161 16.1727C9.07932 16.5331 9.22304 16.9627 9.2334 17.4056V17.5C9.2334 17.721 9.32126 17.9329 9.47754 18.0892C9.63382 18.2455 9.84573 18.3333 10.0667 18.3333C10.2877 18.3333 10.4997 18.2455 10.6559 18.0892C10.8122 17.9329 10.9001 17.721 10.9001 17.5V17.3551C10.9018 16.9245 11.0293 16.5033 11.2671 16.1442C11.4752 15.83 11.76 15.5753 12.0931 15.4028L12.2388 15.3337C12.6401 15.1586 13.0846 15.1066 13.5156 15.1847C13.8956 15.2536 14.2503 15.4207 14.5443 15.6681L14.6663 15.7796L14.6729 15.7853L14.7225 15.8358C14.7999 15.9132 14.8923 15.9753 14.9935 16.0173C15.0946 16.0591 15.2031 16.0807 15.3125 16.0807C15.4219 16.0807 15.5304 16.0591 15.6315 16.0173C15.7327 15.9753 15.8243 15.9132 15.9017 15.8358C15.9792 15.7584 16.042 15.6659 16.084 15.5648C16.1258 15.4637 16.1475 15.3552 16.1475 15.2458C16.1475 15.1363 16.1259 15.0279 16.084 14.9268C16.0421 14.8256 15.98 14.734 15.9025 14.6566L15.8455 14.5996C15.5373 14.2843 15.3301 13.8828 15.2515 13.4489C15.1734 13.0179 15.2253 12.5734 15.4004 12.172L15.4696 12.0264C15.642 11.6933 15.8967 11.4085 16.2109 11.2004C16.57 10.9626 16.9912 10.8351 17.4219 10.8333H17.5C17.721 10.8333 17.9329 10.7455 18.0892 10.5892C18.2455 10.4329 18.3333 10.221 18.3333 10C18.3333 9.77899 18.2455 9.56709 18.0892 9.41081C17.9329 9.25453 17.721 9.16667 17.5 9.16667H17.3551C16.9245 9.16495 16.5033 9.03744 16.1442 8.79964C15.7852 8.56185 15.5033 8.22376 15.3337 7.82796C15.304 7.75874 15.2851 7.68577 15.2751 7.61149C15.1481 7.25088 15.1162 6.86246 15.1847 6.48437C15.2635 6.05021 15.4711 5.64909 15.7796 5.33366L15.7853 5.32715L15.8358 5.27751C15.9132 5.20012 15.9753 5.10765 16.0173 5.00651C16.0591 4.9054 16.0807 4.79694 16.0807 4.6875C16.0807 4.57806 16.0591 4.4696 16.0173 4.36849C15.9753 4.26735 15.9132 4.17569 15.8358 4.09831C15.7584 4.02083 15.6659 3.95795 15.5648 3.91602C15.4637 3.87415 15.3552 3.85254 15.2458 3.85254C15.1363 3.85255 15.0279 3.87413 14.9268 3.91602C14.8256 3.95794 14.734 4.02004 14.6566 4.09749L14.5996 4.15446L14.5988 4.15365C14.2834 4.46214 13.883 4.66982 13.4489 4.74854C13.0178 4.82664 12.5735 4.774 12.172 4.5988C11.7762 4.42915 11.4382 4.14809 11.2004 3.78906C10.9626 3.42999 10.8351 3.0088 10.8333 2.57812V2.5ZM12.5 2.57161L12.5057 2.65055C12.5174 2.72819 12.5466 2.80267 12.5903 2.86865C12.6486 2.95655 12.7311 3.02562 12.828 3.06722L12.8361 3.07129C12.9351 3.11499 13.0454 3.12803 13.1519 3.10872C13.2583 3.08941 13.3569 3.03792 13.4342 2.96224L13.4774 2.91911L13.6589 2.75391C13.8486 2.59809 14.0611 2.47147 14.2887 2.37712C14.5922 2.25134 14.9173 2.18588 15.2458 2.18587C15.5742 2.18587 15.8994 2.25136 16.2028 2.37712C16.5063 2.50293 16.7828 2.68667 17.015 2.91911C17.2473 3.15123 17.4312 3.4271 17.557 3.73047C17.6827 4.03385 17.7474 4.35911 17.7474 4.6875C17.7474 5.01589 17.6827 5.34115 17.557 5.64453C17.4626 5.87215 17.3352 6.08469 17.1794 6.27441L17.0142 6.45589L16.971 6.49902L16.9189 6.56087C16.8718 6.62616 16.8399 6.70149 16.8254 6.78141C16.806 6.88791 16.8183 6.99815 16.862 7.09717C16.8851 7.14966 16.903 7.20411 16.9149 7.25993C16.9545 7.31888 17.0049 7.37007 17.0646 7.40967C17.1527 7.468 17.256 7.49958 17.3617 7.5H17.5C18.163 7.5 18.7987 7.76358 19.2676 8.23242C19.7364 8.70126 20 9.33696 20 10C20 10.663 19.7364 11.2987 19.2676 11.7676C18.7987 12.2364 18.163 12.5 17.5 12.5H17.4284L17.3494 12.5057C17.2718 12.5174 17.1973 12.5466 17.1313 12.5903C17.0435 12.6486 16.9744 12.7311 16.9328 12.828L16.9287 12.8361C16.885 12.9351 16.872 13.0454 16.8913 13.1519C16.9106 13.2583 16.9621 13.3569 17.0378 13.4342L17.0809 13.4774L17.2461 13.6589C17.4019 13.8486 17.5285 14.0611 17.6229 14.2887C17.7487 14.5922 17.8141 14.9173 17.8141 15.2458C17.8141 15.5742 17.7486 15.8994 17.6229 16.2028C17.4971 16.5063 17.3133 16.7828 17.0809 17.015L17.0801 17.0142C16.848 17.2463 16.5727 17.4313 16.2695 17.557C15.9662 17.6827 15.6409 17.7474 15.3125 17.7474C14.9841 17.7474 14.6588 17.6827 14.3555 17.557C14.1278 17.4626 13.9153 17.3352 13.7256 17.1794L13.5441 17.0142L13.501 16.971L13.4391 16.9189C13.3738 16.8718 13.2985 16.8399 13.2186 16.8254C13.1121 16.806 13.0018 16.8183 12.9028 16.862L12.8947 16.866C12.7978 16.9076 12.7153 16.9767 12.6571 17.0646C12.5987 17.1527 12.5672 17.256 12.5667 17.3617V17.5C12.5667 18.163 12.3031 18.7987 11.8343 19.2676C11.3655 19.7364 10.7298 20 10.0667 20C9.4037 20 8.76799 19.7364 8.29915 19.2676C7.83031 18.7987 7.56673 18.163 7.56673 17.5V17.4447L7.55859 17.3641C7.54468 17.2844 7.51328 17.2083 7.46582 17.1419C7.40268 17.0537 7.3145 16.9866 7.21273 16.9491C7.19631 16.943 7.1799 16.9358 7.1639 16.9287C7.06489 16.885 6.95463 16.872 6.84814 16.8913C6.74165 16.9106 6.64312 16.9621 6.56576 17.0378L6.52262 17.0809C6.2905 17.3132 6.01463 17.4971 5.71126 17.6229C5.40781 17.7487 5.08272 17.8141 4.75423 17.8141C4.42576 17.8141 4.10064 17.7486 3.7972 17.6229C3.49371 17.4971 3.21721 17.3133 2.98503 17.0809C2.75311 16.8489 2.56864 16.5725 2.44303 16.2695C2.31733 15.9662 2.2526 15.6409 2.2526 15.3125C2.2526 14.9841 2.31733 14.6588 2.44303 14.3555C2.56879 14.0521 2.75354 13.7762 2.98584 13.5441L3.02897 13.501C3.10461 13.4236 3.15531 13.325 3.17464 13.2186C3.19395 13.1121 3.18172 13.0018 3.13802 12.9028L3.13395 12.8947C3.09237 12.7978 3.02327 12.7153 2.93538 12.6571C2.86942 12.6134 2.79489 12.5842 2.71729 12.5724L2.63835 12.5667H2.5C1.83697 12.5667 1.20126 12.3031 0.732422 11.8343C0.263596 11.3655 1.72579e-05 10.7297 0 10.0667C0 9.40371 0.263601 8.76799 0.732422 8.29915C1.20126 7.83031 1.83696 7.56673 2.5 7.56673H2.55534C2.664 7.56419 2.76967 7.52905 2.85807 7.46582C2.94629 7.40268 3.01342 7.31451 3.05094 7.21273L3.07129 7.1639C3.11499 7.06489 3.12803 6.95463 3.10872 6.84814C3.08941 6.74165 3.03792 6.64312 2.96224 6.56576L2.91911 6.52262C2.68681 6.2905 2.50287 6.01463 2.37712 5.71126C2.25134 5.40781 2.18588 5.08272 2.18587 4.75423C2.18587 4.42577 2.25136 4.10064 2.37712 3.7972C2.50293 3.49371 2.68667 3.21721 2.91911 2.98503C3.15114 2.75292 3.42728 2.56872 3.73047 2.44303C4.03385 2.31733 4.35911 2.2526 4.6875 2.2526C5.01589 2.2526 5.34115 2.31733 5.64453 2.44303C5.9479 2.56879 6.22377 2.75354 6.45589 2.98584L6.49902 3.02897C6.57635 3.10461 6.67499 3.15531 6.78141 3.17464C6.88791 3.19395 6.99815 3.18172 7.09717 3.13802L7.17773 3.1071C7.20482 3.09836 7.23213 3.09022 7.25993 3.08431C7.31872 3.04474 7.37015 2.99499 7.40967 2.93538C7.4674 2.84821 7.49895 2.7461 7.5 2.6416V2.5C7.5 1.83696 7.76358 1.20126 8.23242 0.732422C8.70126 0.263581 9.33696 0 10 0C10.663 0 11.2987 0.263581 11.7676 0.732422C12.2364 1.20126 12.5 1.83696 12.5 2.5V2.57161Z" fill="#666666"/>
</g>
<defs>
<clipPath id="clip0_838_2025">
<rect width="20" height="20" fill="white"/>
</clipPath>
</defs>
</svg>
