<svg width="17" height="17" viewBox="0 0 17 17" fill="none" xmlns="http://www.w3.org/2000/svg">
<path d="M8.50002 1.41675C4.59427 1.41675 1.41669 4.59433 1.41669 8.50008C1.41669 12.4058 4.59427 15.5834 8.50002 15.5834C12.4058 15.5834 15.5834 12.4058 15.5834 8.50008C15.5834 4.59433 12.4058 1.41675 8.50002 1.41675ZM8.50002 14.1667C5.37556 14.1667 2.83335 11.6245 2.83335 8.50008C2.83335 5.37562 5.37556 2.83341 8.50002 2.83341C11.6245 2.83341 14.1667 5.37562 14.1667 8.50008C14.1667 11.6245 11.6245 14.1667 8.50002 14.1667Z" fill="#ADADAD"/>
<path d="M9.20835 4.95825H7.79169V8.79317L10.1242 11.1257L11.1258 10.1241L9.20835 8.20667V4.95825Z" fill="#ADADAD"/>
</svg>
