<svg width="19" height="19" viewBox="0 0 19 19" fill="none" xmlns="http://www.w3.org/2000/svg">
<path d="M9.49984 1.5835C7.31721 1.5835 5.5415 3.3592 5.5415 5.54183V7.91683H4.74984C4.32991 7.91683 3.92718 8.08365 3.63025 8.38058C3.33332 8.67751 3.1665 9.08024 3.1665 9.50016V15.8335C3.1665 16.2534 3.33332 16.6562 3.63025 16.9531C3.92718 17.25 4.32991 17.4168 4.74984 17.4168H14.2498C14.6698 17.4168 15.0725 17.25 15.3694 16.9531C15.6664 16.6562 15.8332 16.2534 15.8332 15.8335V9.50016C15.8332 9.08024 15.6664 8.67751 15.3694 8.38058C15.0725 8.08365 14.6698 7.91683 14.2498 7.91683H13.4582V5.54183C13.4582 3.3592 11.6825 1.5835 9.49984 1.5835ZM7.12484 5.54183C7.12484 4.23241 8.19042 3.16683 9.49984 3.16683C10.8093 3.16683 11.8748 4.23241 11.8748 5.54183V7.91683H7.12484V5.54183ZM10.2915 14.0309V15.8335H8.70817V14.0309C8.43139 13.8724 8.20915 13.6337 8.07074 13.3464C7.93234 13.059 7.88427 12.7365 7.93288 12.4212C7.98149 12.106 8.12449 11.8129 8.34303 11.5806C8.56156 11.3483 8.84538 11.1877 9.15705 11.1199C9.38854 11.0687 9.62858 11.0702 9.85945 11.1241C10.0903 11.178 10.3061 11.2831 10.491 11.4316C10.6758 11.58 10.825 11.7681 10.9275 11.9819C11.03 12.1957 11.0832 12.4297 11.0832 12.6668C11.0827 12.9437 11.0093 13.2156 10.8703 13.455C10.7313 13.6945 10.5317 13.8931 10.2915 14.0309Z" fill="#636363"/>
</svg>
