<svg width="20" height="20" viewBox="0 0 20 20" fill="none" xmlns="http://www.w3.org/2000/svg">
<path d="M17.5 3.33341H15V2.50008C15 2.27907 14.9122 2.06711 14.7559 1.91083C14.5997 1.75455 14.3877 1.66675 14.1667 1.66675H5.83335C5.61234 1.66675 5.40038 1.75455 5.2441 1.91083C5.08782 2.06711 5.00002 2.27907 5.00002 2.50008V3.33341H2.50002C2.27901 3.33341 2.06704 3.42121 1.91076 3.57749C1.75448 3.73377 1.66669 3.94573 1.66669 4.16675V6.66675C1.66669 10.2584 3.16585 12.4251 5.68252 12.5101C6.05094 13.1432 6.55398 13.6877 7.15604 14.105C7.7581 14.5224 8.4445 14.8023 9.16669 14.9251V16.6667H7.50002V18.3334H12.5V16.6667H10.8334V14.9251C11.5554 14.8018 12.2416 14.5217 12.8436 14.1044C13.4456 13.6871 13.9487 13.1429 14.3175 12.5101C16.8342 12.4251 18.3334 10.2584 18.3334 6.66675V4.16675C18.3334 3.94573 18.2456 3.73377 18.0893 3.57749C17.933 3.42121 17.721 3.33341 17.5 3.33341ZM3.33335 6.66675V5.00008H5.00002V10.6917C3.51335 10.0651 3.33335 7.74925 3.33335 6.66675ZM10 13.3334C8.16169 13.3334 6.66669 11.8384 6.66669 10.0001V3.33341H13.3334V10.0001C13.3334 11.8384 11.8384 13.3334 10 13.3334ZM15 10.6917V5.00008H16.6667V6.66675C16.6667 7.74925 16.4867 10.0651 15 10.6917Z" fill="#90AC1C"/>
</svg>
