<svg width="18" height="18" viewBox="0 0 18 18" fill="none" xmlns="http://www.w3.org/2000/svg">
<path d="M15.75 3H13.5V2.25C13.5 2.05109 13.421 1.86032 13.2803 1.71967C13.1397 1.57902 12.9489 1.5 12.75 1.5H5.25C5.05109 1.5 4.86032 1.57902 4.71967 1.71967C4.57902 1.86032 4.5 2.05109 4.5 2.25V3H2.25C2.05109 3 1.86032 3.07902 1.71967 3.21967C1.57902 3.36032 1.5 3.55109 1.5 3.75V6C1.5 9.2325 2.85 11.1825 5.115 11.25C5.44548 11.8215 5.89764 12.3132 6.43943 12.6904C6.98121 13.0676 7.59935 13.3209 8.25 13.4325V15H6.75V16.5H11.25V15H9.75V13.4325C10.4007 13.3209 11.0188 13.0676 11.5606 12.6904C12.1024 12.3132 12.5545 11.8215 12.885 11.25C15.135 11.175 16.5 9.225 16.5 6V3.75C16.5 3.55109 16.421 3.36032 16.2803 3.21967C16.1397 3.07902 15.9489 3 15.75 3ZM3 6V4.5H4.5V9.6225C3.165 9.06 3 6.975 3 6ZM13.5 9.6225V4.5H15V6C15 6.975 14.835 9.06 13.5 9.6225Z" fill="white"/>
</svg>
